G04*
G04 #@! TF.GenerationSoftware,Altium Limited,Altium Designer,21.0.9 (235)*
G04*
G04 Layer_Color=16777215*
%FSLAX44Y44*%
%MOMM*%
G71*
G04*
G04 #@! TF.SameCoordinates,622A8C60-2CE5-4817-AE20-E8449A78C867*
G04*
G04*
G04 #@! TF.FilePolarity,Positive*
G04*
G01*
G75*
%ADD16R,0.9000X1.3000*%
%ADD17R,1.3000X0.9000*%
%ADD18O,0.4500X1.4500*%
G04:AMPARAMS|DCode=19|XSize=1.7542mm|YSize=3.1721mm|CornerRadius=0.4561mm|HoleSize=0mm|Usage=FLASHONLY|Rotation=180.000|XOffset=0mm|YOffset=0mm|HoleType=Round|Shape=RoundedRectangle|*
%AMROUNDEDRECTD19*
21,1,1.7542,2.2600,0,0,180.0*
21,1,0.8420,3.1721,0,0,180.0*
1,1,0.9122,-0.4210,1.1300*
1,1,0.9122,0.4210,1.1300*
1,1,0.9122,0.4210,-1.1300*
1,1,0.9122,-0.4210,-1.1300*
%
%ADD19ROUNDEDRECTD19*%
G04:AMPARAMS|DCode=20|XSize=1.7542mm|YSize=0.9134mm|CornerRadius=0.4567mm|HoleSize=0mm|Usage=FLASHONLY|Rotation=180.000|XOffset=0mm|YOffset=0mm|HoleType=Round|Shape=RoundedRectangle|*
%AMROUNDEDRECTD20*
21,1,1.7542,0.0000,0,0,180.0*
21,1,0.8408,0.9134,0,0,180.0*
1,1,0.9134,-0.4204,0.0000*
1,1,0.9134,0.4204,0.0000*
1,1,0.9134,0.4204,0.0000*
1,1,0.9134,-0.4204,0.0000*
%
%ADD20ROUNDEDRECTD20*%
%ADD21R,1.7542X0.9134*%
%ADD22R,0.8000X1.0000*%
%ADD23R,1.1000X0.7000*%
%ADD24R,1.0000X0.7000*%
%ADD25R,0.7000X1.0000*%
%ADD26R,0.7000X1.3000*%
%ADD27R,1.3000X0.7000*%
%ADD28R,1.9000X1.8500*%
%ADD29R,1.1400X0.3000*%
%ADD30R,1.1400X0.6000*%
%ADD31R,1.1000X1.2000*%
%ADD32R,1.7000X2.3000*%
%ADD33R,2.5000X1.7000*%
%ADD34R,1.7000X2.5000*%
%ADD35R,1.0000X3.2000*%
%ADD36R,2.0000X2.0000*%
D16*
X1069500Y629000D02*
D03*
X1088500D02*
D03*
D17*
X1184000Y630500D02*
D03*
Y611500D02*
D03*
X1125000Y653500D02*
D03*
Y672500D02*
D03*
X890000Y524000D02*
D03*
Y505000D02*
D03*
D18*
X1090250Y645250D02*
D03*
X1096750D02*
D03*
X1103250D02*
D03*
X1109750D02*
D03*
X1090250Y689750D02*
D03*
X1096750D02*
D03*
X1103250D02*
D03*
X1109750D02*
D03*
D19*
X523750Y760000D02*
D03*
D20*
X586250Y783000D02*
D03*
Y760000D02*
D03*
D21*
Y737000D02*
D03*
D22*
X1610500Y712500D02*
D03*
Y637500D02*
D03*
X1633500D02*
D03*
Y712500D02*
D03*
D23*
X1601500Y652500D02*
D03*
Y697500D02*
D03*
Y682500D02*
D03*
D24*
X532000Y575500D02*
D03*
Y585000D02*
D03*
Y594500D02*
D03*
X558000D02*
D03*
Y585000D02*
D03*
Y575500D02*
D03*
X532000Y535500D02*
D03*
Y545000D02*
D03*
Y554500D02*
D03*
X558000D02*
D03*
Y545000D02*
D03*
Y535500D02*
D03*
D25*
X1148000Y693000D02*
D03*
X1157500D02*
D03*
X1167000D02*
D03*
Y667000D02*
D03*
X1157500D02*
D03*
X1148000D02*
D03*
D26*
X620000Y595000D02*
D03*
X600000D02*
D03*
X1185000Y665000D02*
D03*
X1205000D02*
D03*
X635000Y750000D02*
D03*
X615000D02*
D03*
X680000D02*
D03*
X660000D02*
D03*
X1305000Y820000D02*
D03*
X1285000D02*
D03*
X1335000Y800000D02*
D03*
X1315000D02*
D03*
X1360000Y780000D02*
D03*
X1340000D02*
D03*
D27*
X582500Y575000D02*
D03*
Y555000D02*
D03*
X890000Y470000D02*
D03*
Y490000D02*
D03*
X1405000Y637500D02*
D03*
Y617500D02*
D03*
X1530000Y695000D02*
D03*
Y675000D02*
D03*
X1403000Y537000D02*
D03*
Y517000D02*
D03*
X1482500Y617500D02*
D03*
Y637500D02*
D03*
X1530000Y645000D02*
D03*
Y625000D02*
D03*
X1430000Y637500D02*
D03*
Y617500D02*
D03*
X1355000Y637500D02*
D03*
Y617500D02*
D03*
X1455000Y637500D02*
D03*
Y617500D02*
D03*
D28*
X1090000Y718250D02*
D03*
Y761750D02*
D03*
X1160000Y718250D02*
D03*
Y761750D02*
D03*
D29*
X470000Y759300D02*
D03*
Y764300D02*
D03*
Y754300D02*
D03*
Y769300D02*
D03*
Y749300D02*
D03*
Y774300D02*
D03*
Y744300D02*
D03*
Y779300D02*
D03*
D30*
Y793800D02*
D03*
Y785800D02*
D03*
Y737800D02*
D03*
Y729800D02*
D03*
D31*
X1271000Y820000D02*
D03*
X1250000D02*
D03*
X1300500Y800000D02*
D03*
X1279500D02*
D03*
X1325500Y780000D02*
D03*
X1304500D02*
D03*
D32*
X1215000Y424000D02*
D03*
Y466000D02*
D03*
D33*
X490000Y585000D02*
D03*
X450000D02*
D03*
X655000Y555000D02*
D03*
X615000D02*
D03*
D34*
X1157500Y640000D02*
D03*
Y600000D02*
D03*
D35*
X511000Y545000D02*
D03*
X449000D02*
D03*
X614000Y780000D02*
D03*
X676000D02*
D03*
D36*
X827500Y482500D02*
D03*
X862500Y517500D02*
D03*
Y482500D02*
D03*
X827500Y517500D02*
D03*
M02*
