G04*
G04 #@! TF.GenerationSoftware,Altium Limited,Altium Designer,21.0.9 (235)*
G04*
G04 Layer_Color=8388736*
%FSLAX44Y44*%
%MOMM*%
G71*
G04*
G04 #@! TF.SameCoordinates,622A8C60-2CE5-4817-AE20-E8449A78C867*
G04*
G04*
G04 #@! TF.FilePolarity,Negative*
G04*
G01*
G75*
G04:AMPARAMS|DCode=19|XSize=1.7542mm|YSize=3.1721mm|CornerRadius=0.4561mm|HoleSize=0mm|Usage=FLASHONLY|Rotation=180.000|XOffset=0mm|YOffset=0mm|HoleType=Round|Shape=RoundedRectangle|*
%AMROUNDEDRECTD19*
21,1,1.7542,2.2600,0,0,180.0*
21,1,0.8420,3.1721,0,0,180.0*
1,1,0.9122,-0.4210,1.1300*
1,1,0.9122,0.4210,1.1300*
1,1,0.9122,0.4210,-1.1300*
1,1,0.9122,-0.4210,-1.1300*
%
%ADD19ROUNDEDRECTD19*%
G04:AMPARAMS|DCode=20|XSize=1.7542mm|YSize=0.9134mm|CornerRadius=0.4567mm|HoleSize=0mm|Usage=FLASHONLY|Rotation=180.000|XOffset=0mm|YOffset=0mm|HoleType=Round|Shape=RoundedRectangle|*
%AMROUNDEDRECTD20*
21,1,1.7542,0.0000,0,0,180.0*
21,1,0.8408,0.9134,0,0,180.0*
1,1,0.9134,-0.4204,0.0000*
1,1,0.9134,0.4204,0.0000*
1,1,0.9134,0.4204,0.0000*
1,1,0.9134,-0.4204,0.0000*
%
%ADD20ROUNDEDRECTD20*%
%ADD21R,1.7542X0.9134*%
%ADD24R,1.0000X0.7000*%
%ADD25R,0.7000X1.0000*%
%ADD33R,2.5000X1.7000*%
%ADD34R,1.7000X2.5000*%
%ADD37R,1.1032X1.5032*%
%ADD38R,1.5032X1.1032*%
%ADD39O,0.6532X1.6532*%
%ADD40R,1.0032X1.2032*%
%ADD41R,1.3032X0.9032*%
%ADD42R,0.9032X1.5032*%
%ADD43R,1.5032X0.9032*%
%ADD44R,2.1032X2.0532*%
%ADD45R,1.3432X0.5032*%
%ADD46R,1.3432X0.8032*%
%ADD47R,1.3032X1.4032*%
%ADD48R,1.9032X2.5032*%
%ADD49R,1.2032X3.4032*%
%ADD50R,2.2032X2.2032*%
%ADD51C,2.2032*%
%ADD52R,2.2032X2.2032*%
%ADD53C,1.1032*%
%ADD54C,1.7032*%
%ADD55R,1.7032X1.7032*%
%ADD56R,1.7032X1.7032*%
%ADD57C,2.3032*%
%ADD58R,2.3032X2.3032*%
%ADD59R,1.8032X1.8032*%
%ADD60C,1.8032*%
%ADD61C,0.8532*%
%ADD62O,2.3032X1.2032*%
%ADD63O,2.0032X1.2032*%
%ADD64R,1.6032X1.6032*%
%ADD65C,1.6032*%
%ADD66C,0.7032*%
%ADD67C,1.4732*%
%ADD68C,0.8032*%
D19*
X523750Y760000D02*
D03*
D20*
X586250Y783000D02*
D03*
Y760000D02*
D03*
D21*
Y737000D02*
D03*
D24*
X532000Y575500D02*
D03*
Y585000D02*
D03*
Y594500D02*
D03*
X558000D02*
D03*
Y585000D02*
D03*
Y575500D02*
D03*
X532000Y535500D02*
D03*
Y545000D02*
D03*
Y554500D02*
D03*
X558000D02*
D03*
Y545000D02*
D03*
Y535500D02*
D03*
D25*
X1148000Y693000D02*
D03*
X1157500D02*
D03*
X1167000D02*
D03*
Y667000D02*
D03*
X1157500D02*
D03*
X1148000D02*
D03*
D33*
X490000Y585000D02*
D03*
X450000D02*
D03*
X655000Y555000D02*
D03*
X615000D02*
D03*
D34*
X1157500Y640000D02*
D03*
Y600000D02*
D03*
D37*
X1069500Y629000D02*
D03*
X1088500D02*
D03*
D38*
X1184000Y630500D02*
D03*
Y611500D02*
D03*
X1125000Y653500D02*
D03*
Y672500D02*
D03*
X890000Y524000D02*
D03*
Y505000D02*
D03*
D39*
X1090250Y645250D02*
D03*
X1096750D02*
D03*
X1103250D02*
D03*
X1109750D02*
D03*
X1090250Y689750D02*
D03*
X1096750D02*
D03*
X1103250D02*
D03*
X1109750D02*
D03*
D40*
X1610500Y712500D02*
D03*
Y637500D02*
D03*
X1633500D02*
D03*
Y712500D02*
D03*
D41*
X1601500Y652500D02*
D03*
Y697500D02*
D03*
Y682500D02*
D03*
D42*
X620000Y595000D02*
D03*
X600000D02*
D03*
X1185000Y665000D02*
D03*
X1205000D02*
D03*
X635000Y750000D02*
D03*
X615000D02*
D03*
X680000D02*
D03*
X660000D02*
D03*
X1305000Y820000D02*
D03*
X1285000D02*
D03*
X1335000Y800000D02*
D03*
X1315000D02*
D03*
X1360000Y780000D02*
D03*
X1340000D02*
D03*
D43*
X582500Y575000D02*
D03*
Y555000D02*
D03*
X890000Y470000D02*
D03*
Y490000D02*
D03*
X1405000Y637500D02*
D03*
Y617500D02*
D03*
X1530000Y695000D02*
D03*
Y675000D02*
D03*
X1403000Y537000D02*
D03*
Y517000D02*
D03*
X1482500Y617500D02*
D03*
Y637500D02*
D03*
X1530000Y645000D02*
D03*
Y625000D02*
D03*
X1430000Y637500D02*
D03*
Y617500D02*
D03*
X1355000Y637500D02*
D03*
Y617500D02*
D03*
X1455000Y637500D02*
D03*
Y617500D02*
D03*
D44*
X1090000Y718250D02*
D03*
Y761750D02*
D03*
X1160000Y718250D02*
D03*
Y761750D02*
D03*
D45*
X470000Y759300D02*
D03*
Y764300D02*
D03*
Y754300D02*
D03*
Y769300D02*
D03*
Y749300D02*
D03*
Y774300D02*
D03*
Y744300D02*
D03*
Y779300D02*
D03*
D46*
Y793800D02*
D03*
Y785800D02*
D03*
Y737800D02*
D03*
Y729800D02*
D03*
D47*
X1271000Y820000D02*
D03*
X1250000D02*
D03*
X1300500Y800000D02*
D03*
X1279500D02*
D03*
X1325500Y780000D02*
D03*
X1304500D02*
D03*
D48*
X1215000Y424000D02*
D03*
Y466000D02*
D03*
D49*
X511000Y545000D02*
D03*
X449000D02*
D03*
X614000Y780000D02*
D03*
X676000D02*
D03*
D50*
X827500Y482500D02*
D03*
X862500Y517500D02*
D03*
Y482500D02*
D03*
X827500Y517500D02*
D03*
D51*
X1608600Y600000D02*
D03*
X1583200D02*
D03*
X1557800D02*
D03*
X1532400D02*
D03*
X1507000D02*
D03*
X1481600D02*
D03*
X1456200D02*
D03*
X1430800D02*
D03*
X1405400D02*
D03*
X1380000D02*
D03*
X1354600D02*
D03*
X1329200D02*
D03*
X1303800D02*
D03*
X1278400D02*
D03*
X1253000D02*
D03*
Y752400D02*
D03*
X1278400D02*
D03*
X1303800D02*
D03*
X1329200D02*
D03*
X1354600D02*
D03*
X1380000D02*
D03*
X1405400D02*
D03*
X1430800D02*
D03*
X1456200D02*
D03*
X1481600D02*
D03*
X1507000D02*
D03*
X1532400D02*
D03*
X1557800D02*
D03*
X1583200D02*
D03*
X772500Y900000D02*
D03*
D52*
X1608600Y752400D02*
D03*
X772500Y825000D02*
D03*
D53*
X1622000Y660000D02*
D03*
Y690000D02*
D03*
D54*
X1425000Y527300D02*
D03*
Y552700D02*
D03*
X1380000Y527300D02*
D03*
Y552700D02*
D03*
X1470000Y527300D02*
D03*
Y552700D02*
D03*
D55*
X580000Y595000D02*
D03*
X515000Y585000D02*
D03*
X425000D02*
D03*
X1215000Y495000D02*
D03*
X1495000Y800000D02*
D03*
X720000Y805000D02*
D03*
X495000D02*
D03*
D56*
X1090000Y605000D02*
D03*
X890000Y450000D02*
D03*
D57*
X487500Y637000D02*
D03*
D58*
X452500D02*
D03*
D59*
X1170000Y505400D02*
D03*
D60*
Y480000D02*
D03*
Y454600D02*
D03*
D61*
X459300Y732900D02*
D03*
Y790700D02*
D03*
D62*
X464300Y805000D02*
D03*
Y718600D02*
D03*
D63*
X422500Y805000D02*
D03*
Y718600D02*
D03*
D64*
X1140000Y507500D02*
D03*
Y422500D02*
D03*
D65*
Y542500D02*
D03*
Y457500D02*
D03*
D66*
X717500Y722500D02*
D03*
X1077500Y450000D02*
D03*
X997500Y422500D02*
D03*
X1342500Y555000D02*
D03*
X1290000D02*
D03*
D67*
X1530000Y660000D02*
D03*
X779150Y860000D02*
D03*
X1125000Y690000D02*
D03*
X1220000Y665000D02*
D03*
X1080000Y575000D02*
D03*
X1060000Y545000D02*
D03*
X685000Y555000D02*
D03*
X795000Y525000D02*
D03*
X645000Y750000D02*
D03*
D68*
X1110000Y661000D02*
D03*
X1100000D02*
D03*
X1058000Y628000D02*
D03*
X1504000Y688000D02*
D03*
X1373000D02*
D03*
X1429000Y687000D02*
D03*
X1236000Y499000D02*
D03*
X1232000Y521000D02*
D03*
X1236000Y431000D02*
D03*
X1181000Y416000D02*
D03*
X545000Y556000D02*
D03*
Y565000D02*
D03*
Y596000D02*
D03*
X1202000Y627000D02*
D03*
Y645000D02*
D03*
X1184000D02*
D03*
X741000Y781000D02*
D03*
X852000Y788000D02*
D03*
X853000Y825000D02*
D03*
X832000Y788000D02*
D03*
X837000Y825000D02*
D03*
X860000Y450000D02*
D03*
X530000Y790000D02*
D03*
X520000D02*
D03*
X510000D02*
D03*
Y780000D02*
D03*
Y770000D02*
D03*
Y760000D02*
D03*
Y750000D02*
D03*
Y740000D02*
D03*
X530000Y730000D02*
D03*
X520000D02*
D03*
X510000D02*
D03*
M02*
