G04*
G04 #@! TF.GenerationSoftware,Altium Limited,Altium Designer,21.0.9 (235)*
G04*
G04 Layer_Color=16777215*
%FSLAX44Y44*%
%MOMM*%
G71*
G04*
G04 #@! TF.SameCoordinates,622A8C60-2CE5-4817-AE20-E8449A78C867*
G04*
G04*
G04 #@! TF.FilePolarity,Positive*
G04*
G01*
G75*
%ADD10C,0.2540*%
%ADD90C,0.2540*%
D10*
X1050000Y760000D02*
G03*
X1040000Y770000I-10000J0D01*
G01*
X1070000Y667300D02*
G03*
X1057300Y680000I-12700J0D01*
G01*
Y650000D02*
G03*
X1070000Y662700I0J12700D01*
G01*
X1040000Y560000D02*
G03*
X1050000Y570000I0J10000D01*
G01*
X750000Y570000D02*
G03*
X760000Y560000I10000J0D01*
G01*
X697500Y607500D02*
G03*
X710000Y620000I0J12500D01*
G01*
X530000D02*
G03*
X542500Y607500I12500J0D01*
G01*
X530000Y680984D02*
G03*
X530000Y680984I0J0D01*
G01*
X559016Y710000D02*
G03*
X530000Y680984I0J-29016D01*
G01*
X709999Y680000D02*
G03*
X679999Y710000I-30000J0D01*
G01*
X760000Y770000D02*
G03*
X750000Y760000I0J-10000D01*
G01*
X742500Y820000D02*
G03*
X760000Y837500I-0J17500D01*
G01*
X1250000Y847500D02*
G03*
X1267500Y830000I17500J0D01*
G01*
X1267500Y500000D02*
G03*
X1250000Y482500I0J-17500D01*
G01*
X760000Y500000D02*
G03*
X750000Y510000I-10000J0D01*
G01*
X500000Y832500D02*
G03*
X512500Y820000I12500J0D01*
G01*
Y510000D02*
G03*
X500000Y497500I0J-12500D01*
G01*
X1570000Y500000D02*
G03*
X1640000Y570000I0J70000D01*
G01*
X463500Y460000D02*
G03*
X431500Y460000I-16000J0D01*
G01*
Y862500D02*
G03*
X463500Y862500I16000J0D01*
G01*
X580000Y810000D02*
G03*
X590000Y800000I10000J0D01*
G01*
X650000D02*
G03*
X660000Y810000I0J10000D01*
G01*
X590000Y530000D02*
G03*
X580000Y520000I0J-10000D01*
G01*
X660000D02*
G03*
X650000Y530000I-10000J0D01*
G01*
X1640000Y760000D02*
G03*
X1570000Y830000I-70000J0D01*
G01*
X760000Y770000D02*
Y770000D01*
X760000Y770000D02*
X1040000D01*
X1050000Y680000D02*
Y760000D01*
Y680000D02*
X1057300D01*
X1070000Y662700D02*
Y667300D01*
X1050000Y650000D02*
X1057300D01*
X1050000Y570000D02*
Y650000D01*
X760000Y560000D02*
X1040000D01*
X750000Y570000D02*
Y650000D01*
X710000D02*
X750000D01*
X710000Y620000D02*
Y650000D01*
X542500Y607500D02*
X697500D01*
X530000Y620000D02*
Y680984D01*
X559016Y710000D02*
X559999D01*
X559999Y710000D02*
X679999D01*
X709999Y680000D02*
X750000D01*
Y760000D01*
X760000Y770000D02*
X760000D01*
Y837500D02*
Y930000D01*
X660000Y820000D02*
X742500D01*
X410000Y452500D02*
Y610000D01*
Y452500D02*
X417500Y445000D01*
X431500D01*
X512500Y820000D02*
X580000D01*
X500000Y832500D02*
Y875000D01*
X512500Y510000D02*
X580000D01*
X500000Y445000D02*
Y497500D01*
X1267500Y500000D02*
X1530000D01*
X1250000Y400000D02*
Y482500D01*
Y847500D02*
Y930000D01*
X1267500Y830000D02*
X1530000Y830000D01*
X431500Y862500D02*
Y875000D01*
X415000D02*
X431500D01*
X463500Y862500D02*
Y875000D01*
X410000Y870000D02*
X415000Y875000D01*
X463500D02*
X477500D01*
X463500Y445000D02*
X500000D01*
X463500D02*
Y460000D01*
X431500Y445000D02*
Y460000D01*
X660000Y810000D02*
Y820000D01*
X590000Y800000D02*
X650000D01*
X580000Y810000D02*
Y820000D01*
X590000Y530000D02*
X650000D01*
X580000Y510000D02*
Y520000D01*
X660000Y510000D02*
Y520000D01*
X760000Y400000D02*
Y500000D01*
X660000Y510000D02*
X750000D01*
X1640000Y570000D02*
Y760000D01*
X1530000Y500000D02*
X1570000D01*
X1530000Y830000D02*
X1570000D01*
X760000Y930000D02*
X1250000D01*
X760000Y400000D02*
X1250000D01*
X477500Y875000D02*
X500000D01*
X410000Y610000D02*
Y870000D01*
D90*
X760000Y770000D02*
D03*
X1050000Y650000D02*
D03*
X559999Y710000D02*
D03*
M02*
