G04*
G04 #@! TF.GenerationSoftware,Altium Limited,Altium Designer,21.0.9 (235)*
G04*
G04 Layer_Color=255*
%FSLAX44Y44*%
%MOMM*%
G71*
G04*
G04 #@! TF.SameCoordinates,622A8C60-2CE5-4817-AE20-E8449A78C867*
G04*
G04*
G04 #@! TF.FilePolarity,Positive*
G04*
G01*
G75*
%ADD72C,2.0000*%
%ADD73R,2.0000X2.0000*%
%ADD74C,0.9000*%
%ADD75C,1.5000*%
%ADD76R,1.5000X1.5000*%
%ADD77R,1.5000X1.5000*%
%ADD78C,2.1000*%
%ADD79R,2.1000X2.1000*%
%ADD80R,1.6000X1.6000*%
%ADD81C,1.6000*%
%ADD82C,0.6500*%
%ADD83O,2.1000X1.0000*%
%ADD84O,1.8000X1.0000*%
%ADD85R,1.4000X1.4000*%
%ADD86C,1.4000*%
D72*
X1608600Y600000D02*
D03*
X1583200D02*
D03*
X1557800D02*
D03*
X1532400D02*
D03*
X1507000D02*
D03*
X1481600D02*
D03*
X1456200D02*
D03*
X1430800D02*
D03*
X1405400D02*
D03*
X1380000D02*
D03*
X1354600D02*
D03*
X1329200D02*
D03*
X1303800D02*
D03*
X1278400D02*
D03*
X1253000D02*
D03*
Y752400D02*
D03*
X1278400D02*
D03*
X1303800D02*
D03*
X1329200D02*
D03*
X1354600D02*
D03*
X1380000D02*
D03*
X1405400D02*
D03*
X1430800D02*
D03*
X1456200D02*
D03*
X1481600D02*
D03*
X1507000D02*
D03*
X1532400D02*
D03*
X1557800D02*
D03*
X1583200D02*
D03*
X772500Y900000D02*
D03*
D73*
X1608600Y752400D02*
D03*
X772500Y825000D02*
D03*
D74*
X1622000Y660000D02*
D03*
Y690000D02*
D03*
D75*
X1425000Y527300D02*
D03*
Y552700D02*
D03*
X1380000Y527300D02*
D03*
Y552700D02*
D03*
X1470000Y527300D02*
D03*
Y552700D02*
D03*
D76*
X580000Y595000D02*
D03*
X515000Y585000D02*
D03*
X425000D02*
D03*
X1215000Y495000D02*
D03*
X1495000Y800000D02*
D03*
X720000Y805000D02*
D03*
X495000D02*
D03*
D77*
X1090000Y605000D02*
D03*
X890000Y450000D02*
D03*
D78*
X487500Y637000D02*
D03*
D79*
X452500D02*
D03*
D80*
X1170000Y505400D02*
D03*
D81*
Y480000D02*
D03*
Y454600D02*
D03*
D82*
X459300Y732900D02*
D03*
Y790700D02*
D03*
D83*
X464300Y805000D02*
D03*
Y718600D02*
D03*
D84*
X422500Y805000D02*
D03*
Y718600D02*
D03*
D85*
X1140000Y507500D02*
D03*
Y422500D02*
D03*
D86*
Y542500D02*
D03*
Y457500D02*
D03*
M02*
