G04*
G04 #@! TF.GenerationSoftware,Altium Limited,Altium Designer,21.0.9 (235)*
G04*
G04 Layer_Color=16711935*
%FSLAX44Y44*%
%MOMM*%
G71*
G04*
G04 #@! TF.SameCoordinates,622A8C60-2CE5-4817-AE20-E8449A78C867*
G04*
G04*
G04 #@! TF.FilePolarity,Negative*
G04*
G01*
G75*
%ADD51C,2.2032*%
%ADD52R,2.2032X2.2032*%
%ADD53C,1.1032*%
%ADD54C,1.7032*%
%ADD55R,1.7032X1.7032*%
%ADD56R,1.7032X1.7032*%
%ADD57C,2.3032*%
%ADD58R,2.3032X2.3032*%
%ADD59R,1.8032X1.8032*%
%ADD60C,1.8032*%
%ADD61C,0.8532*%
%ADD62O,2.3032X1.2032*%
%ADD63O,2.0032X1.2032*%
%ADD64R,1.6032X1.6032*%
%ADD65C,1.6032*%
%ADD66C,0.7032*%
%ADD67C,1.4732*%
%ADD68C,0.8032*%
D51*
X1608600Y600000D02*
D03*
X1583200D02*
D03*
X1557800D02*
D03*
X1532400D02*
D03*
X1507000D02*
D03*
X1481600D02*
D03*
X1456200D02*
D03*
X1430800D02*
D03*
X1405400D02*
D03*
X1380000D02*
D03*
X1354600D02*
D03*
X1329200D02*
D03*
X1303800D02*
D03*
X1278400D02*
D03*
X1253000D02*
D03*
Y752400D02*
D03*
X1278400D02*
D03*
X1303800D02*
D03*
X1329200D02*
D03*
X1354600D02*
D03*
X1380000D02*
D03*
X1405400D02*
D03*
X1430800D02*
D03*
X1456200D02*
D03*
X1481600D02*
D03*
X1507000D02*
D03*
X1532400D02*
D03*
X1557800D02*
D03*
X1583200D02*
D03*
X772500Y900000D02*
D03*
D52*
X1608600Y752400D02*
D03*
X772500Y825000D02*
D03*
D53*
X1622000Y660000D02*
D03*
Y690000D02*
D03*
D54*
X1425000Y527300D02*
D03*
Y552700D02*
D03*
X1380000Y527300D02*
D03*
Y552700D02*
D03*
X1470000Y527300D02*
D03*
Y552700D02*
D03*
D55*
X580000Y595000D02*
D03*
X515000Y585000D02*
D03*
X425000D02*
D03*
X1215000Y495000D02*
D03*
X1495000Y800000D02*
D03*
X720000Y805000D02*
D03*
X495000D02*
D03*
D56*
X1090000Y605000D02*
D03*
X890000Y450000D02*
D03*
D57*
X487500Y637000D02*
D03*
D58*
X452500D02*
D03*
D59*
X1170000Y505400D02*
D03*
D60*
Y480000D02*
D03*
Y454600D02*
D03*
D61*
X459300Y732900D02*
D03*
Y790700D02*
D03*
D62*
X464300Y805000D02*
D03*
Y718600D02*
D03*
D63*
X422500Y805000D02*
D03*
Y718600D02*
D03*
D64*
X1140000Y507500D02*
D03*
Y422500D02*
D03*
D65*
Y542500D02*
D03*
Y457500D02*
D03*
D66*
X717500Y722500D02*
D03*
X1077500Y450000D02*
D03*
X997500Y422500D02*
D03*
X1342500Y555000D02*
D03*
X1290000D02*
D03*
D67*
X1530000Y660000D02*
D03*
X779150Y860000D02*
D03*
X1125000Y690000D02*
D03*
X1220000Y665000D02*
D03*
X1080000Y575000D02*
D03*
X1060000Y545000D02*
D03*
X685000Y555000D02*
D03*
X795000Y525000D02*
D03*
X645000Y750000D02*
D03*
D68*
X1110000Y661000D02*
D03*
X1100000D02*
D03*
X1058000Y628000D02*
D03*
X1504000Y688000D02*
D03*
X1373000D02*
D03*
X1429000Y687000D02*
D03*
X1236000Y499000D02*
D03*
X1232000Y521000D02*
D03*
X1236000Y431000D02*
D03*
X1181000Y416000D02*
D03*
X545000Y556000D02*
D03*
Y565000D02*
D03*
Y596000D02*
D03*
X1202000Y627000D02*
D03*
Y645000D02*
D03*
X1184000D02*
D03*
X741000Y781000D02*
D03*
X852000Y788000D02*
D03*
X853000Y825000D02*
D03*
X832000Y788000D02*
D03*
X837000Y825000D02*
D03*
X860000Y450000D02*
D03*
X530000Y790000D02*
D03*
X520000D02*
D03*
X510000D02*
D03*
Y780000D02*
D03*
Y770000D02*
D03*
Y760000D02*
D03*
Y750000D02*
D03*
Y740000D02*
D03*
X530000Y730000D02*
D03*
X520000D02*
D03*
X510000D02*
D03*
M02*
