M48
;Layer_Color=9474304
;FILE_FORMAT=4:4
METRIC,LZ
;TYPE=PLATED
T1F00S00C0.3500
T3F00S00C0.7112
T4F00S00C0.8000
T5F00S00C0.9000
T6F00S00C1.0000
T7F00S00C1.1000
T8F00S00C1.4000
%
T01
X01236Y00431
Y00499
X01232Y00521
X0129Y00555
X013425
X01373Y00688
X01429Y00687
X01504Y00688
X01202Y00645
Y00627
X01184Y00645
X0111Y00661
X011
X01058Y00628
X010775Y0045
X009975Y004225
X0086Y0045
X00852Y00788
X00832
X01181Y00416
X007175Y007225
X00741Y00781
X0053Y0079
X0052
X0051
Y0078
Y0077
Y0076
Y0075
Y0074
Y0073
X0052
X0053
X00545Y00596
Y00565
Y00556
X00837Y00825
X00853
T03
X0122Y00665
X0153Y0066
X01125Y0069
X0108Y00575
X0106Y00545
X00795Y00525
X00685Y00555
X00645Y0075
X0077915Y0086
T04
X0114Y004225
Y004575
Y005075
Y005425
T05
X01215Y00495
X0109Y00605
X0089Y0045
X0058Y00595
X00515Y00585
X00425
X00495Y00805
X0072
X01495Y008
T06
X0138Y005273
Y005527
X01425
Y005273
X0147
Y005527
T07
X016086Y006
Y007524
X015832
X015578
X015324
X01507
X014816
X014562
X014308
X014054
X0138
X013546
X013292
X013038
X012784
X01253
Y006
X012784
X013038
X013292
X013546
X0138
X014054
X014308
X014562
X014816
X01507
X015324
X015578
X015832
X0117Y005054
Y0048
Y004546
X007725Y00825
Y009
T08
X004525Y00637
X004875
M30
