%TF.GenerationSoftware,Altium Limited,Altium Designer,21.0.9 (235)*%
G04 Layer_Color=16777215*
%FSLAX45Y45*%
%MOMM*%
%TF.SameCoordinates,4BE4B6C8-753D-4877-B088-52E4D9ED0B03*%
%TF.FilePolarity,Positive*%
%TF.FileFunction,Other,Board_Shape*%
%TF.Part,Single*%
G01*
G75*
%TA.AperFunction,NonConductor*%
%ADD32C,0.25400*%
%ADD91C,0.25400*%
D32*
X10500000Y7599999D02*
G03*
X10400000Y7700000I-100000J0D01*
G01*
X10699999Y6673000D02*
G03*
X10572999Y6800000I-127000J0D01*
G01*
Y6499999D02*
G03*
X10699999Y6626999I0J127000D01*
G01*
X10400000Y5600000D02*
G03*
X10500000Y5700000I0J100000D01*
G01*
X7500000Y5700000D02*
G03*
X7600000Y5600000I100000J0D01*
G01*
X6975000Y6075000D02*
G03*
X7100000Y6200000I0J125000D01*
G01*
X5300000D02*
G03*
X5425000Y6075000I125000J0D01*
G01*
X5300000Y6809837D02*
G03*
X5300000Y6809837I0J0D01*
G01*
X5590161Y7099998D02*
G03*
X5300000Y6809837I0J-290161D01*
G01*
X5599994Y7099998D02*
G03*
X5599994Y7099999I0J0D01*
G01*
X7099987Y6800000D02*
G03*
X6799988Y7099999I-299999J0D01*
G01*
X7600000Y7700000D02*
G03*
X7500000Y7600000I0J-100000D01*
G01*
X7425000Y8200000D02*
G03*
X7600000Y8375000I-0J175000D01*
G01*
X12500000Y8475000D02*
G03*
X12675000Y8300000I175000J0D01*
G01*
X12675000Y5000000D02*
G03*
X12500000Y4825000I0J-175000D01*
G01*
X7600000Y5000000D02*
G03*
X7500000Y5100000I-100000J0D01*
G01*
X5000000Y8325000D02*
G03*
X5125000Y8200000I125000J0D01*
G01*
Y5100000D02*
G03*
X5000000Y4975000I0J-125000D01*
G01*
X15700000Y5000000D02*
G03*
X16400000Y5700000I0J700000D01*
G01*
X4635000Y4600000D02*
G03*
X4315000Y4600000I-160000J0D01*
G01*
Y8625000D02*
G03*
X4635000Y8625000I160000J0D01*
G01*
X5800000Y8100000D02*
G03*
X5900000Y8000000I100000J0D01*
G01*
X6500000D02*
G03*
X6600000Y8100000I0J100000D01*
G01*
X5900000Y5300000D02*
G03*
X5800000Y5200000I0J-100000D01*
G01*
X6600000D02*
G03*
X6500000Y5300000I-100000J0D01*
G01*
X16400000Y7600000D02*
G03*
X15700000Y8300000I-700000J0D01*
G01*
X7600000Y7700000D02*
Y7700000D01*
X7600000Y7700000D02*
X10400000D01*
X10500000Y6800000D02*
Y7599999D01*
Y6800000D02*
X10572999D01*
X10699999Y6626999D02*
Y6673000D01*
X10500000Y6499999D02*
X10572999D01*
X10500000Y5700000D02*
Y6499999D01*
X7600000Y5600000D02*
X10400000D01*
X7500000Y5700000D02*
Y6500000D01*
X7100000D02*
X7500000D01*
X7100000Y6200000D02*
Y6500000D01*
X5425000Y6075000D02*
X6975000D01*
X5300000Y6200000D02*
Y6809837D01*
X5590161Y7099998D02*
X5599994D01*
X5599994Y7099999D02*
X6799988D01*
X7099987Y6800000D02*
X7500000D01*
Y7600000D01*
X7600000Y7700000D02*
X7600000D01*
Y8375000D02*
Y9300000D01*
X6600000Y8200000D02*
X7425000D01*
X4100000Y4525000D02*
Y6100000D01*
Y4525000D02*
X4175000Y4450000D01*
X4315000D01*
X5125000Y8200000D02*
X5800000D01*
X5000000Y8325000D02*
Y8750000D01*
X5125000Y5100000D02*
X5800000D01*
X5000000Y4450000D02*
Y4975000D01*
X12675000Y5000000D02*
X15300000D01*
X12500000Y4000000D02*
Y4825000D01*
Y8475000D02*
Y9300000D01*
X12675000Y8300000D02*
X15300000Y8300000D01*
X4315000Y8625000D02*
Y8750000D01*
X4150000D02*
X4315000D01*
X4635000Y8625000D02*
Y8750000D01*
X4100000Y8700000D02*
X4150000Y8750000D01*
X4635000D02*
X4775000D01*
X4635000Y4450000D02*
X5000000D01*
X4635000D02*
Y4600000D01*
X4315000Y4450000D02*
Y4600000D01*
X6600000Y8100000D02*
Y8200000D01*
X5900000Y8000000D02*
X6500000D01*
X5800000Y8100000D02*
Y8200000D01*
X5900000Y5300000D02*
X6500000D01*
X5800000Y5100000D02*
Y5200000D01*
X6600000Y5100000D02*
Y5200000D01*
X7600000Y4000000D02*
Y5000000D01*
X6600000Y5100000D02*
X7500000D01*
X16400000Y5700000D02*
Y7600000D01*
X15300000Y5000000D02*
X15700000D01*
X15300000Y8300000D02*
X15700000D01*
X7600000Y9300000D02*
X12500000D01*
X7600000Y4000000D02*
X12500000D01*
X4775000Y8750000D02*
X5000000D01*
X4100000Y6100000D02*
Y8700000D01*
D91*
X7600000Y7700000D02*
D03*
X10500000Y6499999D02*
D03*
%TF.MD5,3f952da7f20c76f22a4949ff27041726*%
M02*
