%TF.GenerationSoftware,Altium Limited,Altium Designer,21.0.9 (235)*%
G04 Layer_Physical_Order=1*
G04 Layer_Color=255*
%FSLAX45Y45*%
%MOMM*%
%TF.SameCoordinates,4BE4B6C8-753D-4877-B088-52E4D9ED0B03*%
%TF.FilePolarity,Positive*%
%TF.FileFunction,Copper,L1,Top,Signal*%
%TF.Part,Single*%
G01*
G75*
%TA.AperFunction,NonConductor*%
%ADD10C,0.20320*%
%TA.AperFunction,SMDPad,CuDef*%
%ADD11R,0.90000X1.30000*%
%ADD12R,1.30000X0.90000*%
%ADD13O,0.45000X1.45000*%
G04:AMPARAMS|DCode=14|XSize=1.75415mm|YSize=3.17213mm|CornerRadius=0.45608mm|HoleSize=0mm|Usage=FLASHONLY|Rotation=180.000|XOffset=0mm|YOffset=0mm|HoleType=Round|Shape=RoundedRectangle|*
%AMROUNDEDRECTD14*
21,1,1.75415,2.25997,0,0,180.0*
21,1,0.84199,3.17213,0,0,180.0*
1,1,0.91216,-0.42100,1.12999*
1,1,0.91216,0.42100,1.12999*
1,1,0.91216,0.42100,-1.12999*
1,1,0.91216,-0.42100,-1.12999*
%
%ADD14ROUNDEDRECTD14*%
G04:AMPARAMS|DCode=15|XSize=1.75415mm|YSize=0.91339mm|CornerRadius=0.45669mm|HoleSize=0mm|Usage=FLASHONLY|Rotation=180.000|XOffset=0mm|YOffset=0mm|HoleType=Round|Shape=RoundedRectangle|*
%AMROUNDEDRECTD15*
21,1,1.75415,0.00000,0,0,180.0*
21,1,0.84076,0.91339,0,0,180.0*
1,1,0.91339,-0.42038,0.00000*
1,1,0.91339,0.42038,0.00000*
1,1,0.91339,0.42038,0.00000*
1,1,0.91339,-0.42038,0.00000*
%
%ADD15ROUNDEDRECTD15*%
%ADD16R,1.75415X0.91339*%
%ADD17R,0.80000X1.00000*%
%ADD18R,1.10000X0.70000*%
%ADD19R,1.00000X0.70000*%
%ADD20R,0.70000X1.00000*%
%ADD21R,0.70000X1.30000*%
%ADD22R,1.30000X0.70000*%
%ADD23R,1.90000X1.85000*%
%ADD24R,1.14000X0.30000*%
%ADD25R,1.14000X0.60000*%
%ADD26R,1.10000X1.20000*%
%ADD27R,1.70000X2.30000*%
%ADD28R,2.50000X1.70000*%
%ADD29R,1.70000X2.50000*%
%ADD30R,1.00000X3.20000*%
%ADD31R,2.00000X2.00000*%
%TA.AperFunction,NonConductor*%
%ADD32C,0.25400*%
%TA.AperFunction,Conductor*%
%ADD33C,0.50000*%
%ADD34C,0.40000*%
%ADD35C,0.38100*%
%TA.AperFunction,ComponentPad*%
%ADD36C,2.00000*%
%ADD37R,2.00000X2.00000*%
%ADD38C,0.90000*%
%ADD39C,1.50000*%
%ADD40R,1.50000X1.50000*%
%ADD41R,1.50000X1.50000*%
%ADD42C,2.10000*%
%ADD43R,2.10000X2.10000*%
%ADD44R,1.60000X1.60000*%
%ADD45C,1.60000*%
%ADD46C,0.65000*%
%ADD47O,2.10000X1.00000*%
%ADD48O,1.80000X1.00000*%
%ADD49R,1.40000X1.40000*%
%ADD50C,1.40000*%
%TA.AperFunction,ViaPad*%
%ADD51C,0.50000*%
%ADD52C,1.27000*%
%ADD53C,0.60000*%
G36*
X5700000Y7979274D02*
Y7700000D01*
X6000000D01*
Y7500000D01*
X5700000D01*
Y7200000D01*
X5000000D01*
Y7449945D01*
X5000011Y7450000D01*
Y7945000D01*
X5055000D01*
Y7999989D01*
X5679285D01*
X5700000Y7979274D01*
D02*
G37*
G36*
X11700000Y7080000D02*
X11630000Y7010000D01*
X11605000D01*
Y6850000D01*
X11610000D01*
Y6750000D01*
X11605000D01*
Y6590000D01*
X11610000D01*
Y6580000D01*
X11660000Y6530000D01*
Y6280000D01*
X11490000D01*
Y6510000D01*
X11440000Y6560000D01*
Y6990000D01*
X11500000Y7050000D01*
Y7280000D01*
X11700000D01*
Y7080000D01*
D02*
G37*
D10*
X15945840Y7605764D02*
G03*
X15705000Y7583294I-113840J-81764D01*
G01*
Y7464706D02*
G03*
X15945840Y7442236I127000J59294D01*
G01*
X15448505Y7470377D02*
G03*
X15705000Y7464706I129497J53623D01*
G01*
Y7583294D02*
G03*
X15448505Y7577623I-127000J-59294D01*
G01*
D02*
G03*
X15199496Y7577623I-124503J-53623D01*
G01*
Y7470377D02*
G03*
X15448505Y7470377I124503J53623D01*
G01*
X15199496Y7577623D02*
G03*
X14942999Y7583294I-129497J-53623D01*
G01*
D02*
G03*
X14689000Y7583294I-127000J-59294D01*
G01*
X14942999Y7464706D02*
G03*
X15199496Y7470377I127000J59294D01*
G01*
X14689000Y7464706D02*
G03*
X14942999Y7464706I127000J59294D01*
G01*
X14689000Y7583294D02*
G03*
X14435001Y7583294I-127000J-59294D01*
G01*
Y7464706D02*
G03*
X14689000Y7464706I127000J59294D01*
G01*
X14181000D02*
G03*
X14435001Y7464706I127000J59294D01*
G01*
Y7583294D02*
G03*
X14181000Y7583294I-127000J-59294D01*
G01*
X13927000Y7464706D02*
G03*
X14181000Y7464706I127000J59294D01*
G01*
Y7583294D02*
G03*
X13927000Y7583294I-127000J-59294D01*
G01*
D02*
G03*
X13673000Y7583294I-127000J-59294D01*
G01*
Y7464706D02*
G03*
X13927000Y7464706I127000J59294D01*
G01*
X13673000Y7583294D02*
G03*
X13419000Y7583294I-127000J-59294D01*
G01*
Y7464706D02*
G03*
X13673000Y7464706I127000J59294D01*
G01*
X16201031Y6983021D02*
G03*
X16201031Y6816979I18968J-83021D01*
G01*
Y6983021D02*
G03*
X16201031Y6816979I18968J-83021D01*
G01*
X15446075Y7246075D02*
G03*
X15400000Y7265160I-46075J-46075D01*
G01*
X15446075Y7246075D02*
G03*
X15400000Y7265160I-46075J-46075D01*
G01*
X15728925Y6778925D02*
G03*
X15775000Y6759840I46075J46075D01*
G01*
X15728925Y6778925D02*
G03*
X15775000Y6759840I46075J46075D01*
G01*
X16201031Y6683021D02*
G03*
X16201031Y6516979I18968J-83021D01*
G01*
Y6683021D02*
G03*
X16201031Y6516979I18968J-83021D01*
G01*
X15403661Y6600000D02*
G03*
X15371724Y6674840I-103660J0D01*
G01*
X15228275D02*
G03*
X15228276Y6525160I71725J-74840D01*
G01*
X15371724D02*
G03*
X15403661Y6600000I-71724J74840D01*
G01*
X15105560Y6880000D02*
G03*
X15105560Y6880000I-65560J0D01*
G01*
X13795560D02*
G03*
X13795560Y6880000I-65560J0D01*
G01*
X14355560Y6870000D02*
G03*
X14355560Y6870000I-65560J0D01*
G01*
X14890160Y6475000D02*
G03*
X14871075Y6521075I-65160J0D01*
G01*
X14890160Y6475000D02*
G03*
X14871075Y6521075I-65160J0D01*
G01*
X14796075Y6596075D02*
G03*
X14750000Y6615160I-46075J-46075D01*
G01*
X14796075Y6596075D02*
G03*
X14750000Y6615160I-46075J-46075D01*
G01*
X13419000Y7583294D02*
G03*
X13164999Y7583294I-127000J-59294D01*
G01*
X12911000Y7464706D02*
G03*
X13164999Y7464706I127000J59294D01*
G01*
Y7583294D02*
G03*
X13106660Y7646191I-127000J-59294D01*
G01*
X13365160Y7404449D02*
G03*
X13419000Y7464706I-73160J119551D01*
G01*
X13164999D02*
G03*
X13234840Y7396025I127000J59294D01*
G01*
X12976340Y7649868D02*
G03*
X12911000Y7583294I61660J-125868D01*
G01*
D02*
G03*
X12854660Y7645045I-127000J-59294D01*
G01*
X12449840Y7638975D02*
G03*
X12657000Y7464706I80160J-114975D01*
G01*
D02*
G03*
X12911000Y7464706I127000J59294D01*
G01*
X11261075Y8096075D02*
G03*
X11215000Y8115160I-46075J-46075D01*
G01*
X11261075Y8096075D02*
G03*
X11215000Y8115160I-46075J-46075D01*
G01*
X11065160Y7750000D02*
G03*
X11046075Y7796075I-65160J0D01*
G01*
X11065160Y7750000D02*
G03*
X11046075Y7796075I-65160J0D01*
G01*
X12103575Y7638575D02*
G03*
X12057500Y7657660I-46075J-46075D01*
G01*
X12103575Y7638575D02*
G03*
X12057500Y7657660I-46075J-46075D01*
G01*
X11046075Y7571425D02*
G03*
X11065160Y7617500I-46075J46075D01*
G01*
X11046075Y7571425D02*
G03*
X11065160Y7617500I-46075J46075D01*
G01*
X13234840Y7300000D02*
G03*
X13253925Y7253925I65160J0D01*
G01*
X13234840Y7300000D02*
G03*
X13253925Y7253925I65160J0D01*
G01*
X13353925Y7153925D02*
G03*
X13400000Y7134840I46075J46075D01*
G01*
X13353925Y7153925D02*
G03*
X13400000Y7134840I46075J46075D01*
G01*
X12303660Y6650000D02*
G03*
X12125160Y6721724I-103660J0D01*
G01*
Y6578276D02*
G03*
X12303660Y6650000I74840J71724D01*
G01*
X13053925Y6503925D02*
G03*
X13100000Y6484840I46075J46075D01*
G01*
X13053925Y6503925D02*
G03*
X13100000Y6484840I46075J46075D01*
G01*
X12085560Y6450000D02*
G03*
X12085560Y6450000I-65560J0D01*
G01*
X11905560D02*
G03*
X11905560Y6450000I-65560J0D01*
G01*
X11349060Y6900000D02*
G03*
X11315160Y6974613I-99060J0D01*
G01*
Y6825387D02*
G03*
X11349060Y6900000I-65160J74613D01*
G01*
X11315160Y7000000D02*
G03*
X11296075Y7046075I-65160J0D01*
G01*
X11315160Y7000000D02*
G03*
X11296075Y7046075I-65160J0D01*
G01*
X11246075Y7096075D02*
G03*
X11174968Y7110160I-46075J-46075D01*
G01*
X11055932D02*
G03*
X11035160Y7106460I0J-60160D01*
G01*
X11055932Y7110160D02*
G03*
X11035160Y7106460I0J-60160D01*
G01*
X11160160Y6858266D02*
G03*
X11184840Y6825387I89840J41734D01*
G01*
X11157660Y6829978D02*
G03*
X11160160Y6847500I-60160J17522D01*
G01*
X11035656Y6837423D02*
G03*
X11037341Y6829976I61844J10077D01*
G01*
X10962660Y6785028D02*
G03*
X11029345Y6837423I4840J62473D01*
G01*
X11184840Y6770000D02*
G03*
X11315160Y6770000I65160J0D01*
G01*
X11139968Y6680820D02*
G03*
X11157660Y6723432I-42467J42612D01*
G01*
X11140040Y6680892D02*
G03*
X11157660Y6723432I-42539J42539D01*
G01*
X11074069Y6639840D02*
G03*
X11116681Y6657533I0J60160D01*
G01*
X11074069Y6639840D02*
G03*
X11116608Y6657461I0J60160D01*
G01*
X11144840Y6543552D02*
G03*
X11065000Y6556073I-47340J-41051D01*
G01*
D02*
G03*
X11000000Y6556073I-32500J-53573D01*
G01*
Y6348928D02*
G03*
X11037340Y6340027I32500J53573D01*
G01*
X11000000Y6556073D02*
G03*
X10904840Y6502500I-32500J-53573D01*
G01*
X10970160Y6339897D02*
G03*
X11000000Y6348928I-2660J62604D01*
G01*
X16201031Y6080078D02*
G03*
X15956503Y6053623I-115032J-80078D01*
G01*
D02*
G03*
X15707497Y6053623I-124503J-53623D01*
G01*
D02*
G03*
X15450999Y6059294I-129497J-53623D01*
G01*
D02*
G03*
X15384160Y6126592I-127000J-59294D01*
G01*
X15707497Y5946377D02*
G03*
X15956503Y5946377I124503J53623D01*
G01*
D02*
G03*
X16201031Y5919922I129497J53623D01*
G01*
X15450999Y5940706D02*
G03*
X15707497Y5946377I127000J59294D01*
G01*
X15197000Y5940706D02*
G03*
X15450999Y5940706I127000J59294D01*
G01*
X15263840Y6126592D02*
G03*
X15197000Y6059294I60160J-126592D01*
G01*
D02*
G03*
X14942999Y6059294I-127000J-59294D01*
G01*
X14719839Y6101971D02*
G03*
X14689000Y6059294I96160J-101971D01*
G01*
D02*
G03*
X14655161Y6104719I-127000J-59294D01*
G01*
X14942999Y6059294D02*
G03*
X14914371Y6099840I-127000J-59294D01*
G01*
X14942999Y5940706D02*
G03*
X15197000Y5940706I127000J59294D01*
G01*
X14689000D02*
G03*
X14942999Y5940706I127000J59294D01*
G01*
X14627161Y5875907D02*
G03*
X14689000Y5940706I-65160J124093D01*
G01*
X14435001Y6059294D02*
G03*
X14405161Y6101019I-127000J-59294D01*
G01*
X14209628Y6099840D02*
G03*
X14181000Y6059294I98371J-99840D01*
G01*
D02*
G03*
X14152371Y6099840I-127000J-59294D01*
G01*
X13955629D02*
G03*
X13927000Y6059294I98371J-99840D01*
G01*
X14463629Y6099840D02*
G03*
X14435001Y6059294I98371J-99840D01*
G01*
Y5940706D02*
G03*
X14496840Y5875907I127000J59294D01*
G01*
X14365160Y5872025D02*
G03*
X14435001Y5940706I-57160J127975D01*
G01*
X14181000D02*
G03*
X14234840Y5880449I127000J59294D01*
G01*
X13927000Y5940706D02*
G03*
X13988840Y5875907I127000J59294D01*
G01*
X14119160D02*
G03*
X14181000Y5940706I-65160J124093D01*
G01*
X13927000Y6059294D02*
G03*
X13673000Y6059294I-127000J-59294D01*
G01*
X13419000D02*
G03*
X13164999Y6059294I-127000J-59294D01*
G01*
X13447629Y6099840D02*
G03*
X13419000Y6059294I98371J-99840D01*
G01*
X13673000D02*
G03*
X13644371Y6099840I-127000J-59294D01*
G01*
X13611160Y5875907D02*
G03*
X13673000Y5940706I-65160J124093D01*
G01*
X13419000D02*
G03*
X13480840Y5875907I127000J59294D01*
G01*
X13673000Y5940706D02*
G03*
X13927000Y5940706I127000J59294D01*
G01*
X13164999D02*
G03*
X13419000Y5940706I127000J59294D01*
G01*
X14765160Y5650000D02*
G03*
X14746075Y5696075I-65160J0D01*
G01*
X14496840Y5788000D02*
G03*
X14515926Y5741925I65160J0D01*
G01*
X14496840Y5788000D02*
G03*
X14515926Y5741925I65160J0D01*
G01*
X14346075Y5753925D02*
G03*
X14365160Y5800000I-46075J46075D01*
G01*
X14346075Y5753925D02*
G03*
X14365160Y5800000I-46075J46075D01*
G01*
X14765160Y5650000D02*
G03*
X14746075Y5696075I-65160J0D01*
G01*
X14203925Y5796075D02*
G03*
X14184840Y5750000I46075J-46075D01*
G01*
X14203925Y5796075D02*
G03*
X14184840Y5750000I46075J-46075D01*
G01*
X14100075Y5632925D02*
G03*
X14119160Y5679000I-46075J46075D01*
G01*
X14100075Y5632925D02*
G03*
X14119160Y5679000I-46075J46075D01*
G01*
X14815160Y5527000D02*
G03*
X14765160Y5621953I-115160J0D01*
G01*
X14634840D02*
G03*
X14815160Y5527000I65160J-94953D01*
G01*
X14814577Y5284577D02*
G03*
X14605048Y5338160I-114577J-11577D01*
G01*
X14365160Y5527000D02*
G03*
X14315160Y5621953I-115160J0D01*
G01*
X14184840D02*
G03*
X14365160Y5527000I65160J-94953D01*
G01*
X14344952Y5338160D02*
G03*
X14155048Y5338160I-94953J-65160D01*
G01*
X13978925Y5696075D02*
G03*
X13959840Y5650000I46075J-46075D01*
G01*
X13978925Y5696075D02*
G03*
X13959840Y5650000I46075J-46075D01*
G01*
X13915160Y5527000D02*
G03*
X13705048Y5592160I-115160J0D01*
G01*
X13480840Y5608060D02*
G03*
X13499925Y5561985I65160J0D01*
G01*
X13480840Y5608060D02*
G03*
X13499925Y5561985I65160J0D01*
G01*
X13580984Y5480925D02*
G03*
X13627060Y5461840I46075J46075D01*
G01*
X13580984Y5480925D02*
G03*
X13627060Y5461840I46075J46075D01*
G01*
X13485561Y5550000D02*
G03*
X13485561Y5550000I-60560J0D01*
G01*
X13705048Y5461840D02*
G03*
X13915160Y5527000I94953J65160D01*
G01*
X13894952Y5338160D02*
G03*
X13705048Y5338160I-94953J-65160D01*
G01*
Y5207840D02*
G03*
X13759598Y5165160I94953J65160D01*
G01*
X13164999Y6059294D02*
G03*
X12911000Y6059294I-127000J-59294D01*
G01*
Y5940706D02*
G03*
X13164999Y5940706I127000J59294D01*
G01*
X12849159Y5875907D02*
G03*
X12911000Y5940706I-65160J124093D01*
G01*
Y6059294D02*
G03*
X12657000Y6059294I-127000J-59294D01*
G01*
Y5940706D02*
G03*
X12718840Y5875907I127000J59294D01*
G01*
X12085560Y6270000D02*
G03*
X12085560Y6270000I-65560J0D01*
G01*
X12657000Y6059294D02*
G03*
X12657000Y5940706I-127000J-59294D01*
G01*
X11886075Y5993925D02*
G03*
X11904363Y6029840I-46075J46075D01*
G01*
X11886075Y5993925D02*
G03*
X11904363Y6029840I-46075J46075D01*
G01*
X11800000Y5934840D02*
G03*
X11846075Y5953925I0J65160D01*
G01*
X11800000Y5934840D02*
G03*
X11846075Y5953925I0J65160D01*
G01*
X12960561Y5550000D02*
G03*
X12849159Y5582906I-60560J0D01*
G01*
Y5517094D02*
G03*
X12960561Y5550000I50840J32906D01*
G01*
X12718840Y5366000D02*
G03*
X12737925Y5319925I65160J0D01*
G01*
X12718840Y5366000D02*
G03*
X12737925Y5319925I65160J0D01*
G01*
X12215160Y5300000D02*
G03*
X12196075Y5346075I-65160J0D01*
G01*
X12215160Y5300000D02*
G03*
X12196075Y5346075I-65160J0D01*
G01*
X11765160Y5300000D02*
G03*
X11746075Y5346075I-65160J0D01*
G01*
X11765160Y5300000D02*
G03*
X11746075Y5346075I-65160J0D01*
G01*
X11292540Y6286750D02*
G03*
X11310160Y6329290I-42539J42539D01*
G01*
X11292467Y6286678D02*
G03*
X11310160Y6329290I-42467J42612D01*
G01*
X11037340D02*
G03*
X11055033Y6286678I60160J0D01*
G01*
X11037340Y6329290D02*
G03*
X11054961Y6286750I60160J0D01*
G01*
X11220711Y6239840D02*
G03*
X11263322Y6257533I0J60160D01*
G01*
X11084178D02*
G03*
X11126790Y6239840I42612J42467D01*
G01*
X11084250Y6257461D02*
G03*
X11126790Y6239840I42539J42539D01*
G01*
X11220711D02*
G03*
X11263250Y6257461I0J60160D01*
G01*
X11569840Y5815000D02*
G03*
X11588925Y5768925I65160J0D01*
G01*
X11569840Y5815000D02*
G03*
X11588925Y5768925I65160J0D01*
G01*
X11621075Y5471075D02*
G03*
X11575000Y5490160I-46075J-46075D01*
G01*
X11621075Y5471075D02*
G03*
X11575000Y5490160I-46075J-46075D01*
G01*
X11488823D02*
G03*
X11383268Y5533882I-88823J-65160D01*
G01*
X11291118Y5441732D02*
G03*
X11488823Y5359840I108882J-16732D01*
G01*
X12830925Y5226925D02*
G03*
X12877000Y5207840I46075J46075D01*
G01*
X12830925Y5226925D02*
G03*
X12877000Y5207840I46075J46075D01*
G01*
X12385560Y5210000D02*
G03*
X12272173Y5165160I-65560J0D01*
G01*
X12367827D02*
G03*
X12385560Y5210000I-47827J44840D01*
G01*
X12312172Y5034840D02*
G03*
X12401032Y4938868I47827J-44840D01*
G01*
Y4361132D02*
G03*
X12354420Y4244678I-41032J-51132D01*
G01*
X12024840Y4624860D02*
G03*
X12013925Y4616075I35160J-54860D01*
G01*
X12024840Y4624860D02*
G03*
X12013925Y4616075I35160J-54860D01*
G01*
X12036000Y4480840D02*
G03*
X12082075Y4499925I0J65160D01*
G01*
X12036000Y4480840D02*
G03*
X12082075Y4499925I0J65160D01*
G01*
X11820160Y4800000D02*
G03*
X11599042Y4865160I-120160J0D01*
G01*
Y4734840D02*
G03*
X11820160Y4800000I100958J65160D01*
G01*
X11800958Y4611160D02*
G03*
X11610041Y4625660I-100958J-65160D01*
G01*
X11591041Y4495340D02*
G03*
X11800958Y4480840I108959J50660D01*
G01*
X11875560Y4160000D02*
G03*
X11875560Y4160000I-65560J0D01*
G01*
X11497820Y4625660D02*
G03*
X11476089Y4495340I-97820J-50660D01*
G01*
X8595560Y8250000D02*
G03*
X8595560Y8250000I-65560J0D01*
G01*
X8065160Y8725000D02*
G03*
X8046075Y8771075I-65160J0D01*
G01*
X8065160Y8725000D02*
G03*
X8046075Y8771075I-65160J0D01*
G01*
X7890560Y8600000D02*
G03*
X7701032Y8640353I-99060J0D01*
G01*
X7858822Y8958328D02*
G03*
X7865160Y9000000I-133822J41672D01*
G01*
D02*
G03*
X7701032Y9138096I-140160J0D01*
G01*
Y8861905D02*
G03*
X7766672Y8866178I23968J138095D01*
G01*
X7801574Y8501454D02*
G03*
X7890560Y8600000I-10074J98546D01*
G01*
X7785160Y8475000D02*
G03*
X7784435Y8484314I-60160J0D01*
G01*
X7785160Y8475000D02*
G03*
X7784435Y8484314I-60160J0D01*
G01*
X8435560Y8250000D02*
G03*
X8435560Y8250000I-65560J0D01*
G01*
X8046075Y8153925D02*
G03*
X8065160Y8200000I-46075J46075D01*
G01*
X8046075Y8153925D02*
G03*
X8065160Y8200000I-46075J46075D01*
G01*
X10839840Y7049840D02*
G03*
X10857461Y7007461I60160J160D01*
G01*
X10839840Y7049840D02*
G03*
X10857533Y7007389I60160J160D01*
G01*
X10866286Y6998635D02*
G03*
X10839840Y6947500I36214J-51135D01*
G01*
Y6847500D02*
G03*
X10842340Y6829977I62660J0D01*
G01*
X10804537Y6687116D02*
G03*
X10763272Y6630000I18895J-57116D01*
G01*
X10804537Y6687116D02*
G03*
X10763272Y6630000I18895J-57116D01*
G01*
Y6371569D02*
G03*
X10780964Y6328957I60160J0D01*
G01*
X10763272Y6371569D02*
G03*
X10780892Y6329029I60160J0D01*
G01*
X8585560Y7880000D02*
G03*
X8585560Y7880000I-65560J0D01*
G01*
X8385560D02*
G03*
X8385560Y7880000I-65560J0D01*
G01*
X7475560Y7810000D02*
G03*
X7475560Y7810000I-65560J0D01*
G01*
X7246075Y7853925D02*
G03*
X7265160Y7900000I-46075J46075D01*
G01*
X7246075Y7853925D02*
G03*
X7265160Y7900000I-46075J46075D01*
G01*
X7100000Y7734840D02*
G03*
X7146075Y7753925I0J65160D01*
G01*
X7100000Y7734840D02*
G03*
X7146075Y7753925I0J65160D01*
G01*
X6864955Y7605160D02*
G03*
X6850160Y7641591I-64955J-5160D01*
G01*
X6864955Y7605160D02*
G03*
X6850160Y7641591I-64955J-5160D01*
G01*
X6721628Y7599840D02*
G03*
X6724840Y7589969I63372J15160D01*
G01*
X6721628Y7599840D02*
G03*
X6724840Y7589969I63372J15160D01*
G01*
X6524840Y7564899D02*
G03*
X6375387Y7565160I-74840J-64899D01*
G01*
X6350000D02*
G03*
X6343550Y7435160I0J-65160D01*
G01*
X4783560Y8050000D02*
G03*
X4698000Y8135560I-85560J0D01*
G01*
Y7964440D02*
G03*
X4783560Y8050000I0J85560D01*
G01*
X4662510Y7928160D02*
G03*
X4637498Y7964440I-69511J-21160D01*
G01*
X4662510Y7928160D02*
G03*
X4637498Y7964440I-69511J-21160D01*
G01*
X4557145Y7970197D02*
G03*
X4602840Y7835009I35855J-63197D01*
G01*
X4557145Y7970197D02*
G03*
X4602840Y7835009I35855J-63197D01*
G01*
X4588000Y8135560D02*
G03*
X4557145Y7970197I0J-85560D01*
G01*
X4265000Y7964440D02*
G03*
X4350560Y8050000I0J85560D01*
G01*
D02*
G03*
X4265000Y8135560I-85560J0D01*
G01*
X6500000Y7304840D02*
G03*
X6546075Y7323925I0J65160D01*
G01*
X6500000Y7304840D02*
G03*
X6546075Y7323925I0J65160D01*
G01*
X7235560Y7225000D02*
G03*
X7235560Y7225000I-60560J0D01*
G01*
X4878000Y7318790D02*
G03*
X4919868Y7336132I0J59210D01*
G01*
X4878000Y7318790D02*
G03*
X4919868Y7336132I0J59210D01*
G01*
X4637498Y7271560D02*
G03*
X4662510Y7307840I-44499J57440D01*
G01*
X4783560Y7186000D02*
G03*
X4698000Y7271560I-85560J0D01*
G01*
Y7100440D02*
G03*
X4783560Y7186000I0J85560D01*
G01*
X4637498Y7271560D02*
G03*
X4662510Y7307840I-44499J57440D01*
G01*
X4602840Y7400991D02*
G03*
X4557145Y7265803I-9840J-71991D01*
G01*
X4602840Y7400991D02*
G03*
X4557145Y7265803I-9840J-71991D01*
G01*
X4350560Y7186000D02*
G03*
X4265000Y7271560I-85560J0D01*
G01*
X4557145Y7265803D02*
G03*
X4588000Y7100440I30855J-79803D01*
G01*
X4265000D02*
G03*
X4350560Y7186000I0J85560D01*
G01*
X4940160Y6240286D02*
G03*
X5020160Y6370000I-65160J129713D01*
G01*
D02*
G03*
X4809840Y6240286I-145160J0D01*
G01*
X10865160Y5669380D02*
G03*
X10903660Y5750000I-65160J80620D01*
G01*
X10834840Y5925000D02*
G03*
X10853925Y5878925I65160J0D01*
G01*
X10834840Y5925000D02*
G03*
X10853925Y5878925I65160J0D01*
G01*
X10903660Y5750000D02*
G03*
X10734840Y5669380I-103660J0D01*
G01*
X10846075Y5353925D02*
G03*
X10865160Y5400000I-46075J46075D01*
G01*
X10846075Y5353925D02*
G03*
X10865160Y5400000I-46075J46075D01*
G01*
X10703660Y5450000D02*
G03*
X10500365Y5421395I-103660J0D01*
G01*
X10615071Y5347442D02*
G03*
X10703660Y5450000I-15071J102558D01*
G01*
X10606253Y5298404D02*
G03*
X10615071Y5331136I-56342J32732D01*
G01*
X10606253Y5298404D02*
G03*
X10615071Y5331136I-56342J32732D01*
G01*
X10500365Y5421395D02*
G03*
X10484751Y5379075I49547J-42320D01*
G01*
X10500365Y5421395D02*
G03*
X10484751Y5379075I49547J-42320D01*
G01*
X10600000Y5134840D02*
G03*
X10646075Y5153925I0J65160D01*
G01*
X10600000Y5134840D02*
G03*
X10646075Y5153925I0J65160D01*
G01*
X9721475Y5396075D02*
G03*
X9675400Y5415160I-46075J-46075D01*
G01*
X9721475Y5396075D02*
G03*
X9675400Y5415160I-46075J-46075D01*
G01*
X9774600Y5365160D02*
G03*
X9755311Y5362239I0J-65160D01*
G01*
X9774600Y5365160D02*
G03*
X9755311Y5362239I0J-65160D01*
G01*
X9046075Y5496075D02*
G03*
X9000000Y5515160I-46075J-46075D01*
G01*
X9046075Y5496075D02*
G03*
X9000000Y5515160I-46075J-46075D01*
G01*
X9053925Y5303925D02*
G03*
X9100000Y5284840I46075J46075D01*
G01*
X9610000Y5265160D02*
G03*
X9563925Y5246075I0J-65160D01*
G01*
X9610000Y5265160D02*
G03*
X9563925Y5246075I0J-65160D01*
G01*
X9053925Y5303925D02*
G03*
X9100000Y5284840I46075J46075D01*
G01*
X10835560Y4500000D02*
G03*
X10835560Y4500000I-60560J0D01*
G01*
X9500000Y4865160D02*
G03*
X9453925Y4846075I0J-65160D01*
G01*
X9500000Y4865160D02*
G03*
X9453925Y4846075I0J-65160D01*
G01*
X10035560Y4225000D02*
G03*
X10035560Y4225000I-60560J0D01*
G01*
X9110000Y4634840D02*
G03*
X9156075Y4653925I0J65160D01*
G01*
X9110000Y4634840D02*
G03*
X9156075Y4653925I0J65160D01*
G01*
X9000000Y4234840D02*
G03*
X9046075Y4253925I0J65160D01*
G01*
X9000000Y4234840D02*
G03*
X9046075Y4253925I0J65160D01*
G01*
X5489840Y6012066D02*
G03*
X5394464Y5925160I-39840J-52066D01*
G01*
X5508375Y5679840D02*
G03*
X5502066Y5689840I-58375J-29840D01*
G01*
X5394464Y5925160D02*
G03*
X5402173Y5915160I55536J34840D01*
G01*
X5397934Y5689840D02*
G03*
X5391625Y5679840I52066J-39840D01*
G01*
X6953660Y5550000D02*
G03*
X6769380Y5615160I-103660J0D01*
G01*
X5515560Y5650000D02*
G03*
X5508375Y5679840I-65560J0D01*
G01*
X5391625D02*
G03*
X5391624Y5620160I58375J-29840D01*
G01*
X5508376D02*
G03*
X5515560Y5650000I-58376J29840D01*
G01*
X5497677Y5605000D02*
G03*
X5508376Y5620160I-47677J45000D01*
G01*
X5391624D02*
G03*
X5402323Y5605000I58376J29840D01*
G01*
X8665560Y4500000D02*
G03*
X8665560Y4500000I-65560J0D01*
G01*
X8403925Y4253925D02*
G03*
X8450000Y4234840I46075J46075D01*
G01*
X8403925Y4253925D02*
G03*
X8450000Y4234840I46075J46075D01*
G01*
X8003925Y5403925D02*
G03*
X8050000Y5384840I46075J46075D01*
G01*
X8003925Y5403925D02*
G03*
X8050000Y5384840I46075J46075D01*
G01*
X6769380Y5484840D02*
G03*
X6953660Y5550000I80620J65160D01*
G01*
X8053192Y5240160D02*
G03*
X8053660Y5250000I-103192J9840D01*
G01*
D02*
G03*
X7960932Y5146918I-103660J0D01*
G01*
X7978925Y5128925D02*
G03*
X8025000Y5109840I46075J46075D01*
G01*
X7978925Y5128925D02*
G03*
X8025000Y5109840I46075J46075D01*
G01*
X15944746Y7691290D02*
X15971878Y7664160D01*
X15997845D02*
X16024976Y7691290D01*
X15801064D02*
X15828244Y7664110D01*
X15852634Y7662633D02*
X15881293Y7691290D01*
X15765585Y7647425D02*
X15809450Y7691290D01*
X15905305Y7643462D02*
X15953134Y7691290D01*
X15729221D02*
X15770544Y7649968D01*
X15060561Y7928898D02*
X15330032Y7659426D01*
X15101031Y7891290D02*
X15301031Y7691290D01*
X15063759Y7664021D02*
X15196030Y7796291D01*
X15124648Y7653067D02*
X15231950Y7760371D01*
X15028175Y7889440D02*
X15269496Y7648120D01*
X15673192Y7626875D02*
X15737608Y7691290D01*
X15167812Y7624388D02*
X15267873Y7724449D01*
X16088432Y7691290D02*
X16115562Y7664160D01*
X15945840D02*
X16128162D01*
X16016589Y7691290D02*
X16043719Y7664160D01*
X16069688D02*
X16096819Y7691290D01*
X16101031D02*
X16128162Y7664160D01*
X15629021Y7654544D02*
X15665765Y7691290D01*
X15585538D02*
X15618709Y7658118D01*
X15301031Y7691290D02*
X16101031Y7691290D01*
X15566304Y7663671D02*
X15593922Y7691290D01*
X15345026Y7657919D02*
X15378397Y7691290D01*
X15513695D02*
X15544810Y7660174D01*
X15397107Y7638158D02*
X15450240Y7691290D01*
X15441853D02*
X15495694Y7637449D01*
X15257254Y7641989D02*
X15306555Y7691290D01*
X15001031Y8191290D02*
X15101031Y8091290D01*
X15060561Y8091875D02*
X15080504Y8111818D01*
X14941853Y8191290D02*
X15022583Y8110560D01*
X15007404D02*
X15044583Y8147739D01*
X15060561Y7889440D02*
Y8110560D01*
X15101031Y7891290D02*
Y8091290D01*
X14870010Y8191290D02*
X14950740Y8110560D01*
X14839439D02*
X15060561D01*
X14798167Y8191290D02*
X14878899Y8110560D01*
X14863719D02*
X14944449Y8191290D01*
X14935561Y8110560D02*
X15008662Y8183660D01*
X14839439Y7889440D02*
Y8110560D01*
X14726326Y8191290D02*
X14839439Y8078176D01*
X15060561Y8020032D02*
X15101031Y8060504D01*
X15060561Y8000740D02*
X15101031Y7960269D01*
X15060561Y8072583D02*
X15101031Y8032111D01*
X15060561Y7948190D02*
X15101031Y7988662D01*
X14895493Y7639438D02*
X15124188Y7868134D01*
X14845279Y7661067D02*
X15101031Y7916820D01*
X14839439Y7889440D02*
X15060561D01*
X14768085Y7655715D02*
X15001810Y7889440D01*
X14884492D02*
X15118391Y7655541D01*
X14662364Y7621836D02*
X14929968Y7889440D01*
X15927374Y7421294D02*
X15945840Y7402829D01*
X15872905Y7691290D02*
X15945840Y7618355D01*
Y7605764D02*
Y7664160D01*
Y7383840D02*
Y7442236D01*
X15691449Y7441694D02*
X16024840Y7108303D01*
X15657379Y7691290D02*
X15729294Y7619375D01*
X15434006Y7603215D02*
X15522081Y7691290D01*
X15476997Y7215153D02*
X15712538Y7450695D01*
X15418736Y7427038D02*
X15945615Y6900160D01*
X15311478Y7265160D02*
X15475125Y7428808D01*
X15883272Y7393555D02*
X16061667Y7215160D01*
X15820688Y7384297D02*
X16024840Y7180145D01*
X15945840Y7402829D02*
X15964828Y7383840D01*
X15584760Y7107390D02*
X15865199Y7387829D01*
X15654646Y7406654D02*
X16024840Y7036461D01*
X15603314Y7386145D02*
X16089297Y6900160D01*
X15620682Y7071469D02*
X15945840Y7396628D01*
X15512918Y7179232D02*
X15746570Y7412885D01*
X15548839Y7143311D02*
X15794482Y7388954D01*
X15383319Y7265160D02*
X15516307Y7398148D01*
X15375378Y7398554D02*
X15883772Y6890160D01*
X15522182Y7395434D02*
X16017456Y6900160D01*
X15313222Y7388869D02*
X15811929Y6890160D01*
X15370010Y7691290D02*
X15460654Y7600647D01*
X15197493Y7582228D02*
X15206010Y7590746D01*
X15024109Y7265160D02*
X15209842Y7450893D01*
X14956334Y7889440D02*
X15227039Y7618736D01*
X14931416Y7603521D02*
X15160109Y7832213D01*
X14679604Y7447749D02*
X14862193Y7265160D01*
X15095950D02*
X15244785Y7413994D01*
X15149699Y7408706D02*
X15293246Y7265160D01*
X15022636Y7392085D02*
X15149562Y7265160D01*
X15099570Y7386994D02*
X15221404Y7265160D01*
X15185561Y7444687D02*
X15365088Y7265160D01*
X15239635D02*
X15371515Y7397040D01*
X15167793Y7265160D02*
X15294354Y7391721D01*
X14808583Y7265160D02*
X14969612Y7426189D01*
X14736740Y7265160D02*
X14863837Y7392256D01*
X14664899Y7265160D02*
X14786679Y7386941D01*
X14916537Y7426342D02*
X15077719Y7265160D01*
X14880424D02*
X15011772Y7396507D01*
X14874435Y7396602D02*
X15005878Y7265160D01*
X14079747Y8191290D02*
X14618983Y7652053D01*
X14115659Y7649869D02*
X14657082Y8191290D01*
X14007906D02*
X14537241Y7661955D01*
X14058051Y7664102D02*
X14585239Y8191290D01*
X14151588D02*
X14718343Y7624537D01*
X14156851Y7619218D02*
X14728923Y8191290D01*
X13936063D02*
X14485748Y7641604D01*
X13792380Y8191290D02*
X14320026Y7663643D01*
X13837479Y7659056D02*
X14369711Y8191290D01*
X13720535D02*
X14257198Y7654629D01*
X13766734Y7660155D02*
X14297870Y8191290D01*
X13864221D02*
X14448827Y7606684D01*
X13919443Y7597336D02*
X14513397Y8191290D01*
X13885400Y7635137D02*
X14441554Y8191290D01*
X14510800D02*
X15040968Y7661121D01*
X14561000Y7664156D02*
X14839439Y7942597D01*
X14654485Y8191290D02*
X14839439Y8006334D01*
X14582642Y8191290D02*
X14839439Y7934492D01*
X14438959Y8191290D02*
X14990688Y7639561D01*
X14620193Y7651508D02*
X14858125Y7889440D01*
X14425465Y7600464D02*
X14839439Y8014439D01*
X14341432Y7660114D02*
X14872607Y8191290D01*
X12925160D02*
X15001031D01*
X14267723Y7658248D02*
X14800764Y8191290D01*
X14295273D02*
X14822557Y7664007D01*
X14367116Y8191290D02*
X14954706Y7603700D01*
X14390482Y7637322D02*
X14839439Y8086281D01*
X14223431Y8191290D02*
X14761565Y7653157D01*
X13475160Y7799633D02*
X13866818Y8191290D01*
X13475160Y7727790D02*
X13938660Y8191290D01*
X13437003Y7905160D02*
X13723132Y8191290D01*
X13475160Y7871475D02*
X13794975Y8191290D01*
X13505009D02*
X14033629Y7662671D01*
X13554929Y7663875D02*
X14082344Y8191290D01*
X13433168D02*
X13980882Y7643576D01*
X13365161Y7905160D02*
X13651291Y8191290D01*
X13289484D02*
X13817741Y7663033D01*
X13225160Y7908843D02*
X13507607Y8191290D01*
X13288319Y7900160D02*
X13579449Y8191290D01*
X13361327D02*
X13943016Y7609600D01*
X13413348Y7594137D02*
X14010503Y8191290D01*
X13217642D02*
X13752917Y7656015D01*
X13576852Y8191290D02*
X14121072Y7647069D01*
X13611047Y7648152D02*
X14154185Y8191290D01*
X13475160Y7790088D02*
X13626535Y7638712D01*
X13475160Y7718245D02*
X13530145Y7663260D01*
X13648694Y8191290D02*
X14212965Y7627020D01*
X13651273Y7616534D02*
X14226028Y8191290D01*
X13660712Y7604535D02*
X13675970Y7589278D01*
X13475160Y7694840D02*
Y7905160D01*
X13324840Y7694840D02*
X13475160D01*
X13324840Y7905160D02*
X13475160D01*
Y7861930D02*
X13707652Y7629437D01*
X13426723Y7694840D02*
X13476086Y7645477D01*
X13380255Y7632885D02*
X13442209Y7694840D01*
X14305688Y7265160D02*
X14464165Y7423636D01*
X14521214Y7265160D02*
X14700562Y7444508D01*
X14644684Y7410827D02*
X14790350Y7265160D01*
X14411020Y7428965D02*
X14574825Y7265160D01*
X13905437Y7431653D02*
X14071930Y7265160D01*
X14173576Y7450882D02*
X14359299Y7265160D01*
X14139600Y7413016D02*
X14287456Y7265160D01*
X14018320D02*
X14194678Y7441519D01*
X14377530Y7265160D02*
X14507317Y7394947D01*
X14449371Y7265160D02*
X14568188Y7383977D01*
X14369894Y7398247D02*
X14502982Y7265160D01*
X14312392Y7383909D02*
X14431140Y7265160D01*
X14593056D02*
X14736479Y7408583D01*
X14595714Y7387955D02*
X14718509Y7265160D01*
X14522224Y7389602D02*
X14646667Y7265160D01*
X14090161D02*
X14231535Y7406535D01*
X14021201Y7387732D02*
X14143771Y7265160D01*
X13946477D02*
X14065640Y7384324D01*
X14233846Y7265160D02*
X14364354Y7395668D01*
X14162003Y7265160D02*
X14282942Y7386098D01*
X14091754Y7389020D02*
X14215614Y7265160D01*
X13515424D02*
X13688863Y7438599D01*
X13587267Y7265160D02*
X13726665Y7404557D01*
X13667477Y7454086D02*
X13856403Y7265160D01*
X13802792D02*
X13958781Y7421149D01*
X13634448Y7415272D02*
X13784561Y7265160D01*
X13399786Y7434408D02*
X13569035Y7265160D01*
X13365160Y7330422D02*
X13453465Y7418728D01*
X12894070Y7437229D02*
X13716141Y6615160D01*
X12855820Y7403639D02*
X13644298Y6615160D01*
X12712097Y7403689D02*
X13500626Y6615160D01*
X13730951Y7265160D02*
X13866307Y7400516D01*
X13659109Y7265160D02*
X13779321Y7385374D01*
X13587694Y7390185D02*
X13712720Y7265160D01*
X13519708Y7386328D02*
X13640877Y7265160D01*
X13865279Y7399969D02*
X14000089Y7265160D01*
X13874635D02*
X14002945Y7393470D01*
X13809259Y7384146D02*
X13928246Y7265160D01*
X13399365Y7292785D02*
X13498659Y7392077D01*
X13443582Y7265160D02*
X13563339Y7384917D01*
X13365160Y7397193D02*
X13497192Y7265160D01*
X13083540Y7391444D02*
X13859824Y6615160D01*
X13017845Y7385297D02*
X13787982Y6615160D01*
X12802554Y7385073D02*
X13572469Y6615160D01*
X16185159Y7204895D02*
X16201031Y7220767D01*
X16185159Y7163509D02*
X16201031Y7147637D01*
X16180354Y7383840D02*
X16201031Y7363164D01*
X16123582Y7215160D02*
X16201031Y7292609D01*
Y6983021D02*
Y7383840D01*
X16185159Y7133053D02*
X16201031Y7148925D01*
X16185159Y7034840D02*
Y7215160D01*
X16108513Y7383840D02*
X16201031Y7291321D01*
X16036671Y7383840D02*
X16201031Y7219479D01*
X15964828Y7383840D02*
X16133508Y7215160D01*
X15945840Y7383840D02*
X16201031D01*
X16051741Y7215160D02*
X16201031Y7364451D01*
X16024840Y7215160D02*
X16185159D01*
X15728444Y6963706D02*
X16148579Y7383840D01*
X16185159Y7061211D02*
X16201031Y7077083D01*
X16170145Y7034840D02*
X16201031Y7003953D01*
X16185159Y7091667D02*
X16201031Y7075795D01*
X16110159Y6842527D02*
X16139590Y6871956D01*
X16110159Y6770684D02*
X16170312Y6830837D01*
X16098303Y7034840D02*
X16166714Y6966429D01*
X16024840Y7034840D02*
X16185159D01*
X16026460D02*
X16138071Y6923231D01*
X16024109Y6900160D02*
X16158789Y7034840D01*
X16095952Y6900160D02*
X16201031Y7005240D01*
X16110159Y6879298D02*
X16201031Y6788427D01*
X16089316Y6749840D02*
X16110159Y6770684D01*
X15692523Y6999627D02*
X16076736Y7383840D01*
X15764365Y6927785D02*
X16024840Y7188259D01*
X15656602Y7035548D02*
X16004893Y7383840D01*
X16024840Y7034840D02*
Y7215160D01*
X15870425Y6890160D02*
X16024840Y7044575D01*
X15952267Y6900160D02*
X16086948Y7034840D01*
X15800285Y6891864D02*
X16024840Y7116417D01*
X15440804Y7250802D02*
X15573901Y7383900D01*
X15446075Y7246075D02*
X15801990Y6890160D01*
X15373010Y7134840D02*
X15728925Y6778925D01*
X15302530Y6825160D02*
X15492610Y7015240D01*
X15230688Y6825160D02*
X15456689Y7051161D01*
X15919839Y6900160D02*
X16110159D01*
X16089297D02*
X16110159Y6879298D01*
X15919839Y6890160D02*
Y6900160D01*
X15801990Y6890160D02*
X15919839D01*
X16110159Y6749840D02*
Y6900160D01*
X15919839Y6749840D02*
X16110159D01*
X15919839D02*
Y6759840D01*
X15374371Y6825160D02*
X15528531Y6979319D01*
X15405161Y6784106D02*
X15564452Y6943398D01*
X15194839Y6825160D02*
X15405161D01*
X15775000Y6759840D02*
X15919839D01*
X16201031Y6683021D02*
Y6816979D01*
X16110159Y6807456D02*
X16201031Y6716584D01*
X16095934Y6749840D02*
X16174065Y6671709D01*
X16101930Y6600160D02*
X16110159Y6591930D01*
Y6465160D02*
Y6600160D01*
X16024092Y6749840D02*
X16141328Y6632604D01*
X15919839Y6600160D02*
X16110159D01*
X15870409Y6759840D02*
X16030087Y6600160D01*
X15939636D02*
X16089316Y6749840D01*
X16011478Y6600160D02*
X16201031Y6789714D01*
X16083321Y6600160D02*
X16201031Y6717872D01*
X15952251Y6749840D02*
X16101930Y6600160D01*
X16163846Y6465160D02*
X16201031Y6502346D01*
X16185159Y6445088D02*
X16201031Y6429216D01*
X16173309Y6528780D02*
X16201031Y6501058D01*
X16165088Y6465160D02*
X16185159Y6445088D01*
Y6373246D02*
X16201031Y6357374D01*
X16185159Y6342790D02*
X16201031Y6358661D01*
X16185159Y6414632D02*
X16201031Y6430504D01*
X16110159Y6591930D02*
X16148779Y6553310D01*
X16110159Y6483316D02*
X16163303Y6536458D01*
X16110159Y6555158D02*
X16136806Y6581804D01*
X16110159Y6520088D02*
X16165088Y6465160D01*
X16110159D02*
X16185159D01*
X15964882Y6449840D02*
X16024840Y6389882D01*
X15398132Y6633395D02*
X15636295Y6871555D01*
X15798566Y6759840D02*
X15958246Y6600160D01*
X15405161Y6712263D02*
X15600372Y6907477D01*
X15405161Y6674840D02*
Y6825160D01*
Y6496737D02*
X15708136Y6799713D01*
X15405161Y6424895D02*
X15746613Y6766348D01*
X15394919Y6558338D02*
X15672215Y6835635D01*
X15351723Y7134840D02*
X15919839Y6566724D01*
X15194839Y6674840D02*
Y6825160D01*
X15279881Y7134840D02*
X15919839Y6494882D01*
X15208038Y7134840D02*
X16024840Y6318039D01*
X15377267Y6325160D02*
X15811948Y6759840D01*
X15919839Y6580364D02*
X15939636Y6600160D01*
X15386665Y6525160D02*
X15405161Y6506667D01*
X15371724Y6674840D02*
X15405161D01*
X15378973Y6532854D02*
X15386665Y6525160D01*
X15919839Y6449840D02*
Y6600160D01*
Y6449840D02*
X16024840D01*
X15405161Y6374840D02*
Y6525160D01*
X15371724D02*
X15405161D01*
X15233583Y6325160D02*
X15283263Y6374840D01*
X15305424Y6325160D02*
X15355106Y6374840D01*
X15321460D02*
X15371140Y6325160D01*
X15249619Y6374840D02*
X15299298Y6325160D01*
X14952267Y7265160D02*
X15070950Y7383843D01*
X14848830Y7134840D02*
X15038135Y6945533D01*
X14815353Y7383841D02*
X14934035Y7265160D01*
X14776987Y7134840D02*
X14989735Y6922091D01*
X14705144Y7134840D02*
X14976575Y6863411D01*
X14920671Y7134840D02*
X15230351Y6825160D01*
X14354312Y6882731D02*
X14606421Y7134840D01*
X13426990Y7265160D02*
X15400000D01*
X14158583Y6615160D02*
X14678262Y7134840D01*
X14325105Y6925368D02*
X14534578Y7134840D01*
X14130408D02*
X14650089Y6615160D01*
X14230424D02*
X14750105Y7134840D01*
X14302267Y6615160D02*
X14821947Y7134840D01*
X14202249D02*
X14721930Y6615160D01*
X15098865Y6908863D02*
X15324841Y7134840D01*
X15064355D02*
X15374036Y6825160D01*
X15060449Y6942289D02*
X15253000Y7134840D01*
X15082091Y6829736D02*
X15194839Y6716987D01*
Y6674840D02*
X15228275D01*
X15105533Y6878135D02*
X15194839Y6788829D01*
X14992513Y7134840D02*
X15302193Y6825160D01*
X13400000Y7134840D02*
X15373010D01*
X15023412Y6816574D02*
X15203117Y6636867D01*
X14058565Y7134840D02*
X14263458Y6929947D01*
X14249265Y6921369D02*
X14462737Y7134840D01*
X13762141Y6937140D02*
X13959842Y7134840D01*
X13793428Y6896584D02*
X14031683Y7134840D01*
X13871214Y6615160D02*
X14390894Y7134840D01*
X13914880D02*
X14434561Y6615160D01*
X13986723Y7134840D02*
X14228595Y6892968D01*
X13555670Y7134840D02*
X13747266Y6943246D01*
X13411986Y7134840D02*
X13664482Y6882344D01*
X13483829Y7134840D02*
X13688179Y6930489D01*
X13068050Y6674101D02*
X13528789Y7134840D01*
X13103970Y6638180D02*
X13600632Y7134840D01*
X13032127Y6710022D02*
X13456947Y7134840D01*
X14312968Y6808595D02*
X14506403Y6615160D01*
X14086740D02*
X14277269Y6805688D01*
X13943056Y6615160D02*
X14238631Y6910735D01*
X14014899Y6615160D02*
X14234631Y6834894D01*
X14661478Y6615160D02*
X15181158Y7134840D01*
X14633302D02*
X15202039Y6566104D01*
X14733321Y6615160D02*
X14977711Y6859551D01*
X14790804Y6600802D02*
X15011137Y6821135D01*
X14826997Y6565153D02*
X15384846Y7123003D01*
X14862918Y6529232D02*
X15420769Y7087082D01*
X14889536Y6484007D02*
X15194839Y6789312D01*
X14517793Y6615160D02*
X15037473Y7134840D01*
X14589635Y6615160D02*
X15109315Y7134840D01*
X14374109Y6615160D02*
X14893790Y7134840D01*
X14445950Y6615160D02*
X14965631Y7134840D01*
X14489618D02*
X15194839Y6429618D01*
X14417776Y7134840D02*
X15227457Y6325160D01*
X14561459Y7134840D02*
X15194839Y6501460D01*
X14930161Y6380948D02*
X15224052Y6674840D01*
X15194839Y6525160D02*
X15228276D01*
X15194839Y6374840D02*
Y6525160D01*
Y6501943D02*
X15218057Y6525160D01*
X15194839Y6374840D02*
X15405161D01*
X15194839Y6325160D02*
X15405161D01*
X14930161Y6309106D02*
X15198766Y6577710D01*
X14796075Y6596075D02*
X14871075Y6521075D01*
X14927530Y6450160D02*
X15194839Y6717470D01*
X14890160Y6450160D02*
X14930161D01*
X14890160D02*
Y6475000D01*
X13727530Y6615160D02*
X14247211Y7134840D01*
X13771198D02*
X14290877Y6615160D01*
X13655688D02*
X14175368Y7134840D01*
X13699355D02*
X14219035Y6615160D01*
X13799371D02*
X14319052Y7134840D01*
X13843039D02*
X14362720Y6615160D01*
X13793246Y6897265D02*
X14075351Y6615160D01*
X13296477D02*
X13816158Y7134840D01*
X13368320Y6615160D02*
X13887999Y7134840D01*
X13152792Y6615160D02*
X13672473Y7134840D01*
X13224635Y6615160D02*
X13744315Y7134840D01*
X13583846Y6615160D02*
X14103526Y7134840D01*
X13627512D02*
X14147192Y6615160D01*
X13440161D02*
X13672861Y6847858D01*
X14708565Y6484840D02*
X14743245Y6450160D01*
X14719839D02*
X14757690D01*
X14564880Y6484840D02*
X14719839Y6329881D01*
X14723010Y6484840D02*
X14757690Y6450160D01*
X14636723Y6484840D02*
X14719839Y6401723D01*
X13732344Y6814482D02*
X13931667Y6615160D01*
X13126990D02*
X14750000D01*
X13512003D02*
X13713416Y6816572D01*
X14349947Y6843458D02*
X14578246Y6615160D01*
X13100000Y6484840D02*
X14723010D01*
X13780489Y6838179D02*
X14003508Y6615160D01*
X13205949Y8105160D02*
X13292081Y8191290D01*
X13225160Y8052527D02*
X13363924Y8191290D01*
X13134108Y8105160D02*
X13220238Y8191290D01*
X13074840Y8105160D02*
X13225160D01*
X13145799Y8191290D02*
X13431931Y7905160D01*
X13225160Y7980685D02*
X13435765Y8191290D01*
X13225160Y7900160D02*
Y8105160D01*
X13002115Y8191290D02*
X13088245Y8105160D01*
X13073956Y8191290D02*
X13160088Y8105160D01*
X12925160Y8111738D02*
X13004712Y8191290D01*
X12925160Y8100160D02*
X13074840D01*
X12985423D02*
X13076553Y8191290D01*
X13057266Y8100160D02*
X13148396Y8191290D01*
X12930273D02*
X13021404Y8100160D01*
X13225160Y8040088D02*
X13360088Y7905160D01*
X13225160Y7900160D02*
X13324840D01*
X13225160Y7968245D02*
X13293245Y7900160D01*
X13140160Y7837719D02*
X13159840Y7818039D01*
X13140160Y7765877D02*
X13159840Y7746197D01*
Y7699840D02*
X13324840D01*
X13140160Y7752001D02*
X13159840Y7771681D01*
X13140160Y7894840D02*
X13159840D01*
X13140160Y7823843D02*
X13159840Y7843523D01*
X12949840Y7699840D02*
Y7899840D01*
X12854660Y7835851D02*
X12949840Y7740671D01*
X13140160Y7699840D02*
Y7894840D01*
X13106660Y7699840D02*
X13140160D01*
X12949840D02*
X12976340D01*
X12925160Y8100160D02*
Y8191290D01*
Y8183580D02*
X12932870Y8191290D01*
X12913582Y8100160D02*
X12925160Y8111738D01*
X12909840Y8100160D02*
X12925160D01*
Y8124561D02*
X12949561Y8100160D01*
X12909840Y7899840D02*
Y8094840D01*
X12890160Y8076738D02*
X12908263Y8094840D01*
X12217642Y9191290D02*
X12401032Y9007900D01*
Y8291290D02*
Y9191290D01*
X12361326D02*
X12401032Y9151584D01*
X12289484Y9191290D02*
X12401032Y9079742D01*
X12404840Y8099840D02*
X12449840D01*
X12890160Y7899840D02*
Y8094840D01*
X12404840Y8099840D02*
Y8287482D01*
X12909840Y8094840D02*
X12925160D01*
X12890160Y7933054D02*
X12909840Y7952734D01*
X12890160Y8004896D02*
X12909840Y8024576D01*
X12890160Y8015877D02*
X12909840Y7996197D01*
Y7899840D02*
X12949840D01*
X12934355D02*
X12949840Y7884355D01*
X12890160Y7944035D02*
X12909840Y7924355D01*
X12890160Y8094840D02*
X12909840D01*
X12890160Y8087719D02*
X12909840Y8068039D01*
X12854660Y7899840D02*
X12890160D01*
X12862514D02*
X12949840Y7812513D01*
X12854660Y7753869D02*
X12949840Y7849050D01*
X12854660Y7825712D02*
X12928789Y7899840D01*
X13278040Y7699840D02*
X13315746Y7662134D01*
X13333426Y7657898D02*
X13370367Y7694840D01*
X13159840Y7699840D02*
Y7894840D01*
X13265273Y7661588D02*
X13303525Y7699840D01*
X13354881Y7694840D02*
X13437273Y7612449D01*
X13206197Y7699840D02*
X13248724Y7657312D01*
X13134355Y7699840D02*
X13202408Y7631787D01*
X13145627Y7613784D02*
X13231683Y7699840D01*
X13106660Y7646191D02*
Y7699840D01*
Y7646659D02*
X13159840Y7699840D01*
X13106660Y7655693D02*
X13169768Y7592586D01*
X13407512Y7444617D02*
X13421848Y7458953D01*
X13365160Y7402264D02*
X13371384Y7408488D01*
X13365160Y7326990D02*
Y7404449D01*
X13234840Y7300000D02*
Y7396025D01*
X13202687Y7415981D02*
X13234840Y7383828D01*
X13161307Y7457363D02*
X13183981Y7434687D01*
X13129231Y7417596D02*
X13234840Y7311986D01*
X12744760Y6997390D02*
X13183115Y7435745D01*
X12623952Y7419991D02*
X13428784Y6615160D01*
X12579304Y7392798D02*
X13356943Y6615160D01*
X12780681Y6961469D02*
X13221863Y7402651D01*
X12976340Y7649868D02*
Y7699840D01*
X12946420Y7630103D02*
X12976340Y7660023D01*
X12875041Y7630566D02*
X12949840Y7705365D01*
X12854660Y7692166D02*
X12931596Y7615230D01*
X12907182Y7590865D02*
X12931897Y7615580D01*
X12854660Y7682027D02*
X12949840Y7777207D01*
X12854660Y7764009D02*
X12971362Y7647306D01*
X12449840Y7638975D02*
Y8099840D01*
X12854660Y7645045D02*
Y7899840D01*
X12241865Y7500285D02*
X12449840Y7708260D01*
X12205944Y7536206D02*
X12449840Y7780102D01*
X12529233Y7212916D02*
X12717135Y7400818D01*
X12655063Y7460722D02*
X12663689Y7452097D01*
X12493312Y7248838D02*
X12677434Y7432959D01*
X12636997Y7105153D02*
X12948216Y7416373D01*
X12672918Y7069232D02*
X12994460Y7390774D01*
X12601075Y7141074D02*
X12915640Y7455640D01*
X12277786Y7464364D02*
X12410241Y7596819D01*
X12349628Y7392522D02*
X12409508Y7452401D01*
X12313707Y7428443D02*
X12391031Y7505767D01*
X12421470Y7320680D02*
X12490354Y7389564D01*
X12457391Y7284759D02*
X12559643Y7387010D01*
X12385549Y7356601D02*
X12443033Y7414084D01*
X12002115Y9191290D02*
X12401032Y8792374D01*
X11930273Y9191290D02*
X12401032Y8720531D01*
X12145800Y9191290D02*
X12401032Y8936058D01*
X12073958Y9191290D02*
X12401032Y8864216D01*
X11786589Y9191290D02*
X12401032Y8576847D01*
X11642905Y9191290D02*
X12401032Y8433163D01*
X11858431Y9191290D02*
X12401032Y8648689D01*
X11427378Y9191290D02*
X12404840Y8213829D01*
X11355536Y9191290D02*
X12404840Y8141987D01*
X11571063Y9191290D02*
X12401032Y8361321D01*
X11499221Y9191290D02*
X12404840Y8285671D01*
X11211852Y9191290D02*
X12449840Y7953302D01*
X10996338Y9191290D02*
X12449840Y7737788D01*
X11283694Y9191290D02*
X12449840Y8025144D01*
X11701476Y7750160D02*
X12401032Y8449715D01*
X11735160Y7712001D02*
X12401032Y8377873D01*
X11582391Y7774759D02*
X12401032Y8593400D01*
X11629634Y7750160D02*
X12401032Y8521558D01*
X11824503Y7657660D02*
X12404840Y8237997D01*
X11896345Y7657660D02*
X12404840Y8166155D01*
X11752661Y7657660D02*
X12401032Y8306031D01*
X11140010Y9191290D02*
X12449840Y7881460D01*
X11510549Y7846601D02*
X12401032Y8737084D01*
X11330944Y8026206D02*
X12401032Y9096294D01*
X11474628Y7882522D02*
X12401032Y8808926D01*
X11068168Y9191290D02*
X12449840Y7809618D01*
X10924496Y9191290D02*
X12449840Y7665946D01*
X11546470Y7810680D02*
X12401032Y8665242D01*
X11295023Y8062127D02*
X12401032Y9168137D01*
X11366865Y7990285D02*
X12401032Y9024452D01*
X11259059Y8098006D02*
X12352343Y9191290D01*
X11714747D02*
X12401032Y8505005D01*
X11402786Y7954364D02*
X12401032Y8952610D01*
X11438707Y7918443D02*
X12401032Y8880768D01*
X11261075Y8096075D02*
X11606991Y7750160D01*
X11060687Y8115160D02*
X12136817Y9191290D01*
X11132529Y8115160D02*
X12208659Y9191290D01*
X10917002Y8115160D02*
X11993132Y9191290D01*
X10988844Y8115160D02*
X12064975Y9191290D01*
X11204371Y8115160D02*
X12280501Y9191290D01*
X11606991Y7750160D02*
X11735160D01*
X11719047D02*
X11735160Y7734047D01*
X11188010Y7984840D02*
X11464840Y7708010D01*
X11064434Y7759697D02*
X11238794Y7934056D01*
X11735160Y7657660D02*
Y7750160D01*
Y7657660D02*
X12057500D01*
X11065160Y7688581D02*
X11274715Y7898135D01*
X10965681Y7876470D02*
X11074051Y7984840D01*
X11001602Y7840548D02*
X11145893Y7984840D01*
X10929759Y7912391D02*
X11002209Y7984840D01*
X11037523Y7804628D02*
X11202872Y7969977D01*
X12040029Y7657660D02*
X12449840Y8067471D01*
X12097864Y7643652D02*
X12449840Y7995629D01*
X12170023Y7572127D02*
X12449840Y7851944D01*
X12103575Y7638575D02*
X13126990Y6615160D01*
X12134102Y7608048D02*
X12449840Y7923787D01*
X11968187Y7657660D02*
X12410367Y8099840D01*
X11735160Y7734047D02*
X11811547Y7657660D01*
X11735160Y7484840D02*
Y7527340D01*
Y7496475D02*
X11766025Y7527340D01*
X11702766Y7320397D02*
X11909709Y7527340D01*
X11739829Y7285618D02*
X11981551Y7527340D01*
X11631474Y7320947D02*
X11837867Y7527340D01*
X11740947Y7214893D02*
X12041952Y7515898D01*
X11740947Y7143051D02*
X12077872Y7479977D01*
X11735160Y7527340D02*
X12030510D01*
X11723525Y7484840D02*
X11735160Y7496475D01*
X12030510Y7527340D02*
X13053925Y6503925D01*
X11650160Y6908580D02*
X12149715Y7408135D01*
X11738764Y7069027D02*
X12113794Y7444056D01*
X11559632Y7320947D02*
X11723525Y7484840D01*
X11464840D02*
X11735160D01*
X11481472D02*
X11645365Y7320947D01*
X11484758Y7317915D02*
X11651683Y7484840D01*
X11553314D02*
X11722994Y7315160D01*
X11209469Y7114468D02*
X11579841Y7484840D01*
X11125156Y7984840D02*
X11464840Y7645156D01*
X11053314Y7984840D02*
X11464840Y7573314D01*
X11065155Y7616734D02*
X11310636Y7862214D01*
X11065160Y7617500D02*
Y7750000D01*
X11064673Y7757955D02*
X11501681Y7320947D01*
X11464840Y7484840D02*
Y7708010D01*
X11065160Y7685625D02*
X11461000Y7289786D01*
X10981472Y7984840D02*
X11464840Y7501472D01*
X10909630Y7984840D02*
X11573523Y7320947D01*
X11035160Y7514896D02*
X11346557Y7826293D01*
X10907266Y7315160D02*
X11382478Y7790372D01*
X11035160Y7299370D02*
X11454320Y7718530D01*
X11035160Y7227528D02*
X11464840Y7657208D01*
X10979108Y7315160D02*
X11418399Y7754451D01*
X11065060Y7613884D02*
X11459053Y7219890D01*
X11464840Y7501472D02*
X11481472Y7484840D01*
X11061476Y7110160D02*
X11464840Y7513523D01*
X11133319Y7110160D02*
X11507999Y7484840D01*
X11040876Y7566226D02*
X11459053Y7148048D01*
X11035160Y7155686D02*
X11464840Y7585366D01*
X11035160Y7560510D02*
X11046075Y7571425D01*
X11035160Y7484840D02*
Y7560510D01*
Y7500099D02*
X11459053Y7076206D01*
X10978577Y7484840D02*
X11427755Y7035662D01*
X10906735Y7484840D02*
X11399471Y6992103D01*
X13365160Y7326990D02*
X13426990Y7265160D01*
X13253925Y7253925D02*
X13353925Y7153925D01*
X12852522Y6889627D02*
X13239273Y7276377D01*
X12888445Y6853706D02*
X13271294Y7236556D01*
X12816602Y6925548D02*
X13234840Y7343786D01*
X12708839Y7033311D02*
X13061320Y7385794D01*
X12565154Y7176996D02*
X12772474Y7384315D01*
X11650947Y6765683D02*
X12221557Y7336293D01*
X11717266Y6760160D02*
X12257478Y7300372D01*
X11784108Y6755160D02*
X12293399Y7264451D01*
X11855950Y6755160D02*
X12329320Y7228530D01*
X11740947Y7225365D02*
X12213540Y6752772D01*
X12924365Y6817785D02*
X13307214Y7200635D01*
X12960286Y6781864D02*
X13343137Y7164714D01*
X12996207Y6745943D02*
X13386514Y7136251D01*
X12295049Y6691364D02*
X12580767Y6977082D01*
X12263656Y6731813D02*
X12544846Y7013003D01*
X12071477Y6755160D02*
X12437083Y7120766D01*
X12212860Y6752859D02*
X12508925Y7048924D01*
X11925160Y6752528D02*
X12365241Y7192608D01*
X11999635Y6755160D02*
X12401162Y7156687D01*
X11740947Y7153523D02*
X12152390Y6742080D01*
X12125160Y6737001D02*
X12473004Y7084845D01*
X12125160Y6721724D02*
Y6755160D01*
X11740947Y7080000D02*
Y7280000D01*
X11737830Y7064330D02*
X11740947Y7080000D01*
X11735160Y7299666D02*
Y7315160D01*
X11737830Y7295670D02*
X11740947Y7280000D01*
Y7081681D02*
X12067468Y6755160D01*
X11735160Y7049840D02*
Y7060334D01*
X11728954Y7051046D02*
X11735160Y7060334D01*
X11719666Y7315160D02*
X11735160D01*
X11722994D02*
X11735160Y7302994D01*
X11700000Y7320947D02*
X11715670Y7317830D01*
X11719666Y7315160D02*
X11728954Y7308954D01*
X11735160Y7299666D01*
X11714346Y7036439D02*
X11995625Y6755160D01*
X11658954Y6981046D02*
X11727747Y7049840D01*
X11774840Y6755160D02*
X11925160D01*
X11974840D02*
X12125160D01*
X11774840Y6745892D02*
X11784108Y6755160D01*
X11745160Y6715160D02*
X11774840D01*
X11925160Y6753783D02*
X11974840Y6704103D01*
X11925160Y6680685D02*
X11974840Y6730365D01*
X11774840Y6715160D02*
Y6755160D01*
X11650947Y6812470D02*
X11703257Y6760160D01*
X11650947D02*
X11745160D01*
X11650947D02*
Y6850000D01*
X11678425Y7000518D02*
X11923783Y6755160D01*
X11745160Y6716212D02*
X11774840Y6745892D01*
X11745160Y6715160D02*
Y6760160D01*
X12515687Y7384573D02*
X13285098Y6615160D01*
X12300624Y6625097D02*
X12616689Y6941161D01*
X12065024Y6317654D02*
X12652609Y6905240D01*
X12080033Y6476347D02*
X12158636Y6554951D01*
X12125160Y6544840D02*
Y6578276D01*
X11974840Y6544840D02*
Y6755160D01*
X11925160Y6610099D02*
X11974840Y6560419D01*
X11925160Y6681941D02*
X11974840Y6632261D01*
X11925160Y6608843D02*
X11974840Y6658523D01*
Y6560419D02*
X11990419Y6544840D01*
X12010377Y6334850D02*
X12224903Y6549376D01*
X11885428Y6497269D02*
X11974840Y6586681D01*
X11990419Y6544840D02*
X12019700Y6515559D01*
X12043172Y6511329D02*
X12076683Y6544840D01*
X11974840D02*
X12125160D01*
X11918577D02*
X11970468Y6492949D01*
X11905398Y6445397D02*
X12004841Y6544840D01*
X11898776Y6420957D02*
X11990957Y6328776D01*
X11925160Y6544840D02*
Y6755160D01*
X11774840Y6544840D02*
Y6584840D01*
X11745160D02*
X11774840D01*
X11739893Y6579840D02*
X11774840Y6544893D01*
X11700947Y6528314D02*
X11757473Y6584840D01*
X11700160Y6547731D02*
X11777644Y6470246D01*
X11700160Y6533956D02*
Y6565160D01*
X11668067Y6579840D02*
X11745160D01*
X11682748Y6565160D02*
X11700160D01*
X11674349Y6573559D02*
X11680630Y6579840D01*
X11668067D02*
X11682748Y6565160D01*
X11688954Y6558954D02*
X11697830Y6545670D01*
X11688988Y6558903D02*
X11700160Y6547731D01*
X11682748Y6565160D02*
X11688954Y6558954D01*
X11831296Y6514980D02*
X11861157Y6544840D01*
X11774893D02*
X11810957Y6508776D01*
X11846735Y6544840D02*
X11956060Y6435514D01*
X11700947Y6456472D02*
X11789314Y6544840D01*
X11774840D02*
X11925160D01*
X11697830Y6545670D02*
X11700160Y6533956D01*
X11700947Y6312788D02*
X11792731Y6404572D01*
X11700947Y6384630D02*
X11775020Y6458704D01*
X11484330Y7317830D02*
X11500000Y7320947D01*
X11700000D01*
X11464840Y7315160D02*
X11480334D01*
X11471046Y7308954D02*
X11480334Y7315160D01*
X11650947Y6837525D02*
X12185636Y7372214D01*
X11464840Y7299665D02*
X11471046Y7308954D01*
X11464840Y7299665D02*
Y7315160D01*
X11459053Y7280000D02*
X11462170Y7295670D01*
X11254496Y7087654D02*
X11462085Y7295242D01*
X11459053Y7066961D02*
Y7280000D01*
X11290418Y7051733D02*
X11459053Y7220368D01*
X11315006Y7004479D02*
X11459053Y7148526D01*
X11334335Y6951966D02*
X11459053Y7076684D01*
X11412253Y7020160D02*
X11459053Y7066961D01*
X11404840Y7009665D02*
X11411046Y7018954D01*
X11650160Y6975170D02*
X11658954Y6981046D01*
X11404840Y7009665D02*
Y7020160D01*
X11399053Y6990000D02*
X11402170Y7005670D01*
X11650160Y6853955D02*
Y6975170D01*
Y6839840D02*
Y6853955D01*
X11647830Y6865670D02*
X11650160Y6853955D01*
X11348919Y6894707D02*
X11399053Y6944842D01*
X11349053Y6898837D02*
X11399053Y6848837D01*
X11314987Y7004746D02*
X11399053Y6920680D01*
X11315160Y6789107D02*
X11399053Y6873000D01*
X11331849Y6844200D02*
X11399053Y6776995D01*
X11246075Y7096075D02*
X11296075Y7046075D01*
X11315160Y6974613D02*
Y7000000D01*
X11160160Y6847500D02*
Y6858266D01*
X11035160Y7284573D02*
X11204746Y7114987D01*
X11055932Y7110160D02*
X11174968D01*
X11035160Y7212731D02*
X11137731Y7110160D01*
X11035160Y7140888D02*
X11065888Y7110160D01*
X11035160Y7106460D02*
Y7315160D01*
X11157660Y6802862D02*
X11184840Y6775682D01*
X11157660Y6775291D02*
X11184840Y6802471D01*
Y6770000D02*
Y6825387D01*
X11315160Y6770000D02*
Y6825387D01*
X11037341Y6760160D02*
Y6829976D01*
X11012717Y6804121D02*
X11037341Y6779497D01*
X10962660Y6782336D02*
X10984836Y6760160D01*
X10962660D02*
X11037341D01*
X10962660D02*
Y6785028D01*
X11650160Y6956941D02*
X11851941Y6755160D01*
X11650160Y6885099D02*
X11780099Y6755160D01*
X11315160Y6789046D02*
X11399053Y6705153D01*
X11355160Y6613580D02*
X11399053Y6657473D01*
Y6560000D02*
Y6990000D01*
X11355160Y6449840D02*
Y6620160D01*
X11340362D02*
X11355160Y6605362D01*
X11301840Y6730524D02*
X11399053Y6633311D01*
X11144840Y6620160D02*
X11355160D01*
X11157660Y6731020D02*
X11268519Y6620160D01*
X11218056D02*
X11399053Y6801158D01*
X11289898Y6620160D02*
X11399053Y6729315D01*
X11255453Y6705069D02*
X11340362Y6620160D01*
X11402170Y6544330D02*
X11411046Y6531046D01*
X11449053Y6493039D01*
X11355160Y6541738D02*
X11399053Y6585631D01*
Y6560000D02*
X11402170Y6544330D01*
X11355160Y6533520D02*
X11449053Y6439627D01*
X11355160Y6461678D02*
X11449053Y6367785D01*
X11355160Y6469896D02*
X11413678Y6528414D01*
X11355160Y6605362D02*
X11399053Y6561469D01*
X11335104Y6449840D02*
X11355160Y6469896D01*
X11310160Y6449840D02*
X11355160D01*
X11310160Y6353054D02*
X11449053Y6491947D01*
X11310160Y6424896D02*
X11335104Y6449840D01*
X11310160Y6329290D02*
Y6449840D01*
X11151851Y6697640D02*
X11192872Y6738661D01*
X11157660Y6723432D02*
Y6829978D01*
X11146214Y6620160D02*
X11233119Y6707065D01*
X11137993Y6678845D02*
X11196677Y6620160D01*
X11116681Y6657533D02*
X11139968Y6680820D01*
X11099511Y6645485D02*
X11144840Y6600156D01*
X10998845Y6760160D02*
X11037341Y6798656D01*
X11017566Y6563354D02*
X11099860Y6645649D01*
X10961471Y6639840D02*
X11036265Y6565047D01*
X10942190Y6559821D02*
X11022209Y6639840D01*
X11090861Y6564807D02*
X11144840Y6618787D01*
X11033313Y6639840D02*
X11109071Y6564082D01*
X11144840Y6543552D02*
Y6620160D01*
X11037340Y6329290D02*
Y6340027D01*
X10927419Y6639840D02*
X11074069D01*
X10908524Y6620945D02*
X10964387Y6565083D01*
X10970160Y6300423D02*
X11012766Y6343029D01*
X10904840Y6402500D02*
Y6502500D01*
X16185159Y6284840D02*
Y6465160D01*
X15834229Y6135542D02*
X16024840Y6326154D01*
X15548293Y6136976D02*
X15919839Y6508522D01*
X16024840Y6284840D02*
Y6449840D01*
X15405161Y6722193D02*
X16009749Y6117604D01*
X15617607Y6134447D02*
X15933000Y6449840D01*
X15405161Y6506667D02*
X15784763Y6127064D01*
X15405161Y6794035D02*
X16061240Y6137955D01*
X15405161Y6209369D02*
X15945631Y6749840D01*
X15405161Y6281211D02*
X15883789Y6759840D01*
X15402022Y6581647D02*
X15849205Y6134464D01*
X15136197Y7134840D02*
X16142984Y6128053D01*
X15390833Y6123200D02*
X16017473Y6749840D01*
X15393301Y6374840D02*
X15645073Y6123069D01*
X16129881Y6284840D02*
X16201031Y6213690D01*
X16058040Y6284840D02*
X16201031Y6141848D01*
X16185159Y6301403D02*
X16201031Y6285532D01*
X16024840Y6284840D02*
X16185159D01*
X16049550Y6135337D02*
X16201031Y6286819D01*
X16170055Y6112158D02*
X16201031Y6143135D01*
X16121614Y6135560D02*
X16201031Y6214977D01*
X15405161Y6174840D02*
Y6325160D01*
Y6291140D02*
X15557629Y6138671D01*
X15194839Y6174840D02*
X15263840D01*
X15384160D02*
X15405161D01*
X15892058Y6121530D02*
X16055368Y6284840D01*
X15405161Y6219298D02*
X15504881Y6119576D01*
X15384160Y6126592D02*
Y6174840D01*
X14930161Y6237264D02*
X15194839Y6501943D01*
X14930161Y6299840D02*
Y6450160D01*
X14920894Y6299840D02*
X14930161Y6309106D01*
X14799371Y6250160D02*
X14849052Y6299840D01*
X14930161Y6165422D02*
X15194839Y6430101D01*
Y6174840D02*
Y6325160D01*
X14930161Y6335087D02*
X15150536Y6114712D01*
X14493039Y6484840D02*
X14727719Y6250160D01*
X14512004D02*
X14734846Y6473003D01*
X14719839Y6299840D02*
Y6450160D01*
X14583846Y6250160D02*
X14719839Y6386154D01*
X14727530Y6250160D02*
X14777209Y6299840D01*
X14749881D02*
X14799561Y6250160D01*
X14655161Y6249632D02*
X14719839Y6314312D01*
X15046619Y6138196D02*
X15194839Y6286417D01*
X15234093Y6174840D02*
X15263840Y6145092D01*
X14871214Y6250160D02*
X14920894Y6299840D01*
X14893565D02*
X15054144Y6139260D01*
X15113503Y6133238D02*
X15194839Y6214575D01*
X15263840Y6126592D02*
Y6174840D01*
X14930161Y6191403D02*
X15000085Y6121477D01*
X14719839Y6299840D02*
X14930161D01*
X14719839Y6250160D02*
X14930161D01*
X14821722Y6299840D02*
X14871404Y6250160D01*
X14719839Y6242470D02*
X14727530Y6250160D01*
X14655161Y6179035D02*
X14719839Y6114355D01*
X14655161Y6177790D02*
X14719839Y6242470D01*
X16201031Y6080078D02*
Y6516979D01*
X15932899Y6090530D02*
X16127209Y6284840D01*
X15698474Y6071630D02*
X16024840Y6397996D01*
X15701070Y6067073D02*
X15709689Y6058453D01*
X15430544Y6091068D02*
X15919839Y6580364D01*
X15664940Y6109938D02*
X16004842Y6449840D01*
X15405161Y6434825D02*
X15740221Y6099765D01*
X15384160Y6168456D02*
X15467017Y6085600D01*
X15380672Y6674840D02*
X15972827Y6082684D01*
X15697836Y5927308D02*
X15710471Y5939942D01*
X16201031Y5791290D02*
Y5919922D01*
X15931766Y5908220D02*
X16048694Y5791290D01*
X15849187D02*
X15973842Y5915945D01*
X15191478Y5930086D02*
X15330273Y5791290D01*
X15697575Y5926882D02*
X15833168Y5791290D01*
X15429437Y5907653D02*
X15545799Y5791290D01*
X15346292D02*
X15468062Y5913060D01*
X14930161Y6406930D02*
X15231653Y6105437D01*
X15159756Y6107650D02*
X15226947Y6174840D01*
X14930161Y6099840D02*
Y6250160D01*
Y6119561D02*
X14961273Y6088449D01*
X15192342Y6068392D02*
X15263840Y6139891D01*
X14924863Y6088282D02*
X15211421Y6374840D01*
X14719839Y6101971D02*
Y6250160D01*
X14655161Y6104719D02*
Y6250160D01*
Y6105948D02*
X14719839Y6170628D01*
X14655161Y6107193D02*
X14693767Y6068586D01*
X15184712Y6080535D02*
X15199969Y6065278D01*
X15176411Y5908778D02*
X15200800Y5933167D01*
X14914371Y6099840D02*
X14930161D01*
X14923787Y5910408D02*
X15182098Y5652097D01*
X14747118Y5695009D02*
X14962350Y5910243D01*
X14686134Y6065080D02*
X14700598Y6079544D01*
X14685306Y5933363D02*
X14707982Y5910687D01*
X14446986Y6099840D02*
X14455595Y6091230D01*
X14627161Y5862421D02*
X14694633Y5929894D01*
X14345934Y7134840D02*
X15194839Y6285934D01*
X14152792Y6250160D02*
X14387473Y6484840D01*
X14080951Y6250160D02*
X14315631Y6484840D01*
X14133829D02*
X14368507Y6250160D01*
X14274092Y7134840D02*
X15194839Y6214092D01*
X14224635Y6250160D02*
X14459315Y6484840D01*
X14205670D02*
X14444839Y6245671D01*
X13990144Y6484840D02*
X14224825Y6250160D01*
X14009109D02*
X14243790Y6484840D01*
X13846460D02*
X14081140Y6250160D01*
X13918301Y6484840D02*
X14152982Y6250160D01*
X13825015Y6137909D02*
X14171947Y6484840D01*
X14061986D02*
X14296666Y6250160D01*
X13743558Y6128293D02*
X14100105Y6484840D01*
X14405161Y6215159D02*
X14674841Y6484840D01*
X14444839Y6250160D02*
X14655161D01*
X14349355Y6484840D02*
X14584035Y6250160D01*
X14368320D02*
X14603000Y6484840D01*
X14421198D02*
X14719839Y6186197D01*
X14405161Y6143316D02*
X14444839Y6182996D01*
X14405161Y6213508D02*
X14444839Y6173828D01*
X14277512Y6484840D02*
X14512193Y6250160D01*
X14296477D02*
X14531158Y6484840D01*
X13944839Y6250160D02*
X14155161D01*
X14194839D02*
X14405161D01*
X14155161Y6180685D02*
X14194839Y6220365D01*
X14155161Y6176140D02*
X14194839Y6136460D01*
X14155161Y6247982D02*
X14194839Y6208302D01*
X13343578Y6484840D02*
X13578258Y6250160D01*
X13415419Y6484840D02*
X13650099Y6250160D01*
X13199893Y6484840D02*
X13444839Y6239893D01*
X13271735Y6484840D02*
X13506415Y6250160D01*
X13244086Y6131715D02*
X13597211Y6484840D01*
X13321278Y6137067D02*
X13669052Y6484840D01*
X13128052D02*
X13444839Y6168051D01*
X11941867Y7527340D02*
X13336198Y6133009D01*
X13037000Y6140156D02*
X13381683Y6484840D01*
X11870025Y7527340D02*
X13260736Y6136629D01*
X12817432Y6136114D02*
X13166158Y6484840D01*
X12866481Y6113322D02*
X13237999Y6484840D01*
X13096194Y6127508D02*
X13453526Y6484840D01*
X11798182Y7527340D02*
X13211081Y6114442D01*
X13655161Y6183580D02*
X13956421Y6484840D01*
X13774619D02*
X14009299Y6250160D01*
X13649898D02*
X13884579Y6484840D01*
X13702788D02*
X13944839Y6242788D01*
X13655161Y6245099D02*
X13764635Y6135625D01*
X13876434Y6117485D02*
X13944839Y6185891D01*
X13655161Y6173257D02*
X13716124Y6112293D01*
X13506213Y6250160D02*
X13740894Y6484840D01*
X13578056Y6250160D02*
X13812737Y6484840D01*
X13444839Y6250160D02*
X13655161D01*
X13487260Y6484840D02*
X13836880Y6135221D01*
X13630946Y6484840D02*
X13944839Y6170946D01*
X13371492Y6115438D02*
X13444839Y6188786D01*
X14444839Y6099840D02*
Y6250160D01*
X14405161Y6141666D02*
X14444839Y6101986D01*
X14194839Y6099840D02*
Y6250160D01*
X14405161Y6101019D02*
Y6250160D01*
X14419115Y6085430D02*
X14444839Y6111154D01*
X14155161Y6099840D02*
Y6250160D01*
Y6108843D02*
X14194839Y6148523D01*
X13655161Y6111738D02*
X14028262Y6484840D01*
X13944839Y6099840D02*
X13955629D01*
X14155161Y6104298D02*
X14187639Y6071819D01*
X14194839Y6099840D02*
X14209628D01*
X14444839D02*
X14463629D01*
X14418071Y5913229D02*
X14496840Y5834460D01*
X14365160Y5815948D02*
X14456705Y5907492D01*
X14179063Y5936722D02*
X14187689Y5928097D01*
X14119160Y5857316D02*
X14188538Y5926695D01*
X13912292Y5916124D02*
X13988840Y5839577D01*
X13559103Y6484840D02*
X13949991Y6093952D01*
X13944839Y6099840D02*
Y6250160D01*
X13444839Y6099840D02*
Y6250160D01*
X13655161Y6099840D02*
Y6250160D01*
X13913301Y6082510D02*
X13944839Y6114049D01*
X13655161Y6101415D02*
X13681587Y6074988D01*
X13138364Y6097836D02*
X13525368Y6484840D01*
X13407417Y6079521D02*
X13444839Y6116944D01*
X12013709Y7527340D02*
X13444447Y6096601D01*
X11735160Y7518520D02*
X13175603Y6078079D01*
X12901465Y6076464D02*
X13309842Y6484840D01*
X13644371Y6099840D02*
X13655161D01*
X13646265Y5599946D02*
X13951125Y5904808D01*
X13611160Y5852211D02*
X13682515Y5923566D01*
X13406442Y5919081D02*
X13480840Y5844682D01*
X13137186Y5900969D02*
X13427652Y5610502D01*
X12900522Y5922106D02*
X13484468Y5338160D01*
X12892786Y5349364D02*
X13445612Y5902189D01*
X12849159Y5593106D02*
X13176562Y5920508D01*
X16168684Y5886827D02*
X16201031Y5854479D01*
X15705502Y5791290D02*
X15786513Y5872300D01*
X15633661Y5791290D02*
X15741470Y5899100D01*
X15663600Y5889016D02*
X15761327Y5791290D01*
X15921030D02*
X16011205Y5881466D01*
X16064713Y5791290D02*
X16147453Y5874031D01*
X15890453Y5877690D02*
X15976852Y5791290D01*
X15561819Y5791290D02*
X15650693Y5880164D01*
X15418135Y5791290D02*
X15506371Y5879526D01*
X15389278Y5875969D02*
X15473956Y5791290D01*
X14675285Y5766863D02*
X14774536Y5866113D01*
X15158449Y5891272D02*
X15289861Y5759860D01*
X15111694Y5866185D02*
X15253940Y5723939D01*
X14765160Y5641211D02*
X15001608Y5877659D01*
X15831860Y5864440D02*
X15905009Y5791290D01*
X15992871D02*
X16063275Y5861694D01*
X15777345Y5791290D02*
X15851974Y5865919D01*
X15615755Y5865020D02*
X15689484Y5791290D01*
X16119714Y5863955D02*
X16192380Y5791290D01*
X16136555D02*
X16201031Y5855767D01*
X16046223Y5865602D02*
X16120535Y5791290D01*
X15545200Y5863732D02*
X15617641Y5791290D01*
X15321291D02*
X16201031Y5791290D01*
X15489977Y5791290D02*
X15559723Y5861037D01*
X15333260Y5860146D02*
X15402115Y5791290D01*
X14711208Y5730943D02*
X14842665Y5862400D01*
X15043709Y5862328D02*
X15218019Y5688018D01*
X14639365Y5802785D02*
X14727718Y5891137D01*
X14627161Y5814990D02*
Y5875907D01*
X14496840Y5788000D02*
Y5875907D01*
X14365160Y5800000D02*
Y5872025D01*
X14379819Y5879639D02*
X14508159Y5751298D01*
X14627161Y5814990D02*
X14746075Y5696075D01*
X14315160Y5694105D02*
X14496840Y5875786D01*
X14234840Y5826990D02*
Y5880449D01*
X14203925Y5796075D02*
X14234840Y5826990D01*
X14147952Y5895991D02*
X14225897Y5818047D01*
X14119160Y5785474D02*
X14222569Y5888885D01*
X14119160Y5852942D02*
X14192139Y5779964D01*
X14119160Y5713632D02*
X14234840Y5829312D01*
X14119160Y5679000D02*
Y5875907D01*
X14515926Y5741925D02*
X14634840Y5623010D01*
X14315160Y5723010D02*
X14346075Y5753925D01*
X14119160Y5781099D02*
X14184840Y5715419D01*
X14119160Y5709257D02*
X14184840Y5643577D01*
X14813589Y5545956D02*
X15161221Y5893589D01*
X14884586Y5877767D02*
X15146176Y5616176D01*
X14829971Y5860538D02*
X15110255Y5580255D01*
X14792026Y5596233D02*
X15056302Y5860511D01*
X14804517Y5321356D02*
X15344508Y5861348D01*
X14814577Y5284577D02*
X15321291Y5791290D01*
X14773212Y5361893D02*
X15278685Y5867367D01*
X14653230Y5893596D02*
X15038412Y5508413D01*
X14726688Y5891981D02*
X15074335Y5544334D01*
X14627161Y5847824D02*
X15002492Y5472492D01*
X14765160Y5621953D02*
Y5650000D01*
X14724910Y5385434D02*
X15232932Y5893457D01*
X14318047Y5725897D02*
X14662173Y5381770D01*
X14315160Y5656942D02*
X14618121Y5353980D01*
X14765160Y5637982D02*
X14966571Y5436571D01*
X14814690Y5516609D02*
X14930650Y5400650D01*
X14703880Y5411905D02*
X14732227Y5383559D01*
X14796027Y5463432D02*
X14894730Y5364729D01*
X14759329Y5428299D02*
X14858813Y5328814D01*
X14810559Y5305227D02*
X14822893Y5292893D01*
X14637096Y5369461D02*
X14681044Y5413411D01*
X14333047Y5352782D02*
X14619057Y5638792D01*
X14533951Y5338160D02*
X14630766Y5434975D01*
X14344952Y5338160D02*
X14605048D01*
X14365160Y5822468D02*
X14601299Y5586329D01*
X14353287Y5762499D02*
X14584904Y5530880D01*
X14349580Y5584842D02*
X14511526Y5746789D01*
X14365149Y5528569D02*
X14547215Y5710635D01*
X14364853Y5535407D02*
X14562099Y5338160D01*
X14390266D02*
X14584990Y5532883D01*
X14315160Y5622263D02*
X14496840Y5803944D01*
X14315160Y5621953D02*
Y5723010D01*
X14184840Y5621953D02*
Y5750000D01*
X14110329Y5646246D02*
X14159000Y5597575D01*
X14289571Y5381148D02*
X14583136Y5674713D01*
X14090160Y5469105D02*
X14135524Y5514469D01*
X14320575Y5436000D02*
X14418414Y5338160D01*
X14270969Y5413765D02*
X14321300Y5363434D01*
X14221040Y5384459D02*
X14248431Y5411851D01*
X14352974Y5475443D02*
X14490257Y5338160D01*
X14462109D02*
X14597826Y5473876D01*
X14340434Y5344299D02*
X14346573Y5338160D01*
X14135159Y5442263D02*
X14154921Y5462024D01*
X14135159Y5370421D02*
X14192159Y5427420D01*
X14090160Y5450889D02*
X14095889Y5445160D01*
X14135159Y5405889D02*
X14178094Y5362953D01*
X14135159Y5338160D02*
X14155048D01*
X14135159D02*
Y5445160D01*
X13988840Y5705990D02*
Y5875907D01*
X13978925Y5696075D02*
X13988840Y5705990D01*
X13874988Y5881587D02*
X13988840Y5767735D01*
X13822993Y5861739D02*
X13983791Y5700942D01*
X13875661Y5613817D02*
X13988840Y5726996D01*
X14090160Y5612790D02*
X14184840Y5707470D01*
X13828563Y5638562D02*
X13988840Y5798839D01*
X13739156Y5873735D02*
X13959908Y5652983D01*
X13611160Y5636685D02*
X13840205Y5865730D01*
X13611160Y5708527D02*
X13766528Y5863895D01*
X13611160Y5858047D02*
X13831413Y5637793D01*
X13642603Y5898447D02*
X13959840Y5581209D01*
X13747820Y5629660D02*
X13988840Y5870681D01*
X13611160Y5786205D02*
X13761745Y5635620D01*
X14090160Y5540948D02*
X14184840Y5635628D01*
X14090160Y5594573D02*
X14136765Y5547968D01*
X14090160Y5623010D02*
X14100075Y5632925D01*
X14090160Y5445160D02*
Y5623010D01*
Y5445160D02*
X14135159D01*
X13959840D02*
Y5650000D01*
X13910793Y5558414D02*
X13959840Y5509367D01*
X13905910Y5572223D02*
X13959840Y5626154D01*
X13913593Y5508065D02*
X13959840Y5554312D01*
X13924840Y5445160D02*
X13959840D01*
X13908620Y5488744D02*
X13952205Y5445160D01*
X13611160Y5780369D02*
X13717490Y5886699D01*
X13611160Y5635050D02*
Y5875907D01*
X13480840Y5608060D02*
Y5875907D01*
X13439572Y5608781D02*
X13480840Y5650049D01*
X13611160Y5714362D02*
X13717834Y5607688D01*
X13611160Y5642520D02*
X13661520Y5592160D01*
X13611160Y5635050D02*
X13654050Y5592160D01*
X13240254Y5869742D02*
X13480840Y5629156D01*
X13319312Y5862527D02*
X13480840Y5700998D01*
X12930321Y5602424D02*
X13212479Y5884583D01*
X13370079Y5883602D02*
X13480840Y5772840D01*
X13094556Y5871757D02*
X13378055Y5588257D01*
X13034589Y5859882D02*
X13370158Y5524311D01*
X12959731Y5559992D02*
X13262679Y5862941D01*
X13654050Y5592160D02*
X13705048D01*
X13499925Y5561985D02*
X13580984Y5480925D01*
X13627060Y5461840D02*
X13705048D01*
X13479349Y5576716D02*
X13485788Y5583154D01*
X14090160Y5522731D02*
X14227042Y5385849D01*
X13880688Y5444834D02*
X13924840Y5400683D01*
X13764337Y5417501D02*
X13793843Y5387995D01*
X13793504Y5387977D02*
X13818936Y5413408D01*
X13852742Y5375372D02*
X13959840Y5482470D01*
X13924840Y5338160D02*
Y5445160D01*
X13836052Y5417629D02*
X13915520Y5338160D01*
X13648157Y5461840D02*
X13739195Y5370800D01*
X13485503Y5552652D02*
X13699994Y5338160D01*
X13463257Y5503055D02*
X13628152Y5338160D01*
X13600005D02*
X13713184Y5451339D01*
X13671846Y5338160D02*
X13754778Y5421091D01*
X13528162Y5338160D02*
X13651842Y5461840D01*
X13891776Y5342564D02*
X13924840Y5375628D01*
X13894952Y5338160D02*
X13924840D01*
X13642529Y5165160D02*
X13685210Y5207840D01*
X13714372Y5165160D02*
X13730437Y5181224D01*
X13686629Y5207840D02*
X13729311Y5165160D01*
X13600000Y5338160D02*
X13705048D01*
X13600000Y5207840D02*
X13705048D01*
X13125000D02*
X13600000D01*
X13614787D02*
X13657468Y5165160D01*
X12367827D02*
X13759598D01*
X13570688D02*
X13613368Y5207840D01*
X13097108Y5338160D02*
X13480840Y5721891D01*
X13312634Y5338160D02*
X13518192Y5543717D01*
X13168951Y5338160D02*
X13366219Y5535428D01*
X13240793Y5338160D02*
X13398285Y5495651D01*
X13399310Y5495159D02*
X13556310Y5338160D01*
X13456320D02*
X13590932Y5472773D01*
X13384477Y5338160D02*
X13554114Y5507796D01*
X12865099Y5885686D02*
X13412625Y5338160D01*
X12849159Y5829783D02*
X13340784Y5338160D01*
X12856865Y5385285D02*
X13339836Y5868256D01*
X12849159Y5757941D02*
X13268941Y5338160D01*
X12953426D02*
X13480840Y5865576D01*
X13025267Y5338160D02*
X13480840Y5793733D01*
X12946690Y5588569D02*
X13197099Y5338160D01*
X13399261Y5207840D02*
X13441940Y5165160D01*
X13427003D02*
X13469684Y5207840D01*
X13327419D02*
X13370099Y5165160D01*
X13355162D02*
X13397842Y5207840D01*
X13498846Y5165160D02*
X13541525Y5207840D01*
X13542944D02*
X13585626Y5165160D01*
X13471103Y5207840D02*
X13513783Y5165160D01*
X13125000Y5338160D02*
X13600000D01*
X13183736Y5207840D02*
X13226414Y5165160D01*
X13139635D02*
X13182317Y5207840D01*
X13255577D02*
X13298257Y5165160D01*
X13283319D02*
X13325999Y5207840D01*
X13211478Y5165160D02*
X13254158Y5207840D01*
X12534050Y6140102D02*
X12975899Y6581951D01*
X12591659Y6125869D02*
X13011819Y6546029D01*
X12302772Y6663540D02*
X12836259Y6130053D01*
X12292080Y6602390D02*
X12756946Y6137524D01*
X11945160Y6054106D02*
X12724452Y6833398D01*
X12632851Y6095218D02*
X13047742Y6510108D01*
X12258323Y6564304D02*
X12706106Y6116522D01*
X11735160Y7302994D02*
X12938969Y6099185D01*
X11824365Y5717785D02*
X12832214Y6725635D01*
X11752523Y5789627D02*
X12760373Y6797477D01*
X11788444Y5753706D02*
X12796294Y6761556D01*
X11896207Y5645943D02*
X12904057Y6653793D01*
X11932128Y5610022D02*
X12939978Y6617871D01*
X11860286Y5681864D02*
X12868137Y6689714D01*
X12849159Y5808632D02*
X12940164Y5899636D01*
X12849159Y5736790D02*
X12983318Y5870947D01*
X12849159Y5664948D02*
X13044189Y5859977D01*
X12849159Y5614257D02*
X12864415Y5599002D01*
X12743723Y6134248D02*
X13094543Y6485069D01*
X12631703Y5903556D02*
X12718840Y5816419D01*
X12078776Y6240957D02*
X12718840Y5600893D01*
X12531724Y5859851D02*
X12718840Y5672735D01*
X12590058Y5873359D02*
X12718840Y5744577D01*
X12085452Y6266240D02*
X12688531Y6869319D01*
X12125160Y6553783D02*
X12539078Y6139866D01*
X12062261Y6544840D02*
X12477248Y6129854D01*
X12204354Y6546431D02*
X12669686Y6081099D01*
X12085559Y6449700D02*
X12433557Y6101703D01*
X12062949Y6400468D02*
X12403359Y6060058D01*
X11860246Y6387645D02*
X11957645Y6290246D01*
X11803845Y6200160D02*
X11993653Y6389967D01*
X12005514Y6386060D02*
X12389851Y6001724D01*
X11875687Y6200160D02*
X11955150Y6279623D01*
X11945160Y6125948D02*
X12023760Y6204548D01*
X11945160Y6197790D02*
X11972346Y6224976D01*
X11904363Y6029840D02*
X11945160D01*
Y6200160D01*
X11892613Y6001559D02*
X11920894Y6029840D01*
X11734840Y6065160D02*
Y6200160D01*
X11846075Y5953925D02*
X11886075Y5993925D01*
X12849159Y5686099D02*
X12938570Y5596690D01*
X12849159Y5392990D02*
Y5517094D01*
Y5582906D02*
Y5875907D01*
X12213100Y5316256D02*
X12718840Y5821997D01*
X12040246Y6207644D02*
X12718840Y5529050D01*
Y5366000D02*
Y5875907D01*
X11945160Y6087204D02*
X12867204Y5165160D01*
X11930682Y6029840D02*
X12795362Y5165160D01*
X11890210Y5998470D02*
X12723520Y5165160D01*
X12849159Y5470573D02*
X12981573Y5338160D01*
X12849159Y5398731D02*
X12909731Y5338160D01*
X12849159Y5449422D02*
X12890009Y5490270D01*
X12849159Y5392990D02*
X12903990Y5338160D01*
X12949002Y5514415D02*
X13125256Y5338160D01*
X12903990D02*
X13125000D01*
X12902098Y5489476D02*
X13053415Y5338160D01*
X12737925Y5319925D02*
X12830925Y5226925D01*
X12493056Y5165160D02*
X12718840Y5390944D01*
X12564898Y5165160D02*
X12729708Y5329970D01*
X12421214Y5165160D02*
X12718840Y5462786D01*
X12147655Y5394495D02*
X12670678Y5917519D01*
X12183576Y5358574D02*
X12707536Y5882535D01*
X12075813Y5466338D02*
X12478945Y5869470D01*
X12111733Y5430416D02*
X12541641Y5860324D01*
X12215160Y5246474D02*
X12718840Y5750155D01*
X12367528Y5255158D02*
X12718840Y5606470D01*
X12315963Y5275435D02*
X12718840Y5678312D01*
X11945160Y6159046D02*
X12718840Y5385366D01*
X12039891Y5502258D02*
X12434782Y5897149D01*
X11968049Y5574101D02*
X12389899Y5995950D01*
X12003970Y5538180D02*
X12404131Y5938341D01*
X11854494Y5962344D02*
X12651678Y5165160D01*
X11809465Y5935531D02*
X12579836Y5165160D01*
X11738314Y5934840D02*
X12507994Y5165160D01*
X12384894Y5200683D02*
X12718840Y5534628D01*
X12213060Y5316409D02*
X12273378Y5256092D01*
X11820160Y5138843D02*
X12019583Y5338266D01*
X11820160Y5067001D02*
X12055504Y5302345D01*
X11783635Y5174160D02*
X11983662Y5374187D01*
X11743049Y5349101D02*
X11875899Y5481950D01*
X11765160Y5299369D02*
X11911820Y5446029D01*
X11765160Y5227527D02*
X11947741Y5410108D01*
X11765160Y5174160D02*
Y5300000D01*
X11700947Y6280000D02*
Y6530000D01*
X11700160Y6240159D02*
X11844603Y6384602D01*
X11700160Y6276044D02*
Y6533956D01*
Y6234840D02*
Y6276044D01*
X11700947Y6403259D02*
X11904046Y6200160D01*
X11700947Y6331417D02*
X11832204Y6200160D01*
X11700160Y6260362D02*
X11760362Y6200160D01*
X11696998Y7484840D02*
X13041728Y6140110D01*
X11697003Y6165160D02*
X11958672Y6426828D01*
X11310160Y6362994D02*
X11507994Y6165160D01*
X11449840Y6234840D02*
Y6276044D01*
X11625156Y7484840D02*
X12981659Y6128337D01*
X11145945Y6239840D02*
X11449840Y5935945D01*
X11217787Y6239840D02*
X11449840Y6007787D01*
X11734840Y6200160D02*
X11945160D01*
X11700160Y6116678D02*
X11734840Y6081998D01*
X11653840Y6234840D02*
X11734840Y6153840D01*
X11700160Y6096475D02*
X11734840Y6131155D01*
X11700160Y6065160D02*
X11734840D01*
X11700160Y5934840D02*
X11800000D01*
X11700160Y6065160D02*
Y6165160D01*
X11449840Y6234840D02*
X11700160D01*
X11449840Y6165160D02*
X11700160D01*
X11481477D02*
X11551157Y6234840D01*
X11510156D02*
X11579836Y6165160D01*
X11581998Y6234840D02*
X11651678Y6165160D01*
X11625161D02*
X11694841Y6234840D01*
X11553319Y6165160D02*
X11622999Y6234840D01*
X11449053Y6280000D02*
Y6493039D01*
X11310160Y6434836D02*
X11449053Y6295943D01*
X11302101Y6299211D02*
X11449840Y6151472D01*
X11267629Y6261840D02*
X11449840Y6079629D01*
X11263322Y6257533D02*
X11292467Y6286678D01*
X11055033D02*
X11084178Y6257533D01*
X10970160Y6228580D02*
X11043783Y6302203D01*
X11015160Y5986212D02*
X11449053Y6420105D01*
X10978582Y6165160D02*
X11077566Y6264144D01*
X10970160Y6184840D02*
Y6339897D01*
X11126790Y6239840D02*
X11220711D01*
X11015160Y6058054D02*
X11196946Y6239840D01*
X11015160Y5934840D02*
Y6165160D01*
X10970160Y6200099D02*
X11005099Y6165160D01*
X10962660D02*
X11015160D01*
X10962660D02*
Y6184840D01*
X11015160Y6129896D02*
X11125127Y6239863D01*
X10982310Y5934840D02*
X11015160D01*
X11005099Y6165160D02*
X11015160Y6155099D01*
X11716602Y5825548D02*
X11838441Y5947387D01*
X11700160Y5880948D02*
X11754052Y5934840D01*
X11700160Y5841990D02*
Y5934840D01*
Y5841990D02*
Y5934840D01*
X11700947Y6475102D02*
X12718840Y5457208D01*
X11700160Y5901152D02*
X12326029Y5275282D01*
X11700160Y5841990D02*
X12196075Y5346075D01*
X11479103Y5834840D02*
X12084840Y5229103D01*
X11588925Y5768925D02*
X12084840Y5273010D01*
X10970160Y6271941D02*
X12084840Y5157261D01*
X11015160Y6155099D02*
X12084840Y5085419D01*
X11015160Y6083257D02*
X12034840Y5063577D01*
X11593930Y5487349D02*
X11732215Y5625635D01*
X11635286Y5456864D02*
X11768136Y5589714D01*
X11671207Y5420943D02*
X11804057Y5553793D01*
X11707128Y5385022D02*
X11839978Y5517872D01*
X11621075Y5471075D02*
X11746075Y5346075D01*
X11471607Y5508711D02*
X11660373Y5697477D01*
X11524898Y5490160D02*
X11696294Y5661556D01*
X11423646Y5532592D02*
X11624452Y5733398D01*
X11523050Y5359840D02*
X11634840Y5248050D01*
X11470606Y5340442D02*
X11634840Y5176208D01*
X11548010Y5359840D02*
X11634840Y5273010D01*
X11152654Y5764495D02*
X11449840Y6061681D01*
X11188576Y5728575D02*
X11449840Y5989839D01*
Y5834840D02*
Y6165160D01*
X11116733Y5800417D02*
X11449840Y6133523D01*
X11260418Y5656732D02*
X11449840Y5846155D01*
X11296339Y5620811D02*
X11510367Y5834840D01*
X11224496Y5692653D02*
X11449840Y5917997D01*
X10973787Y6340156D02*
X11449840Y5864103D01*
X11080812Y5836338D02*
X11479315Y6234840D01*
X11008970Y5908180D02*
X11449053Y6348263D01*
X11044891Y5872259D02*
X11449647Y6277014D01*
X11015160Y6011414D02*
X11536415Y5490160D01*
X11015160Y5939572D02*
X11421739Y5532994D01*
X10982310Y5934840D02*
X11383268Y5533882D01*
X11569840Y5815000D02*
Y5834840D01*
X11488823Y5490160D02*
X11575000D01*
X11449840Y5834840D02*
X11569840D01*
X11550945D02*
X11569840Y5815945D01*
X11430824Y5180560D02*
X11579057Y5328793D01*
X11422122Y5317084D02*
X11579840Y5159366D01*
X11488823Y5359840D02*
X11548010D01*
X11332260Y5584890D02*
X11569840Y5822471D01*
X11368181Y5548969D02*
X11588533Y5769321D01*
X11358982Y5180560D02*
X11538262Y5359840D01*
X10971740Y4865160D02*
X11424085Y5317505D01*
X12708582Y5165160D02*
X12800636Y5257214D01*
X12780425Y5165160D02*
X12836903Y5221638D01*
X12896365Y5207840D02*
X12939047Y5165160D01*
X12924109D02*
X12966789Y5207840D01*
X12852267Y5165160D02*
X12894946Y5207840D01*
X12636740Y5165160D02*
X12764715Y5293135D01*
X12385282Y5216029D02*
X12436152Y5165160D01*
X13040050Y5207840D02*
X13082732Y5165160D01*
X12877000Y5207840D02*
X13125000D01*
X12968208D02*
X13010889Y5165160D01*
X12995950D02*
X13038631Y5207840D01*
X13067793Y5165160D02*
X13110474Y5207840D01*
X13111893D02*
X13154573Y5165160D01*
X12384680Y4929263D02*
X12401032Y4912911D01*
X12279103Y5034840D02*
X12299263Y5014680D01*
X12265160Y5034840D02*
X12312172D01*
X12265160Y4976941D02*
X12401032Y4841069D01*
X12265160Y4865422D02*
X12330961Y4931222D01*
X12215160Y5242467D02*
X12254838Y5202789D01*
X12215160Y5174632D02*
X12254565Y5214037D01*
X12215160Y5165160D02*
Y5300000D01*
Y5170625D02*
X12220625Y5165160D01*
X12215160D02*
X12272173D01*
X12084840Y5065160D02*
Y5100000D01*
Y5273010D01*
X11820160Y4995159D02*
X12084840Y5259839D01*
X12034840Y5065160D02*
X12084840D01*
X11820160Y4933840D02*
Y5174160D01*
Y5134572D02*
X12034840Y4919892D01*
X11812059Y4843373D02*
X12084840Y5116155D01*
X12034840Y4834840D02*
Y5065160D01*
X11820160Y5062730D02*
X12034840Y4848050D01*
X12265160Y5009106D02*
X12290894Y5034840D01*
X12265160Y4937264D02*
X12297646Y4969750D01*
X12265160Y4834840D02*
Y5034840D01*
X12215160Y4834840D02*
X12265160D01*
X12215160Y4815422D02*
X12234578Y4834840D01*
X12215160Y4815160D02*
X12275160D01*
X12215160D02*
Y4834840D01*
X12034840D02*
X12084840D01*
X12024840Y4815160D02*
X12084840D01*
X12034840Y4848050D02*
X12048050Y4834840D01*
X12084840Y4815160D02*
Y4834840D01*
X12071214Y4815160D02*
X12084840Y4828786D01*
X12048050Y4834840D02*
X12067730Y4815160D01*
X12275160Y4679572D02*
X12401032Y4553701D01*
X12275160Y4516211D02*
X12401032Y4642083D01*
X12275160Y4751414D02*
X12401032Y4625543D01*
X12275160Y4588053D02*
X12401032Y4713925D01*
Y4361132D02*
Y4938868D01*
X12275160Y4535888D02*
X12401032Y4410016D01*
X12275160Y4607730D02*
X12401032Y4481858D01*
X12275160Y4731738D02*
X12401032Y4857609D01*
X12263577Y4834840D02*
X12401032Y4697385D01*
X12275160Y4803580D02*
X12401032Y4929451D01*
X12265160Y4905099D02*
X12401032Y4769227D01*
X12275160Y4659895D02*
X12401032Y4785767D01*
X11922081Y4091290D02*
X12401032Y4570241D01*
X12090682Y4504840D02*
X12295151Y4300371D01*
X12234366Y4504840D02*
X12363754Y4375453D01*
X12349127Y4374652D02*
X12401032Y4426557D01*
X12201032Y4091290D02*
X12354420Y4244678D01*
X12162524Y4504840D02*
X12312343Y4355021D01*
X12042513Y4481167D02*
X12316711Y4206969D01*
X11970997Y4480840D02*
X12280790Y4171048D01*
X11993923Y4091290D02*
X12401032Y4498399D01*
X12137607Y4091290D02*
X12311837Y4265520D01*
X12065765Y4091290D02*
X12295348Y4320872D01*
X11867214Y4611160D02*
X12024840Y4768786D01*
Y4624860D02*
Y4815160D01*
X12275160Y4504840D02*
Y4815160D01*
X12263789Y4504840D02*
X12275160Y4516211D01*
X11939056Y4611160D02*
X12024840Y4696944D01*
X11818036Y4777509D02*
X12034840Y4994312D01*
X11798718Y4614506D02*
X12034840Y4850628D01*
X11820160Y4990888D02*
X12024840Y4786208D01*
X11805366Y4933840D02*
X12024840Y4714366D01*
X11800958Y4611160D02*
X12009010D01*
X11835614Y4220349D02*
X12120105Y4504840D01*
X11818032Y4777489D02*
X11984362Y4611160D01*
X11871037Y4183930D02*
X12191947Y4504840D01*
X12090000D02*
X12275160D01*
X11850239Y4091290D02*
X12263789Y4504840D01*
X11899155Y4480840D02*
X12244869Y4135127D01*
X11874177Y4146607D02*
X11929495Y4091290D01*
X11800958Y4480840D02*
X12036000D01*
X11827313D02*
X12208948Y4099206D01*
X11844618Y4104325D02*
X11857653Y4091290D01*
X11765160Y5261415D02*
X12034840Y4991734D01*
X11765160Y5174160D02*
X11820160D01*
X11634840D02*
Y5273010D01*
X11765160Y5189573D02*
X11780572Y5174160D01*
X11783373Y4886529D02*
X12084840Y5187997D01*
X11589840Y4933840D02*
X11627703Y4895977D01*
X11579840Y4943840D02*
X11589840Y4933840D01*
X11505560Y5111612D02*
X11634840Y5240891D01*
X11579840Y5174160D02*
X11634840D01*
X11502667Y5180560D02*
X11614978Y5292872D01*
X11505560Y5018120D02*
X11579840Y4943840D01*
X11482398Y4969440D02*
X11586678Y4865160D01*
X11546477D02*
X11615157Y4933840D01*
X11474635Y4865160D02*
X11579840Y4970365D01*
X11738744Y4913743D02*
X11758841Y4933840D01*
X11733524D02*
X11768966Y4898398D01*
X11669343Y4916183D02*
X11686999Y4933840D01*
X11706511Y4665984D02*
X11722491Y4681964D01*
X11761562Y4649192D02*
X12034840Y4922470D01*
X11798398Y4868966D02*
X12024840Y4642524D01*
X11700155Y4679840D02*
X11714743Y4665252D01*
X11661682Y4933840D02*
X11677489Y4918033D01*
X11579840Y4933840D02*
X11820160D01*
X11573313Y4734840D02*
X11651998Y4656156D01*
X11594346Y4625660D02*
X11656627Y4687941D01*
X11501471Y4734840D02*
X11610328Y4625983D01*
X11505560Y5161804D02*
X11579840Y5087524D01*
X11505560Y5039769D02*
X11579840Y5114049D01*
X11486804Y5180560D02*
X11505560Y5161804D01*
X11579840Y4933840D02*
Y5174160D01*
X11505560Y5089962D02*
X11579840Y5015682D01*
X11505560Y4969440D02*
Y5180560D01*
X11294440D02*
X11505560D01*
X11043582Y4865160D02*
X11294440Y5116018D01*
X11115424Y4865160D02*
X11294440Y5044176D01*
Y4969440D02*
Y5180560D01*
X11402793Y4865160D02*
X11579840Y5042207D01*
X11410556Y4969440D02*
X11514835Y4865160D01*
X11338713Y4969440D02*
X11442993Y4865160D01*
X11357787Y4734840D02*
X11407739Y4684888D01*
X11433198Y4680039D02*
X11487999Y4734840D01*
X11477896Y4652894D02*
X11559841Y4734840D01*
X11358265Y4676948D02*
X11416157Y4734840D01*
X11259109Y4865160D02*
X11363388Y4969440D01*
X11294440D02*
X11505560D01*
X11187266Y4865160D02*
X11294440Y4972333D01*
X11330951Y4865160D02*
X11435231Y4969440D01*
X11285945Y4734840D02*
X11348437Y4672348D01*
X11214103Y4734840D02*
X11310174Y4638769D01*
X11795977Y4727703D02*
X11912520Y4611160D01*
X11757401Y4694437D02*
X11840678Y4611160D01*
X11562870Y4091290D02*
X11952421Y4480840D01*
X11634713Y4091290D02*
X12024263Y4480840D01*
X11525445Y4495340D02*
X11796607Y4224177D01*
X11522503Y4625660D02*
X11613471Y4716627D01*
X11497820Y4625660D02*
X11610041D01*
X11476089Y4495340D02*
X11591041D01*
X11442930Y4330560D02*
X11596808Y4484438D01*
X11505560Y4177664D02*
X11808736Y4480840D01*
X11491028Y4091290D02*
X11880578Y4480840D01*
X11463769Y4485174D02*
X11754325Y4194618D01*
X11659897Y4432730D02*
X12001337Y4091290D01*
X11706555D02*
X11749651Y4134386D01*
X11779983Y4456328D02*
X12145021Y4091290D01*
X11733782Y4430687D02*
X12073179Y4091290D01*
X11778397D02*
X11786070Y4098963D01*
X11411644Y4465457D02*
X11785811Y4091290D01*
X11505560Y4249506D02*
X11683090Y4427036D01*
X11505560Y4321348D02*
X11631494Y4447282D01*
X11505560Y4299698D02*
X11713968Y4091290D01*
X11505560Y4227856D02*
X11642126Y4091290D01*
X11505560Y4156014D02*
X11570284Y4091290D01*
X11429629Y4734840D02*
X11538809Y4625660D01*
X11294440Y4330560D02*
X11505560D01*
X11299246D02*
X11441739Y4473054D01*
X11371088Y4330560D02*
X11535868Y4495340D01*
X11505560Y4119440D02*
Y4330560D01*
X11294440Y4119440D02*
Y4330560D01*
X10998576Y4734840D02*
X11402856Y4330560D01*
X11070418Y4734840D02*
X11474698Y4330560D01*
X11142260Y4734840D02*
X11290457Y4586644D01*
X10926734Y4734840D02*
X11331014Y4330560D01*
X10916291Y4091290D02*
X11322106Y4497105D01*
X10988133Y4091290D02*
X11366804Y4469961D01*
X11059976Y4091290D02*
X11294440Y4325754D01*
X11347344Y4091290D02*
X11375494Y4119440D01*
X11419186Y4091290D02*
X11447336Y4119440D01*
X11470292D02*
X11498442Y4091290D01*
X11398450Y4119440D02*
X11426600Y4091290D01*
X11294440Y4119440D02*
X11505560D01*
X11131818Y4091290D02*
X11294440Y4253912D01*
X11275502Y4091290D02*
X11303652Y4119440D01*
X11326608D02*
X11354758Y4091290D01*
X11203660D02*
X11294440Y4182070D01*
X9911213Y8115160D02*
X10987343Y9191290D01*
X9918706D02*
X10994836Y8115160D01*
X9839370D02*
X10915501Y9191290D01*
X9846864D02*
X10922994Y8115160D01*
X9990548Y9191290D02*
X11066678Y8115160D01*
X10054897D02*
X11131027Y9191290D01*
X9983055Y8115160D02*
X11059185Y9191290D01*
X8984759D02*
X10060889Y8115160D01*
X9049107D02*
X10125237Y9191290D01*
X8912916D02*
X9989047Y8115160D01*
X8977265D02*
X10053395Y9191290D01*
X9120949Y8115160D02*
X10197079Y9191290D01*
X9415811D02*
X10491941Y8115160D01*
X9056601Y9191290D02*
X10132731Y8115160D01*
X10557792D02*
X11633922Y9191290D01*
X10629634Y8115160D02*
X11705764Y9191290D01*
X10485950Y8115160D02*
X11562080Y9191290D01*
X10700000Y8115160D02*
X11215000D01*
X10773318D02*
X11849448Y9191290D01*
X10845160Y8115160D02*
X11921290Y9191290D01*
X10701476Y8115160D02*
X11777606Y9191290D01*
X10134232D02*
X11210363Y8115160D01*
X10198581D02*
X11274711Y9191290D01*
X10062390D02*
X11138521Y8115160D01*
X10126739D02*
X11202869Y9191290D01*
X10342265Y8115160D02*
X11418396Y9191290D01*
X10414107Y8115160D02*
X11490238Y9191290D01*
X10270423Y8115160D02*
X11346553Y9191290D01*
X8618054Y8115160D02*
X9694185Y9191290D01*
X8625548D02*
X9701678Y8115160D01*
X8579895Y8292527D02*
X9478658Y9191290D01*
X8593698Y8234488D02*
X9550500Y9191290D01*
X8697390D02*
X9773520Y8115160D01*
X8761739D02*
X9837869Y9191290D01*
X8689897Y8115160D02*
X9766027Y9191290D01*
X8531077Y8315551D02*
X9406816Y9191290D01*
X8410022D02*
X9486152Y8115160D01*
X8426662Y8282978D02*
X9334974Y9191290D01*
X8426662Y8282978D02*
X9334974Y9191290D01*
X8546212Y8115160D02*
X9622342Y9191290D01*
X8553706D02*
X9629836Y8115160D01*
X8481864Y9191290D02*
X9557994Y8115160D01*
X8769232Y9191290D02*
X9845362Y8115160D01*
X8589205Y8221843D02*
X8695888Y8115160D01*
X8551233Y8187973D02*
X8624046Y8115160D01*
X8841074Y9191290D02*
X9917204Y8115160D01*
X8905423D02*
X9981553Y9191290D01*
X8833581Y8115160D02*
X9909711Y9191290D01*
X8433534Y8233830D02*
X8552204Y8115160D01*
X8474370D02*
X8545512Y8186302D01*
X9552002Y8115160D02*
X10628132Y9191290D01*
X9559495D02*
X10635626Y8115160D01*
X9480160D02*
X10556290Y9191290D01*
X9487653D02*
X10563784Y8115160D01*
X9631338Y9191290D02*
X10707468Y8115160D01*
X9695686D02*
X10771816Y9191290D01*
X9623844Y8115160D02*
X10699974Y9191290D01*
X9264633Y8115160D02*
X10340764Y9191290D01*
X9272127D02*
X10348257Y8115160D01*
X9192791D02*
X10268922Y9191290D01*
X9200285D02*
X10276415Y8115160D01*
X9343969Y9191290D02*
X10420099Y8115160D01*
X9408318D02*
X10484448Y9191290D01*
X9336476Y8115160D02*
X10412606Y9191290D01*
X10780812D02*
X12398798Y7573304D01*
X10852654Y9191290D02*
X12425991Y7617952D01*
X10421601Y9191290D02*
X11955231Y7657660D01*
X10493443Y9191290D02*
X12027073Y7657660D01*
X10565285Y9191290D02*
X13141415Y6615160D01*
X10637127Y9191290D02*
X13213257Y6615160D01*
X10708969Y9191290D02*
X12390573Y7509687D01*
X9767528Y8115160D02*
X10843659Y9191290D01*
X9775022D02*
X10851152Y8115160D01*
X9703180Y9191290D02*
X10779310Y8115160D01*
X10277917Y9191290D02*
X11719047Y7750160D01*
X10349759Y9191290D02*
X11883389Y7657660D01*
X10206075Y9191290D02*
X11647205Y7750160D01*
X9128443Y9191290D02*
X10204573Y8115160D01*
X8682524Y7984840D02*
X8926417Y7740947D01*
X8610682Y7984840D02*
X8854575Y7740947D01*
X8674894D02*
X8918787Y7984840D01*
X8754366D02*
X8998259Y7740947D01*
X8818578D02*
X9062472Y7984840D01*
X8746736Y7740947D02*
X8990629Y7984840D01*
X8569530Y7922952D02*
X8631419Y7984840D01*
X8583941Y7865520D02*
X8703261Y7984840D01*
X8466998D02*
X8507484Y7944354D01*
X8520296Y7945559D02*
X8559577Y7984840D01*
X8538840D02*
X8782733Y7740947D01*
X8603052D02*
X8846945Y7984840D01*
X8531210Y7740947D02*
X8775103Y7984840D01*
X9113577D02*
X9357470Y7740947D01*
X9177789D02*
X9421682Y7984840D01*
X9041735D02*
X9285628Y7740947D01*
X9105947D02*
X9349840Y7984840D01*
X9249631Y7740947D02*
X9493524Y7984840D01*
X9257261D02*
X9501154Y7740947D01*
X9185419Y7984840D02*
X9429312Y7740947D01*
X8890420D02*
X9134314Y7984840D01*
X8898050D02*
X9141944Y7740947D01*
X8826208Y7984840D02*
X9070101Y7740947D01*
X8969892Y7984840D02*
X9213786Y7740947D01*
X9034105D02*
X9277998Y7984840D01*
X8962262Y7740947D02*
X9206156Y7984840D01*
X8065160Y8711739D02*
X8544711Y9191290D01*
X8065160Y8639897D02*
X8616553Y9191290D01*
X8013443Y8803707D02*
X8401026Y9191290D01*
X8049247Y8767668D02*
X8472868Y9191290D01*
X8065160Y8496213D02*
X8760237Y9191290D01*
X8065160Y8424371D02*
X8832079Y9191290D01*
X8065160Y8568055D02*
X8688395Y9191290D01*
X7864465Y9013939D02*
X8041816Y9191290D01*
X7869759Y8947391D02*
X8113658Y9191290D01*
X7814612Y9107771D02*
X7898132Y9191290D01*
X7847246Y9068562D02*
X7969974Y9191290D01*
X7941601Y8875549D02*
X8257342Y9191290D01*
X7977522Y8839628D02*
X8329184Y9191290D01*
X7905680Y8911470D02*
X8185500Y9191290D01*
X7858822Y8958328D02*
X8046075Y8771075D01*
X7870068Y8660332D02*
X7921293Y8711557D01*
X7880797Y8642882D02*
X7934840Y8588840D01*
X7884885Y8566953D02*
X7934840Y8516997D01*
X7890185Y8608607D02*
X7934840Y8653262D01*
X7701032Y9191290D02*
X12401032D01*
X7735303Y8860219D02*
X7934840Y8660682D01*
X7766672Y8866178D02*
X7934840Y8698010D01*
X7785160Y8431739D02*
X7934840Y8581419D01*
X7810823Y8385560D02*
X7934840Y8509577D01*
X7855557Y8524438D02*
X7934840Y8445155D01*
X7768302Y9133303D02*
X7826289Y9191290D01*
X7701299Y9138141D02*
X7754447Y9191290D01*
X7701032Y8706822D02*
X7813530Y8819320D01*
X7701032Y8822648D02*
X7834382Y8689297D01*
X7759956Y8693903D02*
X7849451Y8783399D01*
X7701032Y8750806D02*
X7758453Y8693385D01*
X7701032Y9138096D02*
Y9191290D01*
Y9181858D02*
X7744028Y9138862D01*
X7701032Y8850506D02*
X7711061Y8860535D01*
X7701032Y8778664D02*
X7777609Y8855241D01*
X7701032Y8640353D02*
Y8861905D01*
X7829412Y8691518D02*
X7885372Y8747478D01*
X7850751Y8385560D02*
X7860560Y8375751D01*
X7785160Y8385560D02*
X7860560D01*
X7784435Y8484314D02*
X7801574Y8501454D01*
X7701032Y8678964D02*
X7715938Y8664057D01*
X7785160Y8385560D02*
Y8475000D01*
Y8451151D02*
X7850751Y8385560D01*
X8115160Y8115160D02*
X9191290Y9191290D01*
X8385535Y8313693D02*
X9263132Y9191290D01*
X8065160Y8280687D02*
X8975763Y9191290D01*
X8065160Y8208844D02*
X9047605Y9191290D01*
X8194495D02*
X9270625Y8115160D01*
X8266337Y9191290D02*
X9342467Y8115160D01*
X8122653Y9191290D02*
X9198783Y8115160D01*
X7835285Y9191290D02*
X8911415Y8115160D01*
X7907127Y9191290D02*
X8983257Y8115160D01*
X7763442Y9191290D02*
X8839573Y8115160D01*
X8065160Y8352529D02*
X8903921Y9191290D01*
X8043317Y8115160D02*
X9119448Y9191290D01*
X8050811D02*
X9126941Y8115160D01*
X7978969Y9191290D02*
X9055099Y8115160D01*
X8330686D02*
X8464449Y8248923D01*
X8338179Y9191290D02*
X9414310Y8115160D01*
X8402528D02*
X8487473Y8200105D01*
X8402474Y8193048D02*
X8480362Y8115160D01*
X8059511Y8751537D02*
X8501843Y8309205D01*
X8065160Y8674046D02*
X8467973Y8271233D01*
X7863862Y9019028D02*
X8767730Y8115160D01*
X8007310D02*
X10700000D01*
X8065160Y8458520D02*
X8408520Y8115160D01*
X8065160Y8602204D02*
X8353830Y8313534D01*
X7934840Y8226990D02*
Y8698010D01*
X8065160Y8530362D02*
X8313048Y8282474D01*
X8065160Y8386678D02*
X8336678Y8115160D01*
X8065160Y8314836D02*
X8264836Y8115160D01*
X8065160Y8200000D02*
Y8725000D01*
X7860560Y8375751D02*
X7934840Y8301471D01*
X7860560Y8291613D02*
X7934840Y8365893D01*
X7806127Y8502026D02*
X7934840Y8373313D01*
X7860560Y8363455D02*
X7934840Y8437735D01*
X7860560Y8303909D02*
X7934840Y8229629D01*
X7860560Y8219771D02*
X7934840Y8294051D01*
X7860560Y8152710D02*
Y8385560D01*
X8065160Y8242993D02*
X8192994Y8115160D01*
X8187002D02*
X8306307Y8234465D01*
X8060503Y8175808D02*
X8121151Y8115160D01*
X8258844D02*
X8337022Y8193338D01*
X8258844Y8115160D02*
X8337022Y8193338D01*
X8251471Y7984840D02*
X8295501Y7940810D01*
X7860560Y8232067D02*
X7900238Y8192388D01*
X8007310Y8115160D02*
X8046075Y8153925D01*
X8028310Y8136159D02*
X8049309Y8115160D01*
X7860560Y8152710D02*
X7934840Y8226990D01*
X10857310Y7984840D02*
X11046075Y7796075D01*
X10857310Y7984840D02*
X11188010D01*
X10893839Y7948312D02*
X10930367Y7984840D01*
X10764840Y7750160D02*
X10907690D01*
X10839371D02*
X10873530Y7784319D01*
X10834893Y7484840D02*
X11004573Y7315160D01*
X10767529Y7750160D02*
X10837609Y7820240D01*
X10673010Y7984840D02*
X10907690Y7750160D01*
X10534676Y7641372D02*
X10860889Y7315160D01*
X10622261Y7984840D02*
X10856941Y7750160D01*
X10540947Y7595420D02*
X10801688Y7856162D01*
X10540947Y7164367D02*
X10861419Y7484840D01*
X10540947Y7092525D02*
X10933262Y7484840D01*
X10540947Y7236210D02*
X10789577Y7484840D01*
X10835424Y7315160D02*
X11005104Y7484840D01*
X10857533Y7007389D02*
X10866286Y6998635D01*
X10839840Y6847500D02*
Y6947500D01*
X10764840Y7484840D02*
X11035160D01*
X10764840Y7315160D02*
X11035160D01*
X10764840Y7049840D02*
X10839840D01*
X10766998D02*
X10844831Y6972007D01*
X10540947Y7132207D02*
X10842014Y6831140D01*
X10630830Y6823198D02*
X10841926Y7034294D01*
X10540947Y7204049D02*
X10839840Y6905156D01*
X10550419Y7984840D02*
X10785099Y7750160D01*
X10540947Y7379894D02*
X10764840Y7603787D01*
Y7484840D02*
Y7750160D01*
X10540947Y7451736D02*
X10764840Y7675629D01*
X10540947Y7563259D02*
X10789046Y7315160D01*
X10540947Y7308052D02*
X10764840Y7531945D01*
X10540947Y6840946D02*
Y7600000D01*
X10500586Y7698743D02*
X10729846Y7928004D01*
X10529457Y7655773D02*
X10765767Y7892083D01*
X10511722Y7686495D02*
X10522665Y7670116D01*
X10526449Y7663036D02*
X10533987Y7644837D01*
X10540947Y7523578D02*
X10764840Y7747471D01*
X10540945Y7600008D02*
X10540946Y7609846D01*
X10536317Y7637155D02*
X10540160Y7617835D01*
X10764840Y7049840D02*
Y7315160D01*
X10540947Y6876999D02*
X10764840Y7100892D01*
X10549999Y6840946D02*
X10564773Y6840947D01*
X10540947Y6840946D02*
X10549999D01*
X10575421Y6839631D02*
X10785630Y7049840D01*
X10609423Y6832066D02*
X10636721Y6820758D01*
X10572761Y6840160D02*
X10601741Y6834396D01*
X10540947Y7419575D02*
X10764840Y7195682D01*
X10540947Y7347733D02*
X10764840Y7123840D01*
X10540947Y7491417D02*
X10764840Y7267524D01*
X10540947Y7020683D02*
X10764840Y7244576D01*
X10540947Y6948841D02*
X10764840Y7172734D01*
X10540947Y7275891D02*
X10764840Y7051998D01*
X10842340Y6724919D02*
Y6829977D01*
X10804537Y6687116D02*
X10842340Y6724919D01*
X10883591Y6596012D02*
X10927419Y6639840D01*
X10883591Y6573064D02*
X10950367Y6639840D01*
X10883591Y6396488D02*
Y6596012D01*
X10540947Y7060365D02*
X10842340Y6758971D01*
X10732150Y6708992D02*
X10842340Y6819182D01*
X10674757Y6795283D02*
X10841562Y6962087D01*
X10708219Y6756903D02*
X10839840Y6888524D01*
X10540947Y6988522D02*
X10823445Y6706024D01*
X10740946Y6645945D02*
X10842340Y6747340D01*
X10720458Y6737169D02*
X10783042Y6674586D01*
X10883591Y6574036D02*
X10917440Y6540187D01*
X10883591Y6501222D02*
X10910180Y6527810D01*
X10883591Y6502194D02*
X10904840Y6480945D01*
X10883591Y6429380D02*
X10904840Y6450629D01*
X10883591Y6430352D02*
X10904840Y6409103D01*
X10884919Y6395160D02*
X10905272D01*
X10799840Y6184840D02*
X10842340D01*
X10780964Y6328957D02*
X10799840Y6310081D01*
X10567066Y6459509D02*
X10799840Y6226735D01*
Y6184840D02*
Y6310081D01*
X10624316Y6474101D02*
X10799840Y6298577D01*
X10740946Y6650002D02*
X10740947Y6635228D01*
X10740946Y6644839D02*
X10763272Y6622514D01*
X10734395Y6701740D02*
X10740159Y6672760D01*
X10740945Y6650007D02*
X10740945Y6664771D01*
X10763272Y6371569D02*
Y6630000D01*
X10729518Y6584425D02*
X10763272Y6550671D01*
X10734396Y6598258D02*
X10740160Y6627238D01*
X10674574Y6795466D02*
X10695467Y6774572D01*
X10700558Y6768367D02*
X10716974Y6743800D01*
X10540947Y6916680D02*
X10637167Y6820461D01*
X10643801Y6816974D02*
X10668368Y6800558D01*
X10704761Y6537918D02*
X10763272Y6596429D01*
X10720759Y6563277D02*
X10732066Y6590576D01*
X10720758Y6736720D02*
X10732065Y6709421D01*
X10700559Y6531629D02*
X10716975Y6556197D01*
X10704529Y6537572D02*
X10763272Y6478829D01*
X10674572Y6504531D02*
X10695466Y6525424D01*
X10643799Y6483022D02*
X10668367Y6499438D01*
X10669594Y6500665D02*
X10763272Y6406987D01*
X10609420Y6467932D02*
X10636719Y6479239D01*
X10572757Y6459838D02*
X10601738Y6465601D01*
X10549995Y6459053D02*
X10564769Y6459052D01*
X10540947Y6445946D02*
X10554053Y6459052D01*
X10540947Y6459053D02*
X10549995D01*
X10540947Y6302262D02*
X10763272Y6524587D01*
X10540947Y6230420D02*
X10763272Y6452745D01*
X10540947Y6374104D02*
X10662081Y6495238D01*
X9321473Y7740947D02*
X9565366Y7984840D01*
X8395155D02*
X8464732Y7915264D01*
X8385508Y7882613D02*
X8487735Y7984840D01*
X9393315Y7740947D02*
X9637209Y7984840D01*
X9400945D02*
X9644838Y7740947D01*
X9329103Y7984840D02*
X9572996Y7740947D01*
X8361668Y7930615D02*
X8415892Y7984840D01*
X7850000D02*
X10673010D01*
X8302350Y7943139D02*
X8344050Y7984840D01*
X8323313D02*
X8467744Y7840409D01*
X8107787Y7984840D02*
X8351680Y7740947D01*
X8584354Y7867484D02*
X8710891Y7740947D01*
X8555264Y7824732D02*
X8639049Y7740947D01*
X8480409Y7827744D02*
X8567207Y7740947D01*
X8315683D02*
X8454441Y7879704D01*
X8345053Y7819416D02*
X8423522Y7740947D01*
X8380811Y7855501D02*
X8495365Y7740947D01*
X8459368D02*
X8534480Y7816059D01*
X8387526Y7740947D02*
X8477048Y7830469D01*
X7740947Y7740947D02*
X7984840Y7984840D01*
X7748576D02*
X7992469Y7740947D01*
X7669105D02*
X7912998Y7984840D01*
X7676734D02*
X7920627Y7740947D01*
X7820418Y7984840D02*
X8064312Y7740947D01*
X7884631D02*
X8128524Y7984840D01*
X7812789Y7740947D02*
X8056682Y7984840D01*
X7389366D02*
X7633259Y7740947D01*
X7315160Y7984840D02*
X7850000D01*
X7438154Y7869207D02*
X7553787Y7984840D01*
X7472025Y7831236D02*
X7625629Y7984840D01*
X7533050D02*
X7776943Y7740947D01*
X7604892Y7984840D02*
X7848785Y7740947D01*
X7461208Y7984840D02*
X7705101Y7740947D01*
X8035945Y7984840D02*
X8279838Y7740947D01*
X8179629Y7984840D02*
X8259416Y7905053D01*
X8028315Y7740947D02*
X8272208Y7984840D01*
X8171999Y7740947D02*
X8269385Y7838332D01*
X8243842Y7740947D02*
X8317387Y7814492D01*
X8100157Y7740947D02*
X8256861Y7897650D01*
X7884631Y7740947D02*
X8128524Y7984840D01*
X7956473Y7740947D02*
X8200366Y7984840D01*
X7964103D02*
X8207996Y7740947D01*
X7892261Y7984840D02*
X8136154Y7740947D01*
X10111736Y7740946D02*
X10355630Y7984840D01*
X10119366D02*
X10363260Y7740946D01*
X10039894D02*
X10283788Y7984840D01*
X10047524D02*
X10291418Y7740946D01*
X10191208Y7984840D02*
X10441372Y7734677D01*
X10255420Y7740946D02*
X10499314Y7984840D01*
X10183578Y7740946D02*
X10427472Y7984840D01*
X9831998D02*
X10075891Y7740946D01*
X9896210D02*
X10140103Y7984840D01*
X9760156D02*
X10004049Y7740946D01*
X9824368D02*
X10068261Y7984840D01*
X9968052Y7740946D02*
X10211946Y7984840D01*
X9975682D02*
X10219576Y7740946D01*
X9903840Y7984840D02*
X10147734Y7740946D01*
X10458379Y7728379D02*
X10693925Y7963925D01*
X10470117Y7722665D02*
X10486495Y7711721D01*
X10417836Y7740160D02*
X10437156Y7736318D01*
X10444838Y7733987D02*
X10463037Y7726449D01*
X10478577Y7984840D02*
X10764840Y7698577D01*
X10406735Y7984840D02*
X10764840Y7626735D01*
X10492700Y7706629D02*
X10506629Y7692700D01*
X10327263Y7740946D02*
X10571156Y7984840D01*
X10399105Y7740946D02*
X10642998Y7984840D01*
X7600000Y7740947D02*
X10399999Y7740946D01*
X10334893Y7984840D02*
X10764840Y7554893D01*
X10263051Y7984840D02*
X10932731Y7315160D01*
X10399999Y7740946D02*
X10409848Y7740947D01*
X9608842D02*
X9852735Y7984840D01*
X9680684Y7740947D02*
X9924577Y7984840D01*
X9536999Y7740947D02*
X9780893Y7984840D01*
X9544629D02*
X9788523Y7740946D01*
X9688314Y7984840D02*
X9932207Y7740946D01*
X9752526D02*
X9996419Y7984840D01*
X9616471D02*
X9860365Y7740946D01*
X9465157Y7740947D02*
X9709051Y7984840D01*
X9472787D02*
X9716681Y7740946D01*
X7597262D02*
X7841156Y7984840D01*
X7239494Y7847343D02*
X7461359Y7625478D01*
X6849943Y7137312D02*
X7697471Y7984840D01*
X6908222Y7123749D02*
X7769313Y7984840D01*
X6638051Y7140946D02*
X7481945Y7984840D01*
X7590152Y7740947D02*
X7599998Y7740946D01*
X7562842Y7736317D02*
X7582162Y7740160D01*
X7472468Y7829895D02*
X7565515Y7736848D01*
X7536962Y7726449D02*
X7555161Y7733987D01*
X7513505Y7711721D02*
X7529883Y7722665D01*
X7493371Y7692700D02*
X7507300Y7706629D01*
X7477335Y7670117D02*
X7488279Y7686495D01*
X7461319Y7769202D02*
X7516679Y7713842D01*
X7414110Y7744569D02*
X7481832Y7676847D01*
X7466013Y7644839D02*
X7473551Y7663037D01*
X7459840Y7617837D02*
X7463683Y7637157D01*
X7415684Y6840947D02*
X7459053Y6884316D01*
X7138485Y6840947D02*
X7459053D01*
X7315160Y7934840D02*
Y7984840D01*
Y7961739D02*
X7338261Y7984840D01*
X7265160Y7911739D02*
X7288261Y7934840D01*
X7265160D02*
X7315160D01*
X7317524Y7984840D02*
X7429895Y7872468D01*
X7295682Y7934840D02*
X7369202Y7861319D01*
X7265160Y7900000D02*
Y7934840D01*
X6601032Y7891290D02*
X6669840Y7960098D01*
X6610921Y7901179D02*
X6669840Y7842260D01*
Y7605160D02*
Y7960098D01*
X7264866Y7893814D02*
X7344569Y7814110D01*
X6548968Y7891290D02*
X6669840Y7770418D01*
X7146075Y7753925D02*
X7246075Y7853925D01*
X6864955Y7605160D02*
X6875160D01*
X6850160Y7712266D02*
X6872734Y7734840D01*
X6850160D02*
X7100000D01*
X6850160Y7641591D02*
Y7734840D01*
Y7641591D02*
Y7734840D01*
X6850685Y7640949D02*
X6944576Y7734840D01*
X6599370Y7605160D02*
X6669840Y7675630D01*
X4932264Y8165160D02*
X4958394Y8191290D01*
X4955810D02*
X4981940Y8165160D01*
X4860422D02*
X4886552Y8191290D01*
X4883968D02*
X4910098Y8165160D01*
X5001032Y8191290D02*
X5027162Y8165160D01*
X6646842Y7937100D02*
X6669840Y7914103D01*
X5004106Y8165160D02*
X5015634Y8176688D01*
X4812126Y8191290D02*
X4838256Y8165160D01*
X4834840D02*
X5027162D01*
X4777325Y8082063D02*
X4834840Y8139578D01*
X4777088Y8082643D02*
X4834840Y8024891D01*
X4827999Y7917210D02*
X4845628Y7934840D01*
X4834840D02*
X4851104D01*
X4834840D02*
Y8165160D01*
X6230160Y7891290D02*
X6601032D01*
X6477126D02*
X6669840Y7698576D01*
X6230160Y7738845D02*
X6382605Y7891290D01*
X6230160Y7667003D02*
X6454447Y7891290D01*
X6333442D02*
X6619572Y7605160D01*
X6405284Y7891290D02*
X6669840Y7626734D01*
X6261600Y7891290D02*
X6547730Y7605160D01*
X4797160Y7917210D02*
Y7928160D01*
Y7917210D02*
X4833474D01*
X4787887Y7928160D02*
X4797160Y7918887D01*
X6230160Y7882529D02*
X6238921Y7891290D01*
X6230160Y7810687D02*
X6310763Y7891290D01*
X4833474Y7917210D02*
X4851104Y7934840D01*
X7167652Y7775501D02*
X7459053Y7484100D01*
X7129441Y7741870D02*
X7459053Y7412258D01*
X7203573Y7811423D02*
X7459053Y7555942D01*
X6875160Y7521740D02*
X7088261Y7734840D01*
X6992787D02*
X7459053Y7268573D01*
X6920945Y7734840D02*
X7459053Y7196731D01*
X7064629Y7734840D02*
X7459053Y7340416D01*
X6875160Y7449897D02*
X7410103Y7984840D01*
X6709893Y7140946D02*
X7350793Y7781846D01*
X6875160Y7593582D02*
X7016419Y7734840D01*
X6850160Y7733782D02*
X7459053Y7124889D01*
X6850160Y7661940D02*
X7459053Y7053047D01*
X6781735Y7140946D02*
X7388764Y7747975D01*
X7459053Y7600000D02*
Y7609849D01*
X7205485Y7277328D02*
X7459053Y7530896D01*
X6875160Y7565098D02*
X7157333Y7282925D01*
X6875160Y7493256D02*
X7119404Y7249012D01*
X6958494Y7102179D02*
X7459053Y7602738D01*
Y6840947D02*
Y7600000D01*
X7234767Y7234767D02*
X7459053Y7459053D01*
X6675160Y7465424D02*
X6724840Y7515104D01*
X6875160Y7394840D02*
Y7605160D01*
X6724840Y7394840D02*
Y7589969D01*
X6675160Y7477730D02*
X6724840Y7428050D01*
X6449585Y7599059D02*
X6669840Y7819314D01*
X6527528Y7605160D02*
X6669840Y7747472D01*
X6524840Y7605160D02*
X6669840D01*
X6504854Y7582486D02*
X6524840Y7602472D01*
X6343521Y7564837D02*
X6669840Y7891156D01*
X6524840Y7564899D02*
Y7605160D01*
X6230160Y7635361D02*
X6312344Y7553177D01*
X6225160Y7590161D02*
X6526289Y7891290D01*
X6230160Y7850887D02*
X6490763Y7590284D01*
X6230160Y7599840D02*
Y7891290D01*
Y7779045D02*
X6416120Y7593086D01*
X6225160Y7518318D02*
X6598132Y7891290D01*
X6230160Y7707203D02*
X6372203Y7565160D01*
X6225160Y7435160D02*
Y7599840D01*
X6696734D02*
X6724840Y7571734D01*
X6675160Y7537266D02*
X6724840Y7586946D01*
X6675160Y7599840D02*
X6721628D01*
X6675160Y7394840D02*
Y7599840D01*
Y7549572D02*
X6724840Y7499892D01*
X6225160Y7568519D02*
X6285372Y7508307D01*
X6350000Y7565160D02*
X6375387D01*
X6225160Y7446476D02*
X6285163Y7506479D01*
X6285686Y7435160D02*
X6304189Y7453663D01*
X6225160Y7496677D02*
X6286677Y7435160D01*
X4744949Y8121529D02*
X4814710Y8191290D01*
X4740283D02*
X4834840Y8096734D01*
X4668441Y8191290D02*
X4730643Y8129088D01*
X4687138Y8135560D02*
X4742868Y8191290D01*
X4768220Y8001116D02*
X4834840Y8067736D01*
X4201032Y8191290D02*
X5001032D01*
X4588000Y8135560D02*
X4698000D01*
X4596599Y8191290D02*
X4652329Y8135560D01*
X4615296D02*
X4671026Y8191290D01*
X4775063Y8012827D02*
X4834840Y7953049D01*
X4662510Y7928160D02*
X4797160D01*
X4679765Y7964440D02*
X4716045Y7928160D01*
X4767106D02*
X4834840Y7995894D01*
X4740376Y7975671D02*
X4787887Y7928160D01*
X4695264D02*
X4746884Y7979780D01*
X4637498Y7964440D02*
X4698000D01*
X4648800Y7953538D02*
X4659702Y7964440D01*
X4602840Y7787840D02*
Y7798160D01*
X4452915Y8191290D02*
X4530682Y8113523D01*
X4524757Y8191290D02*
X4580791Y8135256D01*
X4256085Y8135560D02*
X4311815Y8191290D01*
X4313116Y8120749D02*
X4383657Y8191290D01*
X4381073D02*
X4504356Y8068007D01*
X4309231Y8191290D02*
X4541883Y7958638D01*
X4344875Y8080666D02*
X4455500Y8191290D01*
X4201032Y8152349D02*
X4239973Y8191290D01*
X4201032Y8135560D02*
X4265000D01*
X4201032D02*
Y8191290D01*
Y8155805D02*
X4221277Y8135560D01*
X4201032Y7864980D02*
X4527342Y8191290D01*
X4201032Y7793138D02*
X4599184Y8191290D01*
X4237389D02*
X4301114Y8127565D01*
X4594327Y7834352D02*
X4602840Y7825839D01*
X4342564Y8086114D02*
X4520352Y7908327D01*
X4602840Y7798160D02*
Y7835009D01*
Y7787840D02*
Y7798160D01*
Y7835009D01*
X4201032Y7936822D02*
X4228649Y7964440D01*
X4201032D02*
X4265000D01*
X4602840Y7737840D02*
Y7748160D01*
Y7737840D02*
Y7748160D01*
Y7787840D01*
Y7748160D02*
Y7787840D01*
Y7598160D02*
Y7637840D01*
Y7548160D02*
Y7587840D01*
Y7737840D02*
Y7748160D01*
X4201032Y7940279D02*
X4602840Y7538471D01*
X4201032Y7868436D02*
X4602840Y7466628D01*
X4342687Y8014150D02*
X4602840Y7753997D01*
Y7787840D02*
Y7798160D01*
X4201032Y7290243D02*
X4602840Y7692051D01*
X4254191Y7271560D02*
X4602840Y7620209D01*
X4201032Y7362085D02*
X4602840Y7763893D01*
Y7487840D02*
Y7498160D01*
Y7487840D02*
Y7498160D01*
Y7537840D01*
Y7498160D02*
Y7537840D01*
Y7448160D02*
Y7487840D01*
Y7448160D02*
Y7487840D01*
Y7498160D01*
Y7537840D02*
Y7548160D01*
Y7537840D02*
Y7548160D01*
Y7587840D01*
X4311980Y7257508D02*
X4602840Y7548367D01*
X4344340Y7218025D02*
X4602840Y7476525D01*
Y7537840D02*
Y7548160D01*
Y7687840D02*
Y7698160D01*
Y7687840D02*
Y7698160D01*
Y7737840D01*
Y7698160D02*
Y7737840D01*
X4308608Y7976387D02*
X4602840Y7682155D01*
X4248713Y7964440D02*
X4602840Y7610313D01*
X4201032Y7724752D02*
X4543548Y7382236D01*
X4201032Y7649454D02*
X4534671Y7983093D01*
X4201032Y7505770D02*
X4546462Y7851199D01*
X4201032Y7721296D02*
X4505843Y8026108D01*
X4201032Y7577612D02*
X4520958Y7897538D01*
X4201032Y7433927D02*
X4602004Y7834900D01*
X4201032Y7796594D02*
X4596029Y7401597D01*
X4201032Y7271560D02*
Y7964440D01*
X4602840Y7637840D02*
Y7648160D01*
Y7598160D02*
Y7637840D01*
Y7648160D01*
Y7637840D02*
Y7648160D01*
Y7587840D02*
Y7598160D01*
Y7587840D02*
Y7598160D01*
Y7587840D02*
Y7598160D01*
Y7648160D02*
Y7687840D01*
Y7648160D02*
Y7687840D01*
Y7698160D01*
X4201032Y7652910D02*
X4520477Y7333465D01*
X4201032Y7581068D02*
X4531685Y7250414D01*
X4201032Y7509226D02*
X4504704Y7205554D01*
X6616990Y7394840D02*
X6675160D01*
X6724840D02*
X6875160D01*
X6546075Y7323925D02*
X6616990Y7394840D01*
X6566209Y7140946D02*
X6820103Y7394840D01*
X6579757Y7357607D02*
X6796417Y7140946D01*
X6543781Y7321740D02*
X6724575Y7140946D01*
X6350682D02*
X6516772Y7307036D01*
X6225160Y7435160D02*
X6343550D01*
X6201470Y7304840D02*
X6365365Y7140946D01*
X6422524D02*
X6724840Y7443261D01*
X6494366Y7140946D02*
X6748261Y7394840D01*
X6135156Y7140946D02*
X6299050Y7304840D01*
X6799990Y7140946D02*
X6819653Y7140946D01*
X6488839Y7304840D02*
X6652733Y7140946D01*
X6278840D02*
X6442735Y7304840D01*
X6020000D02*
X6500000D01*
X6206998Y7140946D02*
X6370893Y7304840D01*
X6273312D02*
X6437207Y7140946D01*
X6416997Y7304840D02*
X6580891Y7140946D01*
X5599994Y7140946D02*
X6799990Y7140946D01*
X6345154Y7304840D02*
X6509049Y7140946D01*
X6057786Y7304840D02*
X6221680Y7140946D01*
X6129628Y7304840D02*
X6293523Y7140946D01*
X5990368Y7284171D02*
Y7304840D01*
X6020000D01*
X5991471Y7140946D02*
X6155366Y7304840D01*
X6063314Y7140946D02*
X6227208Y7304840D01*
X5990368Y7300416D02*
X6149839Y7140946D01*
X5704103D02*
X5847328Y7284171D01*
X5775945Y7140946D02*
X5919170Y7284171D01*
X5740947Y7200000D02*
Y7284171D01*
Y7249632D02*
X5775486Y7284171D01*
X5847787Y7140946D02*
X6011682Y7304840D01*
X5919629Y7140946D02*
X6083524Y7304840D01*
X5791087Y7284171D02*
X5934312Y7140946D01*
X5740947Y7284171D02*
X5990368D01*
X5739392Y7192182D02*
X5790628Y7140946D01*
X5737830Y7184330D02*
X5740947Y7200000D01*
X5728954Y7171046D02*
X5737830Y7184330D01*
X5862929Y7284171D02*
X6006154Y7140946D01*
X5934771Y7284171D02*
X6077996Y7140946D01*
X5740947Y7262469D02*
X5862470Y7140946D01*
X5715670Y7162170D02*
X5728954Y7171046D01*
X5700000Y7159053D02*
X5715670Y7162170D01*
X5628836Y7159053D02*
X5646944Y7140946D01*
X5700566Y7159166D02*
X5718786Y7140946D01*
X5632261D02*
X5650368Y7159053D01*
X5580331Y7140945D02*
X5599990Y7140945D01*
X7102175Y6958491D02*
X7459053Y7315369D01*
X7102175Y6958491D02*
X7459053Y7315369D01*
X7074351Y7002509D02*
X7459053Y7387211D01*
X7232926Y7207333D02*
X7459053Y6981205D01*
X7123743Y6908217D02*
X7459053Y7243527D01*
X7137302Y6849933D02*
X7459053Y7171685D01*
X7199012Y7169404D02*
X7459053Y6909363D01*
X7002511Y7074353D02*
X7122673Y7194515D01*
X7041080Y7041080D02*
X7165233Y7165233D01*
X6675160Y7405887D02*
X7020492Y7060556D01*
X6953435Y7105099D02*
X6987492Y7085436D01*
X6875160Y7421414D02*
X7455627Y6840947D01*
X6829892Y7394840D02*
X7383785Y6840947D01*
X6758050Y7394840D02*
X7311943Y6840947D01*
X7132374Y6876831D02*
X7168258Y6840947D01*
X7135451Y6863995D02*
X7138485Y6840947D01*
X7107458Y6948639D02*
X7122506Y6912306D01*
X7124228Y6907235D02*
X7134406Y6869249D01*
X7271999Y6840947D02*
X7459053Y7028001D01*
X7343842Y6840947D02*
X7459053Y6956159D01*
X7200157Y6840947D02*
X7459053Y7099843D01*
X7020492Y7060556D02*
X7060544Y7020503D01*
X7027172Y7054988D02*
X7054979Y7027181D01*
X6991946Y7082460D02*
X7023145Y7058520D01*
X7060544Y7020503D02*
X7240101Y6840947D01*
X7085426Y6987501D02*
X7105089Y6953443D01*
X7058511Y7023154D02*
X7082450Y6991954D01*
X5557806Y7138333D02*
X5578526Y7159053D01*
X6824999Y7140596D02*
X6863988Y7135463D01*
X5556994Y7159053D02*
X5575485Y7140562D01*
X5535998Y7135462D02*
X5574986Y7140595D01*
X6615678Y7393528D02*
X6876818Y7132388D01*
X6869241Y7134418D02*
X6907227Y7124239D01*
X5492759Y7124239D02*
X5530744Y7134417D01*
X5457747Y7110116D02*
X5506684Y7159053D01*
X5485152D02*
X5514217Y7129989D01*
X5341468Y7159053D02*
X5414136Y7086385D01*
X5413310Y7159053D02*
X5460929Y7111434D01*
X5197783Y7159053D02*
X5338092Y7018745D01*
X5269625Y7159053D02*
X5373339Y7055340D01*
X5125941Y7159053D02*
X5308313Y6976682D01*
X6912299Y7122518D02*
X6948631Y7107468D01*
X5451356Y7107469D02*
X5487688Y7122517D01*
X5412495Y7085437D02*
X5446552Y7105100D01*
X5376843Y7058522D02*
X5408042Y7082461D01*
X5345009Y7027183D02*
X5372816Y7054990D01*
X5317537Y6991958D02*
X5341477Y7023156D01*
X5294899Y6953448D02*
X5314562Y6987504D01*
X5277481Y6912312D02*
X5292530Y6948644D01*
X5265581Y6869255D02*
X5275759Y6907240D01*
X5259403Y6825013D02*
X5264536Y6864002D01*
X5259053Y6800006D02*
X5259053Y6200000D01*
Y6187688D02*
Y6200000D01*
X5259053Y6800006D02*
Y6819668D01*
X4919868Y7336132D02*
X4959053Y7375317D01*
X4934365Y7350629D02*
X4959053Y7325941D01*
Y7200000D02*
Y7375317D01*
X4822520Y7318790D02*
X5266949Y6874361D01*
X4892547Y7320605D02*
X4959053Y7254099D01*
X4797160Y7311634D02*
X4804316Y7318790D01*
X4797160D02*
X4878000D01*
X4797160Y7307840D02*
Y7318790D01*
X4771629Y7142419D02*
X4959053Y7329843D01*
X4776770Y7219403D02*
X4876158Y7318790D01*
X4685244Y7271560D02*
X4721523Y7307840D01*
X4962170Y7184330D02*
X4971046Y7171046D01*
X4984330Y7162170D01*
X4743797Y7258271D02*
X4793366Y7307840D01*
X4959053Y7200000D02*
X4962170Y7184330D01*
X5054099Y7159053D02*
X5284323Y6928830D01*
X5000000Y7159053D02*
X5700000D01*
X4984330Y7162170D02*
X5000000Y7159053D01*
X4662510Y7307840D02*
X4797160D01*
X4689786D02*
X4734015Y7263611D01*
X4637498Y7271560D02*
X4698000D01*
X4588000Y7100440D02*
X4698000D01*
X4602840Y7437840D02*
Y7448160D01*
Y7400991D02*
Y7437840D01*
Y7448160D01*
Y7437840D02*
Y7448160D01*
X4646235Y7279549D02*
X4654224Y7271560D01*
X4602840Y7400991D02*
Y7437840D01*
X4201032Y7293699D02*
X4223171Y7271560D01*
X4201032D02*
X4265000D01*
X4335097Y7136940D02*
X4520633Y7322476D01*
X4201032Y6931033D02*
X4544709Y7274710D01*
X4201032Y7365542D02*
X4304871Y7261702D01*
X4201032Y7100440D02*
X4265000D01*
X4201032Y6859190D02*
X4505428Y7163587D01*
X4201032Y7002875D02*
X4314060Y7115903D01*
X4201032Y7074717D02*
X4226755Y7100440D01*
X4761628Y7307840D02*
X5259053Y6810415D01*
X4775610Y7222016D02*
X5259053Y6738573D01*
X4503580Y6515160D02*
X5147474Y7159053D01*
X4575422Y6515160D02*
X5219316Y7159053D01*
X4670160Y6466213D02*
X5363000Y7159053D01*
X4670160Y6394371D02*
X5434842Y7159053D01*
X4647265Y6515160D02*
X5291158Y7159053D01*
X4201032Y7437384D02*
X5259053Y6379362D01*
X4431738Y6515160D02*
X5075631Y7159053D01*
X4201032Y6499980D02*
X4959053Y7258001D01*
X4201032Y6428138D02*
X4961349Y7188456D01*
X4340702Y7225872D02*
X5259053Y6307520D01*
X4343276Y7151455D02*
X5259053Y6235678D01*
X4201032Y6356296D02*
X5003789Y7159053D01*
X4925548Y6506075D02*
X5261665Y6842192D01*
X5019440Y6384440D02*
X5259053Y6624054D01*
X4970573Y6479258D02*
X5259053Y6767738D01*
X5002517Y6439360D02*
X5259053Y6695896D01*
X4994648Y6287806D02*
X5259053Y6552211D01*
X4940160Y6233318D02*
X4957194Y6250352D01*
X4741574Y7112367D02*
X5259053Y6594889D01*
X4681660Y7100440D02*
X5259053Y6523047D01*
X4775670Y7150114D02*
X5259053Y6666731D01*
X4609818Y7100440D02*
X5259053Y6451204D01*
X4862228Y6514597D02*
X5289882Y6942251D01*
X4250607Y7100440D02*
X4840136Y6510911D01*
X4201032Y6862647D02*
X4548518Y6515160D01*
X4201032Y6790805D02*
X4476676Y6515160D01*
X4201032Y6718962D02*
X4404834Y6515160D01*
X4309789Y7113100D02*
X4912714Y6510175D01*
X4201032Y6575278D02*
X4379840Y6396470D01*
X4201032Y6647120D02*
X4379840Y6468312D01*
X4201032Y6571822D02*
X4741581Y7112371D01*
X4201032Y6643664D02*
X4657808Y7100440D01*
X4201032Y6787348D02*
X4533624Y7119941D01*
X4201032Y6715506D02*
X4585989Y7100464D01*
X4201032Y7078173D02*
X4790894Y6488311D01*
X4201032Y7006331D02*
X4755278Y6452085D01*
X4201032Y6934489D02*
X4620361Y6515160D01*
X4670160Y6393518D02*
X4736211Y6327468D01*
X4670160Y6250687D02*
X4738925Y6319452D01*
X4670160Y6465360D02*
X4733431Y6402089D01*
X4670160Y6322529D02*
X4730403Y6382772D01*
X4670160Y6224840D02*
Y6515160D01*
X4590160Y6224840D02*
X4670160D01*
X4379840D02*
X4459840D01*
X4379840Y6515160D02*
X4670160D01*
X4201032Y6284454D02*
X4379840Y6463262D01*
X4201032Y6503436D02*
X4379840Y6324628D01*
Y6224840D02*
Y6515160D01*
X4201032Y6212611D02*
X4379840Y6391420D01*
X4201032Y6431594D02*
X4379840Y6252786D01*
X10842340Y6165160D02*
Y6184840D01*
X10834898Y6165160D02*
X10842340Y6172603D01*
X10540947Y6341943D02*
X10784840Y6098050D01*
Y6165160D02*
X10842340D01*
X10784840Y5934840D02*
Y6165160D01*
Y5954366D02*
X10804366Y5934840D01*
X10540947Y6270101D02*
X10784840Y6026208D01*
X10540947Y6014893D02*
X10799840Y6273787D01*
X10540947Y5943051D02*
X10799840Y6201944D01*
X10540947Y6413785D02*
X10789572Y6165160D01*
X10540947Y6198259D02*
X10784840Y5954366D01*
X10540947Y6126417D02*
X10814760Y5852604D01*
X10529436Y5644172D02*
X10820104Y5934840D01*
X10540946Y5871209D02*
X10784840Y6115102D01*
X10894154Y5793364D02*
X10916820Y5816030D01*
X10901479Y5728846D02*
X10952741Y5780109D01*
X10862013Y5833065D02*
X10880899Y5851951D01*
X10865160Y5548843D02*
X11024583Y5708266D01*
X10865160Y5477001D02*
X11060504Y5672345D01*
X10865160Y5620685D02*
X10988662Y5744187D01*
X10804366Y5934840D02*
X10840288Y5898918D01*
X10784840Y5934840D02*
X10834840D01*
Y5925000D02*
Y5934840D01*
X10810257Y5853151D02*
X10845855Y5888749D01*
X10540947Y6158577D02*
X10763272Y6380902D01*
X10540947Y6086735D02*
X10782066Y6327855D01*
X10540947Y6054575D02*
X10753086Y5842436D01*
X10540947Y5982733D02*
X10714732Y5808947D01*
X10540947Y5695365D02*
X10734840Y5501471D01*
X10580818Y5551870D02*
X10716935Y5687987D01*
X10540947Y5910891D02*
X10696479Y5755359D01*
X10540946Y5799367D02*
X10784840Y6043260D01*
X10540946Y5727524D02*
X10784840Y5971418D01*
X10540946Y5700002D02*
X10540947Y6459053D01*
X10540946Y5700002D02*
X10540947Y5690153D01*
X10540946Y5839049D02*
X10734840Y5645155D01*
X10540946Y5767207D02*
X10734840Y5573313D01*
X10536318Y5662843D02*
X10540160Y5682163D01*
X10526759Y5637710D02*
X10611443Y5553026D01*
X10644441Y5543650D02*
X10734840Y5634050D01*
X10526450Y5636962D02*
X10533988Y5655161D01*
X10511722Y5613504D02*
X10522666Y5629883D01*
X10683736Y5511104D02*
X10734840Y5562208D01*
X10703285Y5458810D02*
X10734840Y5490365D01*
X10495978Y5596648D02*
X10551182Y5541445D01*
X10492700Y5593370D02*
X10506629Y5607299D01*
X10470116Y5577334D02*
X10486495Y5588278D01*
X10444837Y5566012D02*
X10463036Y5573550D01*
X10451863Y5568922D02*
X10513564Y5507221D01*
X10417836Y5559839D02*
X10437156Y5563682D01*
X10399997Y5559053D02*
X10409846Y5559053D01*
X10902604Y5764760D02*
X11486804Y5180560D01*
X10892436Y5703086D02*
X11414962Y5180560D01*
X10865160Y5658520D02*
X11343120Y5180560D01*
X10865160Y5405159D02*
X11096425Y5636424D01*
X10865160Y5514836D02*
X11294440Y5085555D01*
X10865160Y5442993D02*
X11294440Y5013713D01*
X10865160Y5586678D02*
X11294440Y5157398D01*
X10853925Y5878925D02*
X11291118Y5441732D01*
X10468845Y4865160D02*
X11168267Y5564582D01*
X10865160Y5400000D02*
Y5669380D01*
X10397003Y4865160D02*
X11132346Y5600503D01*
X10612529Y4865160D02*
X11240110Y5492740D01*
X10684372Y4865160D02*
X11276031Y5456819D01*
X10540687Y4865160D02*
X11204188Y5528661D01*
X10828056Y4865160D02*
X11316289Y5353393D01*
X10792389Y5300239D02*
X11227467Y4865160D01*
X10860503Y5375808D02*
X11371151Y4865160D01*
X10899898D02*
X11357928Y5323190D01*
X10828310Y5336160D02*
X11299309Y4865160D01*
X10684625Y5192475D02*
X11011941Y4865160D01*
X10648704Y5156554D02*
X10940099Y4865160D01*
X10646075Y5153925D02*
X10846075Y5353925D01*
X10756214Y4865160D02*
X11292408Y5401354D01*
X10756467Y5264317D02*
X11155625Y4865160D01*
X10720547Y5228396D02*
X11083783Y4865160D01*
X10734840Y5426990D02*
Y5669380D01*
X10703026Y5461443D02*
X10734840Y5429629D01*
X10389890Y5559053D02*
X10496372Y5452571D01*
X10322266Y5365160D02*
X10696849Y5739743D01*
X10394108Y5365160D02*
X10498130Y5469182D01*
X10174363Y5559053D02*
X10368256Y5365160D01*
X10318047Y5559053D02*
X10485891Y5391209D01*
X10102521Y5559053D02*
X10296414Y5365160D01*
X10106740D02*
X10300633Y5559053D01*
X10250424Y5365160D02*
X10455828Y5570564D01*
X10246205Y5559053D02*
X10440098Y5365160D01*
X10178582D02*
X10372475Y5559053D01*
X10691445Y5401182D02*
X10700238Y5392389D01*
X10657221Y5363564D02*
X10664317Y5356468D01*
X10615071Y5331136D02*
Y5347442D01*
Y5333871D02*
X10628396Y5320547D01*
X10606253Y5298404D02*
X10734840Y5426990D01*
X10465950Y5365160D02*
X10484950Y5384160D01*
X10484751Y5365160D02*
Y5379075D01*
X9713434Y5402907D02*
X9869580Y5559053D01*
X9749960Y5367590D02*
X9941422Y5559053D01*
X9653845Y5415160D02*
X9797738Y5559053D01*
X9671468D02*
X9865362Y5365160D01*
X9815153Y5559053D02*
X10009046Y5365160D01*
X9819371D02*
X10013264Y5559053D01*
X9743310D02*
X9937204Y5365160D01*
X9455942Y5559053D02*
X9599835Y5415160D01*
X9510161D02*
X9654054Y5559053D01*
X9384100D02*
X9527993Y5415160D01*
X9438318D02*
X9582212Y5559053D01*
X9582003Y5415160D02*
X9725896Y5559053D01*
X9599626D02*
X9793519Y5365160D01*
X9527784Y5559053D02*
X9671677Y5415160D01*
X9958837Y5559053D02*
X10152730Y5365160D01*
X9774600D02*
X10484751D01*
X9886995Y5559053D02*
X10080888Y5365160D01*
X9891213D02*
X10085107Y5559053D01*
X10030679D02*
X10224572Y5365160D01*
X10034898D02*
X10228791Y5559053D01*
X9963056Y5365160D02*
X10156949Y5559053D01*
X8033097D02*
X10399997D01*
X9126990Y5415160D02*
X9675400D01*
X9721475Y5396075D02*
X9755311Y5362239D01*
X9067128Y5475022D02*
X9151159Y5559053D01*
X9103049Y5439101D02*
X9223001Y5559053D01*
X8963582Y5515160D02*
X9007475Y5559053D01*
X9028742Y5508478D02*
X9079317Y5559053D01*
X9096731D02*
X9240625Y5415160D01*
X9150950D02*
X9294843Y5559053D01*
X9024889D02*
X9168783Y5415160D01*
X8809363Y5559053D02*
X8853256Y5515160D01*
X8819897D02*
X8863791Y5559053D01*
X8737521D02*
X8781414Y5515160D01*
X8748055D02*
X8791948Y5559053D01*
X8891739Y5515160D02*
X8935633Y5559053D01*
X8953047D02*
X8996940Y5515160D01*
X8881205Y5559053D02*
X8925098Y5515160D01*
X9222792Y5415160D02*
X9366685Y5559053D01*
X9240416D02*
X9384309Y5415160D01*
X9168573Y5559053D02*
X9312467Y5415160D01*
X9046075Y5496075D02*
X9126990Y5415160D01*
X9312258Y5559053D02*
X9456151Y5415160D01*
X9366476D02*
X9510370Y5559053D01*
X9294634Y5415160D02*
X9438527Y5559053D01*
X8076990Y5515160D02*
X9000000D01*
X8917266Y5325160D02*
X8974978Y5382872D01*
X8989108Y5325160D02*
X9010899Y5346951D01*
X8050000Y5384840D02*
X8973010D01*
X9370944Y5284840D02*
X9486817Y5168967D01*
X9442787Y5284840D02*
X9522738Y5204888D01*
X9299102Y5284840D02*
X9450896Y5133046D01*
X9155418Y5284840D02*
X9379054Y5061204D01*
X9227260Y5284840D02*
X9414975Y5097125D01*
X9080630Y5287786D02*
X9343133Y5025283D01*
X9005160Y5291414D02*
X9307212Y4989362D01*
X9005160Y4982001D02*
X9307999Y5284840D01*
X9005160Y5125686D02*
X9164314Y5284840D01*
X9005160Y5053844D02*
X9236157Y5284840D01*
X9005160Y4838317D02*
X9451683Y5284840D01*
X9005160Y4766475D02*
X9523525Y5284840D01*
X9005160Y4910159D02*
X9379841Y5284840D01*
X9648410D02*
X9668090Y5265160D01*
X9610000D02*
X9668090D01*
X9586471Y5284840D02*
X9606258Y5265052D01*
X9647529Y5265160D02*
X9657809Y5275440D01*
X9514629Y5284840D02*
X9558659Y5240809D01*
X9100000Y5284840D02*
X9648410D01*
X9005160Y5219572D02*
X9271291Y4953441D01*
X8998050Y5154840D02*
X9235370Y4917520D01*
X9075687Y4765160D02*
X9595367Y5284840D01*
X9015160Y4417264D02*
X9732736Y5134840D01*
X9083010Y4765160D02*
X9563925Y5246075D01*
X8973010Y5384840D02*
X9053925Y5303925D01*
X8845424Y5325160D02*
X8905104Y5384840D01*
X8911734D02*
X8971414Y5325160D01*
X9005160Y5269370D02*
X9046820Y5311030D01*
X9005160Y5197528D02*
X9092864Y5285232D01*
X9005160Y5154840D02*
Y5325160D01*
X8839892Y5384840D02*
X8899572Y5325160D01*
X8794840D02*
X9005160D01*
X8696207Y5384840D02*
X8765888Y5315160D01*
X8768050Y5384840D02*
X8827730Y5325160D01*
X8763581Y5315160D02*
X8833262Y5384840D01*
X8794840Y5315160D02*
Y5325160D01*
X8765160Y5315160D02*
X8794840D01*
X8870950Y5135160D02*
X8890630Y5154840D01*
X8794840Y5135160D02*
X9005160D01*
X8799108D02*
X8818788Y5154840D01*
X8854366D02*
X8874045Y5135160D01*
X8942792D02*
X8962472Y5154840D01*
X9005160Y4975160D02*
Y5135160D01*
X8926208Y5154840D02*
X8945887Y5135160D01*
X8765160Y5184840D02*
X8794840D01*
Y5154840D02*
Y5184840D01*
X8765160Y5173054D02*
X8776946Y5184840D01*
X8765160Y5172203D02*
X8802203Y5135160D01*
X8794840Y5154840D02*
X9005160D01*
X8794840Y4975160D02*
Y5135160D01*
X10325161Y4865160D02*
X10594841Y5134840D01*
X10383050D02*
X10652730Y4865160D01*
X10253319D02*
X10522999Y5134840D01*
X10311208D02*
X10580888Y4865160D01*
X10526734Y5134840D02*
X10796414Y4865160D01*
X10598576Y5134840D02*
X10868256Y4865160D01*
X10454892Y5134840D02*
X10724572Y4865160D01*
X10109635D02*
X10379315Y5134840D01*
X9636990D02*
X10600000D01*
X10037792Y4865160D02*
X10307473Y5134840D01*
X10095681D02*
X10365362Y4865160D01*
X10181477D02*
X10451157Y5134840D01*
X10239366D02*
X10509046Y4865160D01*
X10167523Y5134840D02*
X10437204Y4865160D01*
X10803630Y4553365D02*
X10985105Y4734840D01*
X10834316Y4512210D02*
X11056947Y4734840D01*
X10854892D02*
X11294440Y4295292D01*
X9500000Y4865160D02*
X11599042D01*
X9526990Y4734840D02*
X11599042D01*
X10495681D02*
X10716166Y4514355D01*
X10567523Y4734840D02*
X10748104Y4554260D01*
X10016487Y4269117D02*
X10482210Y4734840D01*
X9958911Y4283384D02*
X10410368Y4734840D01*
X9880155Y5134840D02*
X10149835Y4865160D01*
X9894108D02*
X10163788Y5134840D01*
X9808313D02*
X10077993Y4865160D01*
X9822266D02*
X10091946Y5134840D01*
X9965950Y4865160D02*
X10235631Y5134840D01*
X10023839D02*
X10293519Y4865160D01*
X9951997Y5134840D02*
X10221677Y4865160D01*
X9606740D02*
X9876420Y5134840D01*
X9664629D02*
X9934309Y4865160D01*
X9534898D02*
X9804578Y5134840D01*
X9614889Y5112738D02*
X9862467Y4865160D01*
X9736471Y5134840D02*
X10006151Y4865160D01*
X9750424D02*
X10020104Y5134840D01*
X9678582Y4865160D02*
X9948262Y5134840D01*
X9578967Y5076817D02*
X9790625Y4865160D01*
X9543046Y5040896D02*
X9718782Y4865160D01*
X9507125Y5004975D02*
X9646940Y4865160D01*
X9471204Y4969054D02*
X9575098Y4865160D01*
X9508441Y4716291D02*
X9946368Y4278364D01*
X9472520Y4680370D02*
X9915683Y4237207D01*
X9435283Y4933133D02*
X9503256Y4865160D01*
X9399362Y4897212D02*
X9452212Y4844362D01*
X9363441Y4861291D02*
X9416291Y4808441D01*
X9327520Y4825370D02*
X9380370Y4772520D01*
X9291599Y4789449D02*
X9344449Y4736599D01*
X10208313Y4734840D02*
X10851863Y4091290D01*
X10269712D02*
X10913262Y4734840D01*
X10136471D02*
X10780021Y4091290D01*
X10197870D02*
X10841420Y4734840D01*
X10351997D02*
X10995547Y4091290D01*
X10423839Y4734840D02*
X11067389Y4091290D01*
X10280155Y4734840D02*
X10923705Y4091290D01*
X9982344D02*
X10625894Y4734840D01*
X9992786D02*
X10636337Y4091290D01*
X10034829Y4215617D02*
X10554052Y4734840D01*
X9920944D02*
X10564494Y4091290D01*
X10064629Y4734840D02*
X10708179Y4091290D01*
X10126028D02*
X10769578Y4734840D01*
X10054186Y4091290D02*
X10697736Y4734840D01*
X10700765Y4091290D02*
X11344315Y4734840D01*
X10772607Y4091290D02*
X11298052Y4616735D01*
X10783050Y4734840D02*
X11294440Y4223450D01*
X10711208Y4734840D02*
X11294440Y4151608D01*
X10844449Y4091290D02*
X11294961Y4541802D01*
X10829260Y4473104D02*
X11211074Y4091290D01*
X10789355Y4441166D02*
X11139231Y4091290D01*
X10485239D02*
X11128789Y4734840D01*
X10413396Y4091290D02*
X10762790Y4440684D01*
X10341554Y4091290D02*
X10721635Y4471371D01*
X10628923Y4091290D02*
X11272473Y4734840D01*
X10639366D02*
X11282916Y4091290D01*
X10557081D02*
X11200631Y4734840D01*
X9633576D02*
X10277126Y4091290D01*
X9694975D02*
X10338525Y4734840D01*
X9561734D02*
X10205284Y4091290D01*
X9623133D02*
X10266683Y4734840D01*
X9777260D02*
X10420810Y4091290D01*
X9849102Y4734840D02*
X10492652Y4091290D01*
X9705418Y4734840D02*
X10348968Y4091290D01*
X9335765D02*
X9979315Y4734840D01*
X9407607Y4091290D02*
X10051157Y4734840D01*
X9263923Y4091290D02*
X9907473Y4734840D01*
X9400678Y4608528D02*
X9917915Y4091290D01*
X9479449D02*
X10122999Y4734840D01*
X9551291Y4091290D02*
X10194841Y4734840D01*
X9436599Y4644449D02*
X9989758Y4091290D01*
X10028364Y4196368D02*
X10133442Y4091290D01*
X9987207Y4165683D02*
X10061600Y4091290D01*
X9364757Y4572607D02*
X9846073Y4091290D01*
X9328836Y4536686D02*
X9774231Y4091290D01*
X9292915Y4500764D02*
X9702389Y4091290D01*
X9838660D02*
X9930883Y4183513D01*
X9910502Y4091290D02*
X9984383Y4165172D01*
X9766817Y4091290D02*
X9916616Y4241089D01*
X9005160Y4824840D02*
Y4964840D01*
Y4932203D02*
X9127607Y4809757D01*
X9005160Y4964840D02*
Y4975160D01*
Y4964840D02*
Y4975160D01*
X9156075Y4653925D02*
X9636990Y5134840D01*
X9005160Y4860361D02*
X9091686Y4773836D01*
X9005160Y4765160D02*
Y4775160D01*
Y5075887D02*
X9199449Y4881599D01*
X9005160Y5004045D02*
X9163528Y4845678D01*
X8991683Y4824840D02*
X9005160Y4838317D01*
X8794840Y4824840D02*
X9005160D01*
X8968839D02*
X9028519Y4765160D01*
X8794840Y4775160D02*
X9005160D01*
X8942003D02*
X8991683Y4824840D01*
X9255678Y4753528D02*
X9308528Y4700678D01*
X9219757Y4717607D02*
X9272607Y4664757D01*
X9183836Y4681686D02*
X9236686Y4628836D01*
X9147186Y4646493D02*
X9200764Y4592915D01*
X9086997Y4634840D02*
X9164843Y4556994D01*
X9005160Y4765160D02*
X9083010D01*
X9005160Y4634840D02*
X9110000D01*
X9005160Y4624840D02*
Y4634840D01*
X8965160Y4624840D02*
X9005160D01*
X8997529Y4615160D02*
X9017209Y4634840D01*
X9015160Y4560949D02*
X9089051Y4634840D01*
X8965160Y4615160D02*
X9015160D01*
X8758839Y5034840D02*
X8794840Y4998839D01*
Y4964840D02*
Y4975160D01*
X8765160Y5101212D02*
X8794840Y5130892D01*
X8765160Y5100361D02*
X8794840Y5070681D01*
X8686997Y5034840D02*
X8794840Y4926997D01*
Y4824840D02*
Y4964840D01*
Y4975160D01*
X8415160Y5091150D02*
X8794840Y4711471D01*
X8543313Y5034840D02*
X8802993Y4775160D01*
X8484840Y5034840D02*
X8765160D01*
X8615155D02*
X8794840Y4855155D01*
X8288970Y4553180D02*
X8794840Y5059050D01*
X8399629Y5034840D02*
X8794840Y4639629D01*
X8415160Y4947466D02*
X8784840Y4577786D01*
X8870161Y4775160D02*
X8919841Y4824840D01*
X8896997D02*
X8946677Y4775160D01*
X8798319D02*
X8847999Y4824840D01*
X8825155D02*
X8874835Y4775160D01*
X8834840Y4615160D02*
Y4624840D01*
X8965160Y4615160D02*
Y4624840D01*
X8809629D02*
X8819308Y4615160D01*
X8794840Y4639629D02*
X8809629Y4624840D01*
X8794840D02*
X8834840D01*
X8794840D02*
Y4775160D01*
X8643791Y4548790D02*
X8794840Y4699839D01*
X8784840Y4615160D02*
X8834840D01*
X8587520Y4564361D02*
X8794840Y4771681D01*
X9048396Y4091290D02*
X9691946Y4734840D01*
X9120238Y4091290D02*
X9763788Y4734840D01*
X9046075Y4253925D02*
X9526990Y4734840D01*
X9015160Y4491151D02*
X9057080Y4449230D01*
X9192080Y4091290D02*
X9835631Y4734840D01*
X9256994Y4464843D02*
X9630547Y4091290D01*
X9221072Y4428922D02*
X9558705Y4091290D01*
X9015160Y4489107D02*
X9660894Y5134840D01*
X9015160Y4407310D02*
X9453925Y4846075D01*
X9015155Y4634840D02*
X9128922Y4521072D01*
X9015160Y4562993D02*
X9093001Y4485152D01*
X8904712Y4091290D02*
X9548262Y4734840D01*
X8976554Y4091290D02*
X9620104Y4734840D01*
X9015160Y4407310D02*
Y4615160D01*
X9077388Y4285238D02*
X9271336Y4091290D01*
X9041236Y4249548D02*
X9199494Y4091290D01*
X9015160Y4419308D02*
X9021159Y4413309D01*
X9185152Y4393001D02*
X9486863Y4091290D01*
X9149230Y4357080D02*
X9415021Y4091290D01*
X9113309Y4321159D02*
X9343178Y4091290D01*
X8992690Y4384840D02*
X9015160Y4407310D01*
X8450000Y4234840D02*
X9000000D01*
X8984102D02*
X9127652Y4091290D01*
X7901032D02*
X12201032D01*
X8912260Y4234840D02*
X9055810Y4091290D01*
X8665547Y4498704D02*
X8794840Y4627997D01*
X8747529Y4365160D02*
X8784840Y4402471D01*
Y4384840D02*
Y4615160D01*
X8675687Y4365160D02*
X8784840Y4474313D01*
X8834102Y4384840D02*
X8853782Y4365160D01*
X8891213D02*
X8910893Y4384840D01*
X8819371Y4365160D02*
X8839051Y4384840D01*
X8360812Y4481338D02*
X8794840Y4915366D01*
X8396733Y4445417D02*
X8794840Y4843523D01*
X8324891Y4517259D02*
X8794840Y4987208D01*
X8415160Y4875624D02*
X8784840Y4505944D01*
X8415160Y4803782D02*
X8784840Y4434102D01*
X8603845Y4365160D02*
X8784840Y4546155D01*
X8663481Y4483619D02*
X8781940Y4365160D01*
X8977786Y4384840D02*
X8985238Y4377388D01*
X8784840Y4384840D02*
X8992690D01*
X8905944D02*
X8925624Y4365160D01*
X8963055D02*
X8982735Y4384840D01*
X8973010Y4365160D02*
X8992690Y4384840D01*
X8840418Y4234840D02*
X8983968Y4091290D01*
X8832870D02*
X8976420Y4234840D01*
X8476990Y4365160D02*
X8973010D01*
X8689186Y4091290D02*
X8832736Y4234840D01*
X8624891D02*
X8768441Y4091290D01*
X8761028D02*
X8904578Y4234840D01*
X8768576D02*
X8912126Y4091290D01*
X8696733Y4234840D02*
X8840284Y4091290D01*
X6235944Y5689840D02*
X6250624Y5675160D01*
X6249897D02*
X6264577Y5689840D01*
X6164102D02*
X6178782Y5675160D01*
X6178055D02*
X6192735Y5689840D01*
X6379628D02*
X6394308Y5675160D01*
X6393581D02*
X6408261Y5689840D01*
X6315160Y5668581D02*
X6336419Y5689840D01*
X6034370Y5675160D02*
X6049050Y5689840D01*
X6092260D02*
X6106940Y5675160D01*
X5670160Y5689840D02*
X5719840D01*
X6020417D02*
X6035097Y5675160D01*
X5930160Y5674840D02*
Y5689840D01*
X6106213Y5675160D02*
X6120893Y5689840D01*
X5719840Y5674840D02*
Y5689840D01*
X6595154D02*
X6609834Y5675160D01*
X6609107D02*
X6623787Y5689840D01*
X6523312D02*
X6537992Y5675160D01*
X6537265D02*
X6551945Y5689840D01*
X6680950Y5675160D02*
X6695629Y5689840D01*
X6810681D02*
X6846907Y5653614D01*
X6666997Y5689840D02*
X6681677Y5675160D01*
X5930160Y5689840D02*
X7118010D01*
X6384840Y5675160D02*
X6715160D01*
X6451470Y5689840D02*
X6466150Y5675160D01*
X5984840D02*
X6315160D01*
X6465423D02*
X6480103Y5689840D01*
X6384840Y5666419D02*
X6393581Y5675160D01*
X5719840Y5674840D02*
X5930160D01*
X5589107Y6020160D02*
X5603000Y6034053D01*
X5676204D02*
X5684840Y6025417D01*
X5517265Y6020160D02*
X5531158Y6034053D01*
X5532520D02*
X5546413Y6020160D01*
X5660949D02*
X5674842Y6034053D01*
X5684840Y6010160D02*
Y6034053D01*
X5604362D02*
X5618255Y6020160D01*
X5450818Y6025555D02*
X5459316Y6034053D01*
X5412688D02*
X5684840D01*
X5350121Y6051396D02*
X5372869Y6041974D01*
X5380551Y6039644D02*
X5404700Y6034840D01*
X5460678Y6034053D02*
X5473545Y6021186D01*
X5383914Y6038975D02*
X5410537Y6012352D01*
X5670160Y6010160D02*
Y6020160D01*
Y6010160D02*
X5684840D01*
X5489840Y6020160D02*
X5670160D01*
Y5679840D02*
Y5689840D01*
X5508375Y5679840D02*
X5670160D01*
X5514984Y5658669D02*
X5536155Y5679840D01*
X5489840Y6012066D02*
Y6020160D01*
X5350423Y5925160D02*
X5384445Y5959182D01*
X6954365Y5689840D02*
X7329045Y5315160D01*
X6944713Y5507870D02*
X7122346Y5685504D01*
X6919798Y5626640D02*
X6982998Y5689840D01*
X6948200Y5583200D02*
X7054840Y5689840D01*
X7098049D02*
X7472730Y5315160D01*
X7118010Y5689840D02*
X7492690Y5315160D01*
X7026207Y5689840D02*
X7400887Y5315160D01*
X6738839Y5689840D02*
X6792457Y5636222D01*
X6872504Y5651188D02*
X6911156Y5689840D01*
X5948575D02*
X5984840Y5653575D01*
X6715160Y5637528D02*
X6767472Y5689840D01*
X6764634Y5615160D02*
X6839314Y5689840D01*
X6882523D02*
X7257203Y5315160D01*
X6307786Y5689840D02*
X6384840Y5612786D01*
X6715160Y5615160D02*
X6769380D01*
X6715160D02*
Y5675160D01*
Y5641677D02*
X6741677Y5615160D01*
X6823844Y5315160D02*
X7158267Y5649583D01*
X6895686Y5315160D02*
X7194188Y5613662D01*
X6384840Y5465160D02*
Y5675160D01*
X5984840Y5610160D02*
Y5675160D01*
X5969370Y5610160D02*
X5984840Y5625630D01*
X5930160Y5610160D02*
X5984840D01*
X6315160Y5596739D02*
X6384840Y5666419D01*
X6315160Y5610624D02*
X6384840Y5540944D01*
X6315160Y5465160D02*
Y5675160D01*
X5768844Y5625160D02*
X5818524Y5674840D01*
X5768844Y5625160D02*
X5818524Y5674840D01*
X5670160Y5680887D02*
X5725887Y5625160D01*
X5748049Y5674840D02*
X5797729Y5625160D01*
X5912528D02*
X5977208Y5689840D01*
X5819891Y5674840D02*
X5869571Y5625160D01*
X5682002Y5610160D02*
X5746682Y5674840D01*
X5527523Y5679840D02*
X5587202Y5620160D01*
X5332791D02*
X5390800Y5678169D01*
X5620160Y5620160D02*
X5689840Y5689840D01*
X5599365Y5679840D02*
X5659045Y5620160D01*
X5548318D02*
X5607997Y5679840D01*
X5840686Y5625160D02*
X5890366Y5674840D01*
X5719840Y5625160D02*
X5930160D01*
X5670160Y5610160D02*
Y5620160D01*
Y5610160D02*
X5719840D01*
X5891733Y5674840D02*
X5956413Y5610160D01*
X5930160D02*
Y5625160D01*
X5719840Y5610160D02*
Y5625160D01*
X5508376Y5620160D02*
X5670160D01*
X5015175Y6407714D02*
X5263975Y6158914D01*
X5041212Y5975160D02*
X5259053Y6193001D01*
X4969370Y5975160D02*
X5259053Y6264843D01*
X4940160Y5975160D02*
Y6240286D01*
X5015911Y6335136D02*
X5384744Y5966303D01*
X4957085Y6250278D02*
X5242203Y5965160D01*
X4940160Y6195361D02*
X5170360Y5965160D01*
X4940160Y6161476D02*
X5259053Y6480370D01*
X4940160Y6089634D02*
X5259053Y6408527D01*
X4670160Y6321676D02*
X4809840Y6181996D01*
X4670160Y6249834D02*
X4809840Y6110154D01*
X4940160Y6017792D02*
X5259053Y6336685D01*
X4809840Y5975160D02*
Y6240286D01*
X4623312Y6224840D02*
X4809840Y6038312D01*
X5280180Y6118041D02*
X5293860Y6097568D01*
X5298952Y6091363D02*
X5316363Y6073952D01*
X5259840Y6179700D02*
X5264644Y6155551D01*
X5266974Y6147870D02*
X5276396Y6125121D01*
X5322568Y6068860D02*
X5343041Y6055180D01*
X5246739Y5965160D02*
X5339275Y6057697D01*
X5103054Y5965160D02*
X5272477Y6134583D01*
X4940160Y6051676D02*
X5016676Y5975160D01*
X4753844D02*
X4809840Y6031156D01*
X4610159Y5975160D02*
X4809840Y6174841D01*
X4734840Y5975160D02*
X4809840D01*
X4940160Y6123519D02*
X5098518Y5965160D01*
X5065160D02*
Y5975160D01*
X4940160D02*
X5065160D01*
X4590160Y6098845D02*
X4765742Y6274427D01*
X4590160Y6027003D02*
X4805640Y6242483D01*
X4407786Y6224840D02*
X4459840Y6172785D01*
X4590160Y6170687D02*
X4644313Y6224840D01*
X4590160Y5975160D02*
Y6224840D01*
Y6186150D02*
X4801150Y5975160D01*
X4459840D02*
Y6224840D01*
X4201032Y6359752D02*
X4459840Y6100943D01*
X4201032Y6287910D02*
X4459840Y6029101D01*
X4201032Y6140769D02*
X4379840Y6319578D01*
X4201032Y6068927D02*
X4379840Y6247736D01*
X4201032Y5997085D02*
X4428787Y6224840D01*
X4201032Y6216068D02*
X4441939Y5975160D01*
X4201032Y5965160D02*
Y7100440D01*
X4590160Y6042466D02*
X4657466Y5975160D01*
X4590160D02*
X4665160D01*
X4394633D02*
X4459840Y6040367D01*
X4334840Y5975160D02*
X4459840D01*
X4590160Y6114308D02*
X4734840Y5969628D01*
X4657466Y5975160D02*
X4665160Y5967466D01*
X4334840Y5965160D02*
Y5975160D01*
X4201032Y6144225D02*
X4370097Y5975160D01*
X4201032Y6072383D02*
X4308255Y5965160D01*
X4201032Y6000541D02*
X4236413Y5965160D01*
X4240949D02*
X4459840Y6184051D01*
X4312791Y5965160D02*
X4459840Y6112209D01*
X4201032Y5965160D02*
X4334840D01*
X5174896D02*
X5300026Y6090290D01*
X5265160Y5942202D02*
X5282203Y5925160D01*
X5242203Y5965160D02*
X5265160Y5942202D01*
Y5925160D02*
Y5965160D01*
X5278581Y5925160D02*
X5390988Y6037568D01*
X5265160Y5925160D02*
X5394464D01*
X5170240Y5650160D02*
Y5734840D01*
X4993311Y6285894D02*
X5354045Y5925160D01*
X5065160Y5965160D02*
X5265160D01*
X5065160Y5724840D02*
Y5734840D01*
X5170240D01*
X5075423Y5650160D02*
X5160103Y5734840D01*
X5113312D02*
X5170240Y5677912D01*
X4618581Y5265160D02*
X5088261Y5734840D01*
X5300560Y5659771D02*
X5320629Y5679840D01*
X5300560D02*
X5391625D01*
X5051470Y5724840D02*
X5126150Y5650160D01*
X5147265D02*
X5170240Y5673135D01*
X5311996Y5679840D02*
X5371676Y5620160D01*
X5300560D02*
X5391624D01*
X5300560D02*
Y5679840D01*
X4734840Y5724840D02*
X5065160D01*
X5019840Y5650160D02*
X5170240D01*
X4979628Y5724840D02*
X5054308Y5650160D01*
X4835944Y5724840D02*
X5019840Y5540944D01*
X4764101Y5724840D02*
X5019840Y5469102D01*
X4907786Y5724840D02*
X5019840Y5612786D01*
X4734840Y5956156D02*
X4753844Y5975160D01*
X4665160Y5823782D02*
X4734840Y5754101D01*
X4665160Y5895624D02*
X4734840Y5825943D01*
X4665160Y5814634D02*
X4734840Y5884314D01*
Y5724840D02*
Y5975160D01*
X4665160Y5751939D02*
X5019840Y5397259D01*
X4665160Y5742792D02*
X4734840Y5812472D01*
X4665160Y5958318D02*
X4809840Y6102998D01*
X4665160Y5886476D02*
X4734840Y5956156D01*
X4665160Y5967466D02*
X4734840Y5897786D01*
X4647208Y5724840D02*
X4665160Y5742792D01*
Y5724840D02*
Y5975160D01*
X4580160Y5585950D02*
X4734840Y5740630D01*
X4555160Y5650160D02*
Y5724840D01*
X4580160Y5298582D02*
X5006418Y5724840D01*
X4620417D02*
X5019840Y5325417D01*
X4580160Y5442266D02*
X4862734Y5724840D01*
X4580160Y5370424D02*
X4934576Y5724840D01*
X5019840Y5265160D02*
Y5650160D01*
X4580160Y5621413D02*
X4936413Y5265160D01*
X4580160D02*
Y5650160D01*
X4555160Y5724840D02*
X4665160D01*
X4555160Y5650160D02*
X4580160D01*
X4555160Y5704634D02*
X4575366Y5724840D01*
X4580160Y5514108D02*
X4790892Y5724840D01*
X4555160Y5718255D02*
X5008255Y5265160D01*
X4572528Y5650160D02*
X4647208Y5724840D01*
X8604371Y5515160D02*
X8648264Y5559053D01*
X8665679D02*
X8709572Y5515160D01*
X8532529D02*
X8576422Y5559053D01*
X8593837D02*
X8637730Y5515160D01*
X8676213D02*
X8720106Y5559053D01*
X8552523Y5384840D02*
X8622203Y5315160D01*
X8548055D02*
X8617735Y5384840D01*
X8460687Y5515160D02*
X8504580Y5559053D01*
X8521994D02*
X8565888Y5515160D01*
X8450152Y5559053D02*
X8494045Y5515160D01*
X8404371Y5315160D02*
X8474051Y5384840D01*
X8415160Y5254107D02*
X8545893Y5384840D01*
X8480681D02*
X8550361Y5315160D01*
X8408839Y5384840D02*
X8484840Y5308839D01*
X8691739Y5315160D02*
X8761420Y5384840D01*
X8484840Y5315160D02*
X8700000D01*
X8619897D02*
X8689577Y5384840D01*
X8624365D02*
X8694046Y5315160D01*
X8700000D02*
X8765160D01*
Y5034840D02*
Y5184840D01*
X8700000Y5315160D02*
X8765160D01*
X8415160Y5234835D02*
X8484840Y5165155D01*
X8415160Y5110423D02*
X8484840Y5180103D01*
X8415160Y5306677D02*
X8484840Y5236997D01*
X8415160Y5182265D02*
X8484840Y5251945D01*
Y5034840D02*
Y5315160D01*
X8415160Y5038581D02*
X8484840Y5108261D01*
X8415160Y5162992D02*
X8484840Y5093313D01*
X8306468Y5559053D02*
X8350361Y5515160D01*
X8317002D02*
X8360896Y5559053D01*
X8234626D02*
X8278519Y5515160D01*
X8245160D02*
X8289054Y5559053D01*
X8378310D02*
X8422203Y5515160D01*
X8388845D02*
X8432738Y5559053D01*
X8188844Y5315160D02*
X8258525Y5384840D01*
X8101476Y5515160D02*
X8145369Y5559053D01*
X8162784D02*
X8206677Y5515160D01*
X8053312Y5538838D02*
X8073527Y5559053D01*
X8090942D02*
X8134835Y5515160D01*
X8173318D02*
X8217211Y5559053D01*
X8121470Y5384840D02*
X8191151Y5315160D01*
X8053644Y5251802D02*
X8186683Y5384840D01*
X8265155D02*
X8334835Y5315160D01*
X8332529D02*
X8402209Y5384840D01*
X8193313D02*
X8262993Y5315160D01*
X8260687D02*
X8330367Y5384840D01*
X8406677Y5315160D02*
X8415160Y5306677D01*
Y5034840D02*
Y5315160D01*
X8336997Y5384840D02*
X8406677Y5315160D01*
X8134840Y5240160D02*
Y5315160D01*
X8415160D01*
X8113844Y5240160D02*
X8134840Y5261156D01*
Y5034840D02*
Y5109840D01*
Y5034840D02*
X8415160D01*
X8109102Y5109840D02*
X8134840Y5084102D01*
X8415160Y4823054D02*
X8626946Y5034840D01*
X8415160Y4751212D02*
X8698788Y5034840D01*
X8415160Y4731940D02*
X8583620Y4563480D01*
X8432654Y4409496D02*
X8535639Y4512480D01*
X8415160Y4894896D02*
X8555104Y5034840D01*
X8390418Y4684840D02*
X8542952Y4532306D01*
X8413582Y4965160D02*
X8484840Y5036418D01*
X8157310Y4684840D02*
X8476990Y4365160D01*
X8246734Y4684840D02*
X8566414Y4365160D01*
X8318576Y4684840D02*
X8638256Y4365160D01*
X8174891Y4684840D02*
X8494572Y4365160D01*
X8632306Y4442952D02*
X8710098Y4365160D01*
X8532003D02*
X8601295Y4434453D01*
X8553049Y4234840D02*
X8696599Y4091290D01*
X8617343D02*
X8760894Y4234840D01*
X8545501Y4091290D02*
X8689051Y4234840D01*
X8468575Y4373575D02*
X8551210Y4456209D01*
X8329975Y4091290D02*
X8473525Y4234840D01*
X8473659Y4091290D02*
X8617209Y4234840D01*
X8481207D02*
X8624757Y4091290D01*
X8401817D02*
X8545367Y4234840D01*
X8269897Y4965160D02*
X8339577Y5034840D01*
X8327786D02*
X8397466Y4965160D01*
X8198055D02*
X8267735Y5034840D01*
X8255944D02*
X8325624Y4965160D01*
X8397466D02*
X8415160Y4947466D01*
Y4684840D02*
Y4965160D01*
X8341739D02*
X8411419Y5034840D01*
X8184102D02*
X8253782Y4965160D01*
X8134840D02*
X8415160D01*
X8076602Y4915548D02*
X8195893Y5034840D01*
X8101990Y4890160D02*
X8134840D01*
Y4965160D01*
X8082310Y4759840D02*
X8134840D01*
X8123055Y4890160D02*
X8134840Y4901945D01*
X8253049Y4589101D02*
X8348788Y4684840D01*
X8157310D02*
X8415160D01*
X8181207Y4660943D02*
X8205104Y4684840D01*
X8217128Y4625022D02*
X8276946Y4684840D01*
X8258133Y4091290D02*
X8413123Y4246280D01*
X8186291Y4091290D02*
X8376425Y4281425D01*
X8099891Y4759840D02*
X8134840Y4724891D01*
X8082310Y4759840D02*
X8134840Y4707310D01*
X8109365Y4732785D02*
X8134840Y4758261D01*
Y4707310D02*
X8157310Y4684840D01*
X8114449Y4091290D02*
X8340504Y4317345D01*
X8134840Y4707310D02*
Y4759840D01*
X8033097Y5559053D02*
X8076990Y5515160D01*
X7806344Y5484440D02*
X7937840Y5352944D01*
X7609628Y5382522D02*
X7711546Y5484440D01*
X7645549Y5346601D02*
X7783388Y5484440D01*
X7681470Y5310680D02*
X7855230Y5484440D01*
X7734502D02*
X7886787Y5332155D01*
X7662660Y5484440D02*
X7855190Y5291910D01*
X7573707Y5418443D02*
X7639704Y5484440D01*
X7507710D02*
X7923410D01*
X6953614Y5546907D02*
X7185361Y5315160D01*
X7537786Y5454365D02*
X7567861Y5484440D01*
X7039370Y5315160D02*
X7266030Y5541819D01*
X7111213Y5315160D02*
X7301951Y5505899D01*
X6967528Y5315160D02*
X7230109Y5577741D01*
X7923410Y5484440D02*
X8003925Y5403925D01*
X7939436Y5353120D02*
X7997083Y5410767D01*
X8049627Y5384841D02*
X8134840Y5299628D01*
X8036748Y5306747D02*
X8114841Y5384840D01*
X7999329Y5341170D02*
X8043340Y5385182D01*
X7326739Y5315160D02*
X7409714Y5398135D01*
X6726990Y5315160D02*
X7492690D01*
X7183055D02*
X7337872Y5469977D01*
X7254897Y5315160D02*
X7373793Y5434056D01*
X7717391Y5274759D02*
X7925241Y5482609D01*
X7470423Y5315160D02*
X7481557Y5326293D01*
X7398581Y5315160D02*
X7445636Y5362214D01*
X6715160Y5484840D02*
X6769380D01*
X6327265Y5465160D02*
X6384840Y5522735D01*
X6715160Y5424840D02*
Y5484840D01*
X6936222Y5492457D02*
X7113519Y5315160D01*
X6728312Y5484840D02*
X6897993Y5315160D01*
X6667654Y5374496D02*
X6773360Y5480202D01*
X6315160Y5538782D02*
X6384840Y5469102D01*
X6315160Y5465160D02*
X6384840D01*
X6315160Y5524897D02*
X6384840Y5594577D01*
X4580160Y5549571D02*
X4864571Y5265160D01*
X4690423D02*
X5019840Y5594577D01*
X4762265Y5265160D02*
X5019840Y5522735D01*
X4580160Y5477728D02*
X4792729Y5265160D01*
X6703575Y5338575D02*
X6816800Y5451800D01*
X6715160Y5426150D02*
X6826150Y5315160D01*
X6631733Y5410417D02*
X6646156Y5424840D01*
X6644628D02*
X6754308Y5315160D01*
X6898468Y5458369D02*
X7041677Y5315160D01*
X6837952Y5447043D02*
X6969835Y5315160D01*
X6752002D02*
X6892130Y5455288D01*
X6617310Y5424840D02*
X6715160D01*
X6617310D02*
X6726990Y5315160D01*
X4580160Y5334044D02*
X4649045Y5265160D01*
X4905949D02*
X5019840Y5379051D01*
X4977791Y5265160D02*
X5019840Y5307209D01*
X4834107Y5265160D02*
X5019840Y5450893D01*
X8053192Y5240160D02*
X8134840D01*
X8025000Y5109840D02*
X8134840D01*
X7968839Y5023312D02*
X8055367Y5109840D01*
X8037260D02*
X8181940Y4965160D01*
X8040681Y4951470D02*
X8134840Y5045629D01*
X8004759Y4987391D02*
X8127209Y5109840D01*
X7878186Y5484440D02*
X8122467Y5240160D01*
X7926133Y5149125D02*
X8134840Y4940418D01*
X7507710Y5484440D02*
X8101990Y4890160D01*
X7701032Y4956818D02*
X8403925Y4253925D01*
X7701032Y4943173D02*
X8552915Y4091290D01*
X7518976Y5484440D02*
X8113256Y4890160D01*
X7828135Y4164187D02*
X8160899Y4496951D01*
X7864056Y4128266D02*
X8196820Y4461030D01*
X7756293Y4236029D02*
X8089057Y4568793D01*
X7792214Y4200108D02*
X8124978Y4532872D01*
X7970764Y4091290D02*
X8268662Y4389188D01*
X8042606Y4091290D02*
X8304583Y4353267D01*
X7899977Y4092345D02*
X8232741Y4425109D01*
X7701032Y4871331D02*
X8481073Y4091290D01*
X7701032Y4799489D02*
X8409231Y4091290D01*
X7701032Y4727647D02*
X8337389Y4091290D01*
X7701032Y4655805D02*
X8265547Y4091290D01*
X7701032Y4583963D02*
X8193704Y4091290D01*
X7701032Y4512121D02*
X8121862Y4091290D01*
X7960932Y5146918D02*
X7978925Y5128925D01*
X7825154Y5166996D02*
X7858830Y5200671D01*
X7861075Y5131075D02*
X7893253Y5163252D01*
X7932917Y5059233D02*
X7992315Y5118631D01*
X7896996Y5095154D02*
X7948198Y5146356D01*
X7590818Y5484440D02*
X7849125Y5226133D01*
X7753312Y5238838D02*
X7961162Y5446688D01*
X4580160Y5405886D02*
X4720887Y5265160D01*
X4580160D02*
X5019840D01*
X7789233Y5202917D02*
X7846880Y5260564D01*
X7701032Y4899189D02*
X7729846Y4928004D01*
X7701032Y4291290D02*
Y4956818D01*
X7720372Y4271950D02*
X8053136Y4604714D01*
X7701032Y4440278D02*
X8050020Y4091290D01*
X7701032Y4396294D02*
X7981293Y4676556D01*
X7701032Y4324452D02*
X8017215Y4640635D01*
X7701032Y4368436D02*
X7978178Y4091290D01*
X7701032Y4296594D02*
X7906336Y4091290D01*
X7701032Y4291290D02*
X7901032Y4091290D01*
X7701032Y4755505D02*
X7801688Y4856161D01*
X7701032Y4683663D02*
X7837609Y4820240D01*
X7701032Y4827347D02*
X7765767Y4892082D01*
X7701032Y4539979D02*
X7909451Y4748398D01*
X7701032Y4468137D02*
X7945372Y4712477D01*
X7701032Y4611821D02*
X7873530Y4784319D01*
D11*
X10695000Y6290000D02*
D03*
X10885000D02*
D03*
D12*
X11840000Y6305000D02*
D03*
Y6115000D02*
D03*
X11250000Y6535000D02*
D03*
Y6725000D02*
D03*
X8900000Y5240000D02*
D03*
Y5050000D02*
D03*
D13*
X10902500Y6452500D02*
D03*
X10967500D02*
D03*
X11032500D02*
D03*
X11097500D02*
D03*
X10902500Y6897500D02*
D03*
X10967500D02*
D03*
X11032500D02*
D03*
X11097500D02*
D03*
D14*
X5237500Y7600000D02*
D03*
D15*
X5862500Y7830000D02*
D03*
Y7600000D02*
D03*
D16*
Y7370000D02*
D03*
D17*
X16105000Y7125000D02*
D03*
Y6375000D02*
D03*
X16335001D02*
D03*
Y7125000D02*
D03*
D18*
X16014999Y6525000D02*
D03*
Y6975000D02*
D03*
Y6825000D02*
D03*
D19*
X5320000Y5755000D02*
D03*
Y5850000D02*
D03*
Y5945000D02*
D03*
X5580000D02*
D03*
Y5850000D02*
D03*
Y5755000D02*
D03*
X5320000Y5355000D02*
D03*
Y5450000D02*
D03*
Y5545000D02*
D03*
X5580000D02*
D03*
Y5450000D02*
D03*
Y5355000D02*
D03*
D20*
X11480000Y6930000D02*
D03*
X11575000D02*
D03*
X11670000D02*
D03*
Y6670000D02*
D03*
X11575000D02*
D03*
X11480000D02*
D03*
D21*
X6200000Y5950000D02*
D03*
X6000000D02*
D03*
X11850000Y6650000D02*
D03*
X12050000D02*
D03*
X6350000Y7500000D02*
D03*
X6150000D02*
D03*
X6800000D02*
D03*
X6600000D02*
D03*
X13050000Y8200000D02*
D03*
X12850000D02*
D03*
X13350000Y8000000D02*
D03*
X13150000D02*
D03*
X13600000Y7800000D02*
D03*
X13400000D02*
D03*
D22*
X5825000Y5750000D02*
D03*
Y5550000D02*
D03*
X8900000Y4700000D02*
D03*
Y4900000D02*
D03*
X14050000Y6375000D02*
D03*
Y6175000D02*
D03*
X15300000Y6950000D02*
D03*
Y6750000D02*
D03*
X14030000Y5370000D02*
D03*
Y5170000D02*
D03*
X14825000Y6175000D02*
D03*
Y6375000D02*
D03*
X15300000Y6450000D02*
D03*
Y6250000D02*
D03*
X14300000Y6375000D02*
D03*
Y6175000D02*
D03*
X13550000Y6375000D02*
D03*
Y6175000D02*
D03*
X14550000Y6375000D02*
D03*
Y6175000D02*
D03*
D23*
X10900000Y7182500D02*
D03*
Y7617500D02*
D03*
X11600000Y7182500D02*
D03*
Y7617500D02*
D03*
D24*
X4700000Y7593000D02*
D03*
Y7643000D02*
D03*
Y7543000D02*
D03*
Y7693000D02*
D03*
Y7493000D02*
D03*
Y7743000D02*
D03*
Y7443000D02*
D03*
Y7793000D02*
D03*
D25*
Y7938000D02*
D03*
Y7858000D02*
D03*
Y7378000D02*
D03*
Y7298000D02*
D03*
D26*
X12710000Y8200000D02*
D03*
X12500000D02*
D03*
X13005000Y8000000D02*
D03*
X12795000D02*
D03*
X13255000Y7800000D02*
D03*
X13045000D02*
D03*
D27*
X12150000Y4240000D02*
D03*
Y4660000D02*
D03*
D28*
X4900000Y5850000D02*
D03*
X4500000D02*
D03*
X6550000Y5550000D02*
D03*
X6150000D02*
D03*
D29*
X11575000Y6400000D02*
D03*
Y6000000D02*
D03*
D30*
X5110000Y5450000D02*
D03*
X4490000D02*
D03*
X6140000Y7800000D02*
D03*
X6760000D02*
D03*
D31*
X8275000Y4825000D02*
D03*
X8625000Y5175000D02*
D03*
Y4825000D02*
D03*
X8275000Y5175000D02*
D03*
D32*
X14950000Y8000000D02*
Y8100400D01*
Y8000000D02*
X15050400D01*
X14950000Y7899600D02*
Y8000000D01*
X14849600D02*
X14950000D01*
X15324001Y7524000D02*
Y7649400D01*
Y7398600D02*
Y7524000D01*
X15039999Y6880000D02*
X15095399D01*
X15039999D02*
Y6935400D01*
X14984599Y6880000D02*
X15039999D01*
Y6824600D02*
Y6880000D01*
X14289999Y6814600D02*
Y6870000D01*
X14345399D01*
X14289999D02*
Y6925400D01*
X14234599Y6870000D02*
X14289999D01*
X13730000Y6880000D02*
Y6935400D01*
Y6880000D02*
X13785400D01*
X13674600D02*
X13730000D01*
Y6824600D02*
Y6880000D01*
X12020000Y6394600D02*
Y6450000D01*
X12075400D01*
X12020000D02*
Y6505400D01*
X11964600Y6450000D02*
X12020000D01*
X11840000D02*
Y6505400D01*
X11784600Y6450000D02*
X11840000D01*
X11895400D01*
X11840000Y6394600D02*
Y6450000D01*
X11250000Y6900000D02*
X11338900D01*
X15832001Y6000000D02*
Y6125400D01*
Y5874600D02*
Y6000000D01*
X13425000Y5550000D02*
Y5600400D01*
X13374600Y5550000D02*
X13425000D01*
X13475400D01*
X13425000Y5499600D02*
Y5550000D01*
X12020000Y6214600D02*
Y6270000D01*
Y6325400D01*
X11964600Y6270000D02*
X12020000D01*
X12075400D01*
X12900000Y5550000D02*
X12950400D01*
X12900000D02*
Y5600400D01*
Y5499600D02*
Y5550000D01*
X12320000Y5210000D02*
X12375400D01*
X12320000D02*
Y5265400D01*
X12264600Y5210000D02*
X12320000D01*
X12304600Y4990000D02*
X12360000D01*
Y4934600D02*
Y4990000D01*
Y4310000D02*
Y4365400D01*
X12304600Y4310000D02*
X12360000D01*
Y4254600D02*
Y4310000D01*
X11810000Y4160000D02*
X11865400D01*
X11810000D02*
Y4215400D01*
Y4104600D02*
Y4160000D01*
X11400000Y5075000D02*
X11495400D01*
X11400000Y4979600D02*
Y5075000D01*
Y5170400D01*
X11304600Y5075000D02*
X11400000D01*
X11754600Y4160000D02*
X11810000D01*
X11400000Y4129600D02*
Y4225000D01*
X11495400D01*
X11400000D02*
Y4320400D01*
X11304600Y4225000D02*
X11400000D01*
X8530000Y8250000D02*
X8585400D01*
X8530000D02*
Y8305400D01*
Y8194600D02*
Y8250000D01*
X8474600D02*
X8530000D01*
X7791500Y8600000D02*
X7880400D01*
X7791500D02*
Y8688900D01*
Y8511100D02*
Y8600000D01*
X8370000Y8250000D02*
X8425400D01*
X8314600D02*
X8370000D01*
Y8194600D02*
Y8250000D01*
Y8305400D01*
X7725000Y8250000D02*
X7850400D01*
X8320000Y7880000D02*
Y7935400D01*
X8520000Y7824600D02*
Y7880000D01*
X8575400D01*
X8520000D02*
Y7935400D01*
X8464600Y7880000D02*
X8520000D01*
X8320000Y7824600D02*
Y7880000D01*
X8375400D01*
X8264600D02*
X8320000D01*
X7410000Y7810000D02*
X7465400D01*
X7410000D02*
Y7865400D01*
Y7754600D02*
Y7810000D01*
X7354600D02*
X7410000D01*
X6450000Y7500000D02*
Y7588900D01*
X4643000Y8050000D02*
X4773400D01*
X4643000D02*
Y8125400D01*
Y7974600D02*
Y8050000D01*
X4512600D02*
X4643000D01*
X4225000D02*
X4340399D01*
X4225000D02*
Y8125400D01*
Y7974600D02*
Y8050000D01*
X7175000Y7174600D02*
Y7225000D01*
X7225400D01*
X7175000D02*
Y7275400D01*
X7124600Y7225000D02*
X7175000D01*
X4643000Y7186000D02*
X4773400D01*
X4643000D02*
Y7261400D01*
X4512600Y7186000D02*
X4643000D01*
X4225000D02*
X4340399D01*
X4643000Y7110600D02*
Y7186000D01*
X4225000Y7110600D02*
Y7186000D01*
Y7261400D01*
X10775000Y4500000D02*
Y4550400D01*
X10724600Y4500000D02*
X10775000D01*
X10825400D01*
X10775000Y4449600D02*
Y4500000D01*
X9975000Y4174600D02*
Y4225000D01*
X10025400D01*
X9975000D02*
Y4275400D01*
X9924600Y4225000D02*
X9975000D01*
X5450000Y5960000D02*
Y6015400D01*
X5394600Y5960000D02*
X5450000D01*
Y5650000D02*
X5505400D01*
X5394600D02*
X5450000D01*
X8600000Y4500000D02*
Y4555400D01*
Y4444600D02*
Y4500000D01*
X8655400D01*
X8544600D02*
X8600000D01*
X6525400Y6737751D02*
X6626967D01*
X6576183D01*
Y6585400D01*
X6677751Y6737751D02*
Y6585400D01*
Y6661575D01*
X6779318D01*
Y6737751D01*
Y6585400D01*
X6931669Y6737751D02*
X6830101D01*
Y6585400D01*
X6931669D01*
X6830101Y6661575D02*
X6880885D01*
X6982452Y6585400D02*
Y6737751D01*
X7058627D01*
X7084019Y6712359D01*
Y6661575D01*
X7058627Y6636184D01*
X6982452D01*
X7033236D02*
X7084019Y6585400D01*
X7236370Y6737751D02*
X7134803D01*
Y6585400D01*
X7236370D01*
X7134803Y6661575D02*
X7185586D01*
X7439504Y6737751D02*
X7490288D01*
X7464896D01*
Y6585400D01*
X7439504D01*
X7490288D01*
X7668030Y6712359D02*
X7642639Y6737751D01*
X7591855D01*
X7566463Y6712359D01*
Y6686967D01*
X7591855Y6661575D01*
X7642639D01*
X7668030Y6636184D01*
Y6610792D01*
X7642639Y6585400D01*
X7591855D01*
X7566463Y6610792D01*
X7871165Y6585400D02*
Y6686967D01*
X7921948Y6737751D01*
X7972732Y6686967D01*
Y6585400D01*
Y6661575D01*
X7871165D01*
X8277433Y6712359D02*
X8252041Y6737751D01*
X8201258D01*
X8175866Y6712359D01*
Y6610792D01*
X8201258Y6585400D01*
X8252041D01*
X8277433Y6610792D01*
X8328217Y6737751D02*
Y6610792D01*
X8353609Y6585400D01*
X8404392D01*
X8429784Y6610792D01*
Y6737751D01*
X8480567D02*
X8582135D01*
X8531351D01*
Y6585400D01*
X8709094Y6737751D02*
X8658310D01*
X8632918Y6712359D01*
Y6610792D01*
X8658310Y6585400D01*
X8709094D01*
X8734485Y6610792D01*
Y6712359D01*
X8709094Y6737751D01*
X8785269D02*
Y6610792D01*
X8810661Y6585400D01*
X8861444D01*
X8886836Y6610792D01*
Y6737751D01*
X8937620D02*
X9039187D01*
X8988403D01*
Y6585400D01*
X9242321Y6737751D02*
Y6585400D01*
Y6661575D01*
X9343888D01*
Y6737751D01*
Y6585400D01*
X9496239Y6737751D02*
X9394672D01*
Y6585400D01*
X9496239D01*
X9394672Y6661575D02*
X9445455D01*
X9547023Y6585400D02*
Y6737751D01*
X9623198D01*
X9648590Y6712359D01*
Y6661575D01*
X9623198Y6636184D01*
X9547023D01*
X9597806D02*
X9648590Y6585400D01*
X9800941Y6737751D02*
X9699373D01*
Y6585400D01*
X9800941D01*
X9699373Y6661575D02*
X9750157D01*
X16748425Y5045400D02*
X16697641Y5096184D01*
X16748425Y5146967D01*
X16824600Y5299318D02*
Y5197751D01*
X16723033Y5299318D01*
X16697641D01*
X16672249Y5273926D01*
Y5223143D01*
X16697641Y5197751D01*
X16824600Y5502452D02*
X16672249D01*
X16723033Y5553236D01*
X16672249Y5604020D01*
X16824600D01*
X16672249Y5654803D02*
Y5705587D01*
Y5680195D01*
X16824600D01*
Y5654803D01*
Y5705587D01*
X16672249Y5781762D02*
X16824600D01*
Y5883329D01*
X16672249Y5934113D02*
X16824600D01*
Y6035680D01*
X16672249Y6188031D02*
Y6086463D01*
X16824600D01*
Y6188031D01*
X16748425Y6086463D02*
Y6137247D01*
X16672249Y6238814D02*
X16824600D01*
Y6314989D01*
X16799208Y6340381D01*
X16697641D01*
X16672249Y6314989D01*
Y6238814D01*
Y6543515D02*
X16824600D01*
X16748425D01*
Y6645083D01*
X16672249D01*
X16824600D01*
X16672249Y6772042D02*
Y6721258D01*
X16697641Y6695866D01*
X16799208D01*
X16824600Y6721258D01*
Y6772042D01*
X16799208Y6797433D01*
X16697641D01*
X16672249Y6772042D01*
Y6848217D02*
X16824600D01*
Y6949784D01*
X16672249Y7102135D02*
Y7000568D01*
X16824600D01*
Y7102135D01*
X16748425Y7000568D02*
Y7051351D01*
X16697641Y7254486D02*
X16672249Y7229094D01*
Y7178310D01*
X16697641Y7152918D01*
X16723033D01*
X16748425Y7178310D01*
Y7229094D01*
X16773817Y7254486D01*
X16799208D01*
X16824600Y7229094D01*
Y7178310D01*
X16799208Y7152918D01*
X16672249Y7457620D02*
X16824600D01*
X16748425D01*
Y7559187D01*
X16672249D01*
X16824600D01*
X16672249Y7711538D02*
Y7609971D01*
X16824600D01*
Y7711538D01*
X16748425Y7609971D02*
Y7660754D01*
X16824600Y7762321D02*
X16672249D01*
Y7838497D01*
X16697641Y7863889D01*
X16748425D01*
X16773817Y7838497D01*
Y7762321D01*
Y7813105D02*
X16824600Y7863889D01*
X16672249Y8016239D02*
Y7914672D01*
X16824600D01*
Y8016239D01*
X16748425Y7914672D02*
Y7965455D01*
Y8067023D02*
X16697641Y8117806D01*
X16748425Y8168590D01*
D33*
X12057500Y7592500D02*
X13100000Y6550000D01*
X14750000D01*
X14825000Y6475000D01*
Y6375000D02*
Y6475000D01*
X13627060Y5527000D02*
X13800000D01*
X13546001Y5608060D02*
X13627060Y5527000D01*
X14050000Y6175000D02*
X14052000Y6173000D01*
Y6002000D02*
X14053999Y6000000D01*
X14052000Y6002000D02*
Y6173000D01*
X14300000Y6175000D02*
X14303999Y6171000D01*
Y6004000D02*
X14308000Y6000000D01*
X14303999Y6004000D02*
Y6171000D01*
X14556000Y6006000D02*
Y6169000D01*
Y6006000D02*
X14562000Y6000000D01*
X14550000Y6175000D02*
X14556000Y6169000D01*
X14820500Y6170500D02*
X14825000Y6175000D01*
X14816000Y6000000D02*
X14820500Y6004500D01*
Y6170500D01*
X14700000Y5527000D02*
Y5650000D01*
X14562000Y5788000D02*
X14700000Y5650000D01*
X14562000Y5788000D02*
Y6000000D01*
X14025000Y5375000D02*
X14030000Y5370000D01*
X14025000Y5375000D02*
Y5650000D01*
X14053999Y5679000D01*
Y6000000D01*
X14300000Y5800000D02*
Y5992000D01*
X14308000Y6000000D01*
X14250000Y5750000D02*
X14300000Y5800000D01*
X14250000Y5527000D02*
Y5750000D01*
X13600000Y5273000D02*
X14704308D01*
X13546001Y5608060D02*
Y6000000D01*
X14808000Y6008000D02*
X14816000Y6000000D01*
X13960001Y5100000D02*
X14030000Y5170000D01*
X13125000Y5273000D02*
X13600000D01*
X12877000D02*
X13125000D01*
X6200000Y5950000D02*
X7100000D01*
X7500400Y5549600D02*
X7950400D01*
X7100000Y5950000D02*
X7500400Y5549600D01*
X8900000Y4700000D02*
X9110000D01*
X9610000Y5200000D01*
X10600000D01*
X11840000Y6040000D02*
Y6115000D01*
X11800000Y6000000D02*
X11840000Y6040000D01*
X11575000Y6000000D02*
X11800000D01*
X11414500Y4560500D02*
X11685500D01*
X11400000Y4575000D02*
X11414500Y4560500D01*
X11685500D02*
X11700000Y4546000D01*
Y5054001D02*
Y5300000D01*
X11400000Y5425000D02*
X11575000D01*
X11700000Y5300000D01*
X13546001Y6000000D02*
X13548000Y6002000D01*
Y6148000D02*
X13550000Y6150000D01*
X13548000Y6002000D02*
Y6148000D01*
X12784000Y5366000D02*
X12877000Y5273000D01*
X12784000Y5366000D02*
Y6000000D01*
X12150000Y5100000D02*
X13960001D01*
X11700000Y5054000D02*
X11700000Y5054001D01*
X10900000Y5925000D02*
Y6100000D01*
Y5925000D02*
X11400000Y5425000D01*
X13292000Y7524000D02*
X13300000Y7516000D01*
Y7300000D02*
Y7516000D01*
X13038000Y7524000D02*
X13041499Y7527500D01*
Y7796500D01*
X12515000Y7539000D02*
X12530000Y7524000D01*
X12515000Y7539000D02*
Y8185000D01*
X12789500Y7600000D02*
Y7994500D01*
X12784000Y7524000D02*
X12800000Y7540000D01*
Y7600000D01*
X7850000Y8050000D02*
X8000000Y8200000D01*
Y8725000D01*
X7725000Y9000000D02*
X8000000Y8725000D01*
X5580000Y5755000D02*
X7145000D01*
X5580000Y5545000D02*
X6145000D01*
X6150000Y5550000D01*
X11250000Y6770000D02*
Y6900000D01*
X5150000Y5850000D02*
X5320000D01*
X5150000D02*
X5235400Y5764600D01*
X4900000Y5850000D02*
X5150000D01*
X5320000D02*
X5580000D01*
X4875000Y5875000D02*
X4900000Y5850000D01*
X5235400Y5579290D02*
Y5764600D01*
X10600000Y5200000D02*
X10800000Y5400000D01*
Y5750000D01*
X11670000Y6660000D02*
X11680000Y6650000D01*
X11670000Y6660000D02*
Y6670000D01*
X11680000Y6650000D02*
X11850000D01*
X12050001Y6650000D02*
X12200000D01*
X12050000Y6650000D02*
X12050001Y6650000D01*
X9774600Y5300000D02*
X10518776D01*
X10549911Y5331136D01*
X10600000Y5429164D02*
Y5450000D01*
X10549911Y5331136D02*
Y5379075D01*
X10600000Y5429164D01*
X9770710Y5296110D02*
X9774600Y5300000D01*
X9729290Y5296110D02*
X9770710D01*
X13400000Y7200000D02*
X15400000D01*
X15775000Y6825000D01*
X13300000Y7300000D02*
X13400000Y7200000D01*
X11672500Y7592500D02*
X12057500D01*
X15300000Y6600000D02*
Y6750000D01*
Y6450001D02*
Y6600000D01*
Y6450001D02*
X15300000Y6450000D01*
X15775000Y6825000D02*
X16045000D01*
X12150000Y5100000D02*
Y5300000D01*
Y4950000D02*
Y5100000D01*
Y4660000D02*
Y4950000D01*
X13255000Y7800000D02*
X13400000D01*
X13005000Y8000000D02*
X13150000D01*
X12710000Y8200000D02*
X12850000D01*
X12500000D02*
X12515000Y8185000D01*
X12789500Y7994500D02*
X12795000Y8000000D01*
X13041499Y7796500D02*
X13045000Y7800000D01*
X11250000Y6900000D02*
Y7000000D01*
X11200000Y7050000D02*
X11250000Y7000000D01*
X11215000Y8050000D02*
X11672500Y7592500D01*
X10700000Y8050000D02*
X11215000D01*
X10975000Y7592500D02*
X11000000Y7617500D01*
Y7750000D01*
X7850000Y8050000D02*
X10700000D01*
X11000000Y7750000D01*
X9675400Y5350000D02*
X9729290Y5296110D01*
X9100000Y5350000D02*
X9675400D01*
X8900000Y4500000D02*
Y4700000D01*
Y4900000D02*
Y5050000D01*
X8700000Y5250000D02*
X8890000D01*
X8900000Y5240000D01*
X8625000Y5175000D02*
X8700000Y5250000D01*
X9000000Y4300000D02*
X9500000Y4800000D01*
X11700000D01*
X12090000Y4570000D02*
X12150000Y4630000D01*
X12060000Y4570000D02*
X12090000D01*
X12036000Y4546000D02*
X12060000Y4570000D01*
X12150000Y4630000D02*
Y4660000D01*
X11700000Y4546000D02*
X12036000D01*
X11635000Y5815000D02*
X12150000Y5300000D01*
X11575000Y6000000D02*
X11635000Y5940000D01*
Y5815000D02*
Y5940000D01*
X9000000Y5450000D02*
X9100000Y5350000D01*
X8050000Y5450000D02*
X9000000D01*
X8450000Y4300000D02*
X9000000D01*
X7500000Y5250000D02*
X8450000Y4300000D01*
X7950400Y5549600D02*
X8050000Y5450000D01*
X6550000Y5550000D02*
X6850000D01*
X8025000Y5175000D02*
X8275000D01*
X7950000Y5250000D02*
X8025000Y5175000D01*
X8075000Y4825000D02*
X8275000D01*
X6700000Y5250000D02*
X7500000D01*
X6550000Y5400000D02*
X6700000Y5250000D01*
X7145000Y5755000D02*
X8075000Y4825000D01*
X5800000Y5950000D02*
X6000000D01*
X5795000Y5945000D02*
X5800000Y5950000D01*
X5580000Y5945000D02*
X5795000D01*
X5850000Y5400000D02*
X6550000D01*
X5700000Y5250000D02*
X5850000Y5400000D01*
X5670711Y5200000D02*
X5700000Y5229290D01*
Y5250000D01*
X4519290Y5200000D02*
X5670711D01*
X4490000Y5229290D02*
X4519290Y5200000D01*
X4490000Y5229290D02*
Y5450000D01*
X5110000Y5380000D02*
Y5450000D01*
X5135000Y5355000D02*
X5320000D01*
X5110000Y5380000D02*
X5135000Y5355000D01*
X5110000Y5450000D02*
X5320000D01*
X5320000Y5355000D02*
X5580000D01*
X5320000Y5450000D02*
X5580000D01*
X5310400Y5764600D02*
X5320000Y5755000D01*
X5580000D01*
X5264690Y5550000D02*
X5315000D01*
X5235400Y5579290D02*
X5264690Y5550000D01*
X5315000D02*
X5320000Y5545000D01*
X5235400Y5764600D02*
X5310400D01*
X4490000Y5840000D02*
X4500000Y5850000D01*
X4490000Y5450000D02*
Y5840000D01*
X4250000Y5850000D02*
X4500000D01*
X4525000Y5875000D02*
Y6370000D01*
X4500000Y5850000D02*
X4525000Y5875000D01*
X4875000D02*
Y6370000D01*
X6020000Y7370000D02*
X6500000D01*
X6600000Y7470000D01*
X6350000Y7500000D02*
X6450000D01*
X5862500Y7370000D02*
X6020000D01*
X6600000Y7470000D02*
Y7500000D01*
X6800000D02*
Y7600000D01*
X6785000Y7615000D02*
Y7775000D01*
Y7615000D02*
X6800000Y7600000D01*
X6760000Y7800000D02*
X6785000Y7775000D01*
X6100000Y7500000D02*
X6150000D01*
X6050000Y7450000D02*
X6100000Y7500000D01*
X6050000Y7400000D02*
Y7450000D01*
X6020000Y7370000D02*
X6050000Y7400000D01*
X7200000Y8050000D02*
X7850000D01*
X7100000Y7800000D02*
X7200000Y7900000D01*
Y8050000D01*
X6760000Y7800000D02*
X7100000D01*
D34*
X11220711Y6300000D02*
X11250000Y6329290D01*
Y6535000D01*
X11126790Y6300000D02*
X11220711D01*
X10902500Y6100000D02*
Y6292500D01*
X10823431Y6371569D02*
X10902500Y6292500D01*
X10823431Y6630000D02*
X10832500D01*
X10823431Y6371569D02*
Y6630000D01*
X10832500D02*
X10902500Y6700000D01*
X15324001Y6000000D02*
Y6234999D01*
X7716569Y8483432D02*
X7725000Y8475000D01*
X7791500Y8576458D02*
Y8600000D01*
X7716569Y8501527D02*
X7791500Y8576458D01*
X7716569Y8483432D02*
Y8501527D01*
X7725000Y8250000D02*
Y8475000D01*
X15309000Y6250000D02*
X15324001Y6234999D01*
X15300000Y6250000D02*
X15309000D01*
X11055932Y7050000D02*
X11200000D01*
X11032500Y6897500D02*
Y7026569D01*
X11055932Y7050000D01*
X10902500Y6700000D02*
Y6897500D01*
X11074069Y6700000D02*
X11097501Y6723432D01*
Y6897501D01*
X10902500Y6700000D02*
X11074069D01*
X10900000Y7050000D02*
Y7182499D01*
Y7050000D02*
X10966544Y6983456D01*
Y6898457D02*
X10967500Y6897500D01*
X10966544Y6898457D02*
Y6983456D01*
X11097500Y6329290D02*
X11126790Y6300000D01*
X11097500Y6329290D02*
Y6452500D01*
D35*
X4950000Y7950000D02*
Y8050000D01*
X5700000D01*
X4858000Y7858000D02*
X4950000Y7950000D01*
X5700000Y8050000D02*
X5800000Y7950000D01*
X4950000Y7450000D02*
Y7950000D01*
X4700000Y7378000D02*
X4878000D01*
X4950000Y7450000D01*
X6140000Y7690000D02*
Y7800000D01*
X5862500Y7600000D02*
X6050000D01*
X6140000Y7690000D01*
X4700000Y7858000D02*
X4858000D01*
X5977681Y7830000D02*
X6000000Y7852319D01*
Y7927682D01*
X5862500Y7830000D02*
X5977681D01*
Y7950000D02*
X6000000Y7927682D01*
X5800000Y7950000D02*
X5977681D01*
D36*
X16086000Y6000000D02*
D03*
X15832001D02*
D03*
X15578000D02*
D03*
X15324001D02*
D03*
X15070000D02*
D03*
X14816000D02*
D03*
X14562000D02*
D03*
X14308000D02*
D03*
X14053999D02*
D03*
X13800000D02*
D03*
X13546001D02*
D03*
X13292000D02*
D03*
X13038000D02*
D03*
X12784000D02*
D03*
X12530000D02*
D03*
Y7524000D02*
D03*
X12784000D02*
D03*
X13038000D02*
D03*
X13292000D02*
D03*
X13546001D02*
D03*
X13800000D02*
D03*
X14053999D02*
D03*
X14308000D02*
D03*
X14562000D02*
D03*
X14816000D02*
D03*
X15070000D02*
D03*
X15324001D02*
D03*
X15578000D02*
D03*
X15832001D02*
D03*
X7725000Y9000000D02*
D03*
D37*
X16086000Y7524000D02*
D03*
X7725000Y8250000D02*
D03*
D38*
X16220000Y6600000D02*
D03*
Y6900000D02*
D03*
D39*
X14250000Y5273000D02*
D03*
Y5527000D02*
D03*
X13800000Y5273000D02*
D03*
Y5527000D02*
D03*
X14700000Y5273000D02*
D03*
Y5527000D02*
D03*
D40*
X5800000Y5950000D02*
D03*
X5150000Y5850000D02*
D03*
X4250000D02*
D03*
X12150000Y4950000D02*
D03*
X14950000Y8000000D02*
D03*
X7200000Y8050000D02*
D03*
X4950000D02*
D03*
D41*
X10900000Y6050000D02*
D03*
X8900000Y4500000D02*
D03*
D42*
X4875000Y6370000D02*
D03*
D43*
X4525000D02*
D03*
D44*
X11700000Y5054000D02*
D03*
D45*
Y4800000D02*
D03*
Y4546000D02*
D03*
D46*
X4593000Y7329000D02*
D03*
Y7907000D02*
D03*
D47*
X4643000Y8050000D02*
D03*
Y7186000D02*
D03*
D48*
X4225000Y8050000D02*
D03*
Y7186000D02*
D03*
D49*
X11400000Y5075000D02*
D03*
Y4225000D02*
D03*
D50*
Y5425000D02*
D03*
Y4575000D02*
D03*
D51*
X7175000Y7225000D02*
D03*
X10775000Y4500000D02*
D03*
X9975000Y4225000D02*
D03*
X13425000Y5550000D02*
D03*
X12900000D02*
D03*
D52*
X15300000Y6600000D02*
D03*
X7791500Y8600000D02*
D03*
X11250000Y6900000D02*
D03*
X12200000Y6650000D02*
D03*
X10800000Y5750000D02*
D03*
X10600000Y5450000D02*
D03*
X6850000Y5550000D02*
D03*
X7950000Y5250000D02*
D03*
X6450000Y7500000D02*
D03*
D53*
X11100000Y6610000D02*
D03*
X11000000D02*
D03*
X10580000Y6280000D02*
D03*
X15039999Y6880000D02*
D03*
X13730000D02*
D03*
X14289999Y6870000D02*
D03*
X12360000Y4990000D02*
D03*
X12320000Y5210000D02*
D03*
X12360000Y4310000D02*
D03*
X11810000Y4160000D02*
D03*
X5450000Y5560000D02*
D03*
Y5650000D02*
D03*
Y5960000D02*
D03*
X12020000Y6270000D02*
D03*
Y6450000D02*
D03*
X11840000D02*
D03*
X7410000Y7810000D02*
D03*
X8520000Y7880000D02*
D03*
X8530000Y8250000D02*
D03*
X8320000Y7880000D02*
D03*
X8370000Y8250000D02*
D03*
X8600000Y4500000D02*
D03*
X5300000Y7900000D02*
D03*
X5200000D02*
D03*
X5100000D02*
D03*
Y7800000D02*
D03*
Y7700000D02*
D03*
Y7600000D02*
D03*
Y7500000D02*
D03*
Y7400000D02*
D03*
X5300000Y7300000D02*
D03*
X5200000D02*
D03*
X5100000D02*
D03*
%TF.MD5,ae6edf5df420cfb7b3213781d2cd29ec*%
M02*
