%TF.GenerationSoftware,Altium Limited,Altium Designer,21.0.9 (235)*%
G04 Layer_Color=255*
%FSLAX45Y45*%
%MOMM*%
%TF.SameCoordinates,4BE4B6C8-753D-4877-B088-52E4D9ED0B03*%
%TF.FilePolarity,Positive*%
%TF.FileFunction,Pads,Bot*%
%TF.Part,Single*%
G01*
G75*
%TA.AperFunction,ComponentPad*%
%ADD36C,2.00000*%
%ADD37R,2.00000X2.00000*%
%ADD38C,0.90000*%
%ADD39C,1.50000*%
%ADD40R,1.50000X1.50000*%
%ADD41R,1.50000X1.50000*%
%ADD42C,2.10000*%
%ADD43R,2.10000X2.10000*%
%ADD44R,1.60000X1.60000*%
%ADD45C,1.60000*%
%ADD46C,0.65000*%
%ADD47O,2.10000X1.00000*%
%ADD48O,1.80000X1.00000*%
%ADD49R,1.40000X1.40000*%
%ADD50C,1.40000*%
D36*
X16086000Y6000000D02*
D03*
X15832001D02*
D03*
X15578000D02*
D03*
X15324001D02*
D03*
X15070000D02*
D03*
X14816000D02*
D03*
X14562000D02*
D03*
X14308000D02*
D03*
X14053999D02*
D03*
X13800000D02*
D03*
X13546001D02*
D03*
X13292000D02*
D03*
X13038000D02*
D03*
X12784000D02*
D03*
X12530000D02*
D03*
Y7524000D02*
D03*
X12784000D02*
D03*
X13038000D02*
D03*
X13292000D02*
D03*
X13546001D02*
D03*
X13800000D02*
D03*
X14053999D02*
D03*
X14308000D02*
D03*
X14562000D02*
D03*
X14816000D02*
D03*
X15070000D02*
D03*
X15324001D02*
D03*
X15578000D02*
D03*
X15832001D02*
D03*
X7725000Y9000000D02*
D03*
D37*
X16086000Y7524000D02*
D03*
X7725000Y8250000D02*
D03*
D38*
X16220000Y6600000D02*
D03*
Y6900000D02*
D03*
D39*
X14250000Y5273000D02*
D03*
Y5527000D02*
D03*
X13800000Y5273000D02*
D03*
Y5527000D02*
D03*
X14700000Y5273000D02*
D03*
Y5527000D02*
D03*
D40*
X5800000Y5950000D02*
D03*
X5150000Y5850000D02*
D03*
X4250000D02*
D03*
X12150000Y4950000D02*
D03*
X14950000Y8000000D02*
D03*
X7200000Y8050000D02*
D03*
X4950000D02*
D03*
D41*
X10900000Y6050000D02*
D03*
X8900000Y4500000D02*
D03*
D42*
X4875000Y6370000D02*
D03*
D43*
X4525000D02*
D03*
D44*
X11700000Y5054000D02*
D03*
D45*
Y4800000D02*
D03*
Y4546000D02*
D03*
D46*
X4593000Y7329000D02*
D03*
Y7907000D02*
D03*
D47*
X4643000Y8050000D02*
D03*
Y7186000D02*
D03*
D48*
X4225000Y8050000D02*
D03*
Y7186000D02*
D03*
D49*
X11400000Y5075000D02*
D03*
Y4225000D02*
D03*
D50*
Y5425000D02*
D03*
Y4575000D02*
D03*
%TF.MD5,00c9f82fa234051faeb1c75ae8e0f506*%
M02*
