%TF.GenerationSoftware,Altium Limited,Altium Designer,21.0.9 (235)*%
G04 Layer_Color=65535*
%FSLAX45Y45*%
%MOMM*%
%TF.SameCoordinates,4BE4B6C8-753D-4877-B088-52E4D9ED0B03*%
%TF.FilePolarity,Positive*%
%TF.FileFunction,Legend,Top*%
%TF.Part,Single*%
G01*
G75*
%TA.AperFunction,NonConductor*%
%ADD32C,0.25400*%
%ADD72C,0.25000*%
%ADD73C,0.40000*%
%ADD74C,0.20000*%
%ADD75C,0.30000*%
%ADD76R,2.80000X0.23000*%
D32*
X5723423Y5355000D02*
G03*
X5723423Y5355000I-30923J0D01*
G01*
Y5755000D02*
G03*
X5723423Y5755000I-30923J0D01*
G01*
X12100000Y4475000D02*
X12200000D01*
X12100000Y4425000D02*
X12150000Y4475000D01*
X12100000Y4425000D02*
X12200000D01*
X12150000Y4475000D02*
X12200000Y4425000D01*
X4675000Y5800000D02*
Y5900000D01*
Y5850000D02*
X4725000Y5800000D01*
Y5900000D01*
X4675000Y5850000D02*
X4725000Y5900000D01*
X6325000Y5500000D02*
Y5600000D01*
Y5550000D02*
X6375000Y5500000D01*
Y5600000D01*
X6325000Y5550000D02*
X6375000Y5600000D01*
X11525000Y6175000D02*
X11625000D01*
X11575000D02*
X11625000Y6225000D01*
X11525000D02*
X11625000D01*
X11525000D02*
X11575000Y6175000D01*
X14614412Y5213721D02*
X14785588D01*
X14164412D02*
X14335588D01*
X13714413D02*
X13885588D01*
X13175000Y7750000D02*
Y7850000D01*
X13125000D02*
X13175000Y7800000D01*
X13125000Y7750000D02*
Y7850000D01*
Y7750000D02*
X13175000Y7800000D01*
X12925000Y7950000D02*
Y8050000D01*
X12875000D02*
X12925000Y8000000D01*
X12875000Y7950000D02*
Y8050000D01*
Y7950000D02*
X12925000Y8000000D01*
X12625000Y8200000D02*
Y8200000D01*
X12575000Y8150000D02*
X12625000Y8200000D01*
X12575000Y8150000D02*
Y8250000D01*
X12625000Y8200000D01*
Y8150000D02*
Y8250000D01*
X11895000Y5847600D02*
Y6000000D01*
Y5847600D02*
X12072800D01*
X11895000Y7524000D02*
Y7676400D01*
X12072800D01*
X16975000Y5847600D02*
X17102000D01*
Y5974600D01*
Y7574800D02*
Y7676400D01*
X16975000D02*
X17102000D01*
X6060000Y6020000D02*
X6140000D01*
X6060000Y5880000D02*
X6140000D01*
X5755000Y5610000D02*
Y5690000D01*
X5895000Y5610000D02*
Y5690000D01*
X8970000Y4760000D02*
Y4840000D01*
X8830000Y4760000D02*
Y4840000D01*
X11910000Y6580000D02*
X11990000D01*
X11910000Y6720000D02*
X11990000D01*
X13980000Y6235000D02*
Y6315000D01*
X14120000Y6235000D02*
Y6315000D01*
X15230000Y6810000D02*
Y6890000D01*
X15370000Y6810000D02*
Y6890000D01*
X13960001Y5230000D02*
Y5310000D01*
X14100000Y5230000D02*
Y5310000D01*
X14895000Y6235000D02*
Y6315000D01*
X14755000Y6235000D02*
Y6315000D01*
X15230000Y6310000D02*
Y6390000D01*
X15370000Y6310000D02*
Y6390000D01*
X6210000Y7570000D02*
X6290000D01*
X6210000Y7430000D02*
X6290000D01*
X6660000Y7570000D02*
X6740000D01*
X6660000Y7430000D02*
X6740000D01*
X12910001Y8270000D02*
X12989999D01*
X12910001Y8130000D02*
X12989999D01*
X13210001Y8070000D02*
X13289999D01*
X13210001Y7930000D02*
X13289999D01*
X13460001Y7870000D02*
X13539999D01*
X13460001Y7730000D02*
X13539999D01*
X14230000Y6235000D02*
Y6315000D01*
X14370000Y6235000D02*
Y6315000D01*
X13480000Y6235000D02*
Y6315000D01*
X13620000Y6235000D02*
Y6315000D01*
X14480000Y6235000D02*
Y6315000D01*
X14620000Y6235000D02*
Y6315000D01*
X7825000Y9025000D02*
X7925000D01*
X7825000Y8975000D02*
X7925000D01*
X7825000Y8275000D02*
X7925000D01*
X7825000Y8225000D02*
X7925000D01*
Y7725000D02*
Y9525000D01*
X12125000D01*
Y7925000D02*
Y9525000D01*
X11974997Y7825000D02*
X12074997D01*
X11774997D02*
X11874997D01*
X11574997D02*
X11674997D01*
X11374997D02*
X11474997D01*
X11174997D02*
X11274998D01*
X10974998D02*
X11074998D01*
X10774998D02*
X10874998D01*
X10574998D02*
X10674998D01*
X10374998D02*
X10474998D01*
X10174998D02*
X10274998D01*
X9974998D02*
X10074998D01*
X9774998D02*
X9874999D01*
X9574999D02*
X9674999D01*
X9374999D02*
X9474999D01*
X9174999D02*
X9274999D01*
X8974999D02*
X9074999D01*
X8774999D02*
X8874999D01*
X8574999D02*
X8674999D01*
X8375000D02*
X8475000D01*
X8175000D02*
X8275000D01*
X7975000D02*
X8075000D01*
X7925000Y7925000D02*
X12125000Y7925000D01*
Y7725000D02*
Y7925000D01*
X7925000Y7725000D02*
X12125000Y7725000D01*
X9250002Y4910000D02*
X9370002Y4910000D01*
X9480001D02*
X9600002D01*
X9710001Y4910000D02*
X9830001Y4910000D01*
X9940001D02*
X10060001D01*
X10170001Y4910000D02*
X10290001Y4910000D01*
X10400001D02*
X10520001Y4910000D01*
X10630000D02*
X10750000Y4910000D01*
X10860000D02*
X10980000Y4910000D01*
X11090000D02*
X11210000Y4910000D01*
X9250000Y4975000D02*
X11300000D01*
X9250000Y5650000D02*
X11300000D01*
X9250000Y4850000D02*
Y5650000D01*
Y4850000D02*
X11300000D01*
Y5650000D01*
Y5050000D02*
X11325000D01*
X11300000D02*
Y5100000D01*
X11325000D01*
X11300000Y5400000D02*
X11325000D01*
X11300000D02*
Y5450000D01*
X11325000D01*
X9250002Y4060000D02*
X9370002Y4060000D01*
X9480001D02*
X9600002D01*
X9710001Y4060000D02*
X9830001Y4060000D01*
X9940001D02*
X10060001D01*
X10170001Y4060000D02*
X10290001Y4060000D01*
X10400001D02*
X10520001Y4060000D01*
X10630000D02*
X10750000Y4060000D01*
X10860000D02*
X10980000Y4060000D01*
X11090000D02*
X11210000Y4060000D01*
X9250000Y4125000D02*
X11300000D01*
X9250000Y4800000D02*
X11300000D01*
X9250000Y4000000D02*
Y4800000D01*
Y4000000D02*
X11300000D01*
Y4800000D01*
Y4200000D02*
X11325000D01*
X11300000D02*
Y4250000D01*
X11325000D01*
X11300000Y4550000D02*
X11325000D01*
X11300000D02*
Y4600000D01*
X11325000D01*
X6024286Y5340000D02*
X6640000D01*
X5830000Y5500000D02*
X6024286Y5340000D01*
X7760000Y9140000D02*
Y9270000D01*
X7690000Y9200000D02*
X7830000D01*
X7995299Y4436140D02*
X7969907Y4461532D01*
X7919123D01*
X7893731Y4436140D01*
Y4334573D01*
X7919123Y4309181D01*
X7969907D01*
X7995299Y4334573D01*
X8046082Y4309181D02*
Y4410748D01*
X8096866Y4461532D01*
X8147649Y4410748D01*
Y4309181D01*
Y4385356D01*
X8046082D01*
X8198433Y4309181D02*
Y4461532D01*
X8274608D01*
X8300000Y4436140D01*
Y4385356D01*
X8274608Y4359964D01*
X8198433D01*
X8249216D02*
X8300000Y4309181D01*
X8503134Y4461532D02*
Y4359964D01*
X8553918Y4309181D01*
X8604702Y4359964D01*
Y4461532D01*
X8655485Y4309181D02*
X8706269D01*
X8680877D01*
Y4461532D01*
X8655485Y4436140D01*
X7652509Y4217751D02*
Y4065400D01*
X7703293Y4116184D01*
X7754077Y4065400D01*
Y4217751D01*
X7906427D02*
X7804860D01*
Y4065400D01*
X7906427D01*
X7804860Y4141575D02*
X7855644D01*
X7957211D02*
X8058778D01*
X8211129Y4192359D02*
X8185737Y4217751D01*
X8134954D01*
X8109562Y4192359D01*
Y4090792D01*
X8134954Y4065400D01*
X8185737D01*
X8211129Y4090792D01*
Y4141575D01*
X8160345D01*
X8363480Y4217751D02*
X8261912D01*
Y4065400D01*
X8363480D01*
X8261912Y4141575D02*
X8312696D01*
X8414263Y4065400D02*
Y4217751D01*
X8515830Y4065400D01*
Y4217751D01*
X8566614D02*
X8617397D01*
X8592006D01*
Y4065400D01*
X8566614D01*
X8617397D01*
X8693573Y4217751D02*
Y4090792D01*
X8718965Y4065400D01*
X8769748D01*
X8795140Y4090792D01*
Y4217751D01*
X8947491Y4192359D02*
X8922099Y4217751D01*
X8871315D01*
X8845923Y4192359D01*
Y4166967D01*
X8871315Y4141575D01*
X8922099D01*
X8947491Y4116184D01*
Y4090792D01*
X8922099Y4065400D01*
X8871315D01*
X8845923Y4090792D01*
X4200000Y6125401D02*
Y6225368D01*
X4150016Y6175385D02*
X4249984D01*
X5249600Y6175212D02*
X5149632D01*
X10589217Y6034608D02*
X10563825Y6009217D01*
Y5958433D01*
X10589217Y5933041D01*
X10690784D01*
X10716175Y5958433D01*
Y6009217D01*
X10690784Y6034608D01*
X10563825Y6085392D02*
Y6186959D01*
X10589217D01*
X10690784Y6085392D01*
X10716175D01*
X11865400Y4607751D02*
Y4455400D01*
X11941575D01*
X11966967Y4480792D01*
Y4506184D01*
X11941575Y4531575D01*
X11865400D01*
X11941575D01*
X11966967Y4556967D01*
Y4582359D01*
X11941575Y4607751D01*
X11865400D01*
Y4985400D02*
Y5086967D01*
X11916183Y5137751D01*
X11966967Y5086967D01*
Y4985400D01*
Y5061575D01*
X11865400D01*
X12054608Y6320783D02*
X12029216Y6346175D01*
X11978433D01*
X11953041Y6320783D01*
Y6219216D01*
X11978433Y6193825D01*
X12029216D01*
X12054608Y6219216D01*
X12206959Y6346175D02*
X12156175Y6320783D01*
X12105392Y6270000D01*
Y6219216D01*
X12130784Y6193825D01*
X12181567D01*
X12206959Y6219216D01*
Y6244608D01*
X12181567Y6270000D01*
X12105392D01*
X11983371Y6069977D02*
Y5953349D01*
X12006697Y5930023D01*
X12053348D01*
X12076674Y5953349D01*
Y6069977D01*
X12123326Y6046652D02*
X12146652Y6069977D01*
X12193303D01*
X12216629Y6046652D01*
Y6023326D01*
X12193303Y6000000D01*
X12169977D01*
X12193303D01*
X12216629Y5976674D01*
Y5953349D01*
X12193303Y5930023D01*
X12146652D01*
X12123326Y5953349D01*
X16100023Y7346652D02*
X16076697Y7369977D01*
X16030045D01*
X16006720Y7346652D01*
Y7323326D01*
X16030045Y7300000D01*
X16076697D01*
X16100023Y7276674D01*
Y7253348D01*
X16076697Y7230023D01*
X16030045D01*
X16006720Y7253348D01*
X16146674Y7369977D02*
Y7230023D01*
X16193326Y7276674D01*
X16239977Y7230023D01*
Y7369977D01*
X16286629Y7230023D02*
X16333281D01*
X16309955D01*
Y7369977D01*
X16286629Y7346652D01*
X13183371Y8130023D02*
Y8269978D01*
X13253348D01*
X13276674Y8246652D01*
Y8200000D01*
X13253348Y8176675D01*
X13183371D01*
X13230023D02*
X13276674Y8130023D01*
X13323326Y8246652D02*
X13346652Y8269978D01*
X13393303D01*
X13416629Y8246652D01*
Y8223326D01*
X13393303Y8200000D01*
X13416629Y8176675D01*
Y8153349D01*
X13393303Y8130023D01*
X13346652D01*
X13323326Y8153349D01*
Y8176675D01*
X13346652Y8200000D01*
X13323326Y8223326D01*
Y8246652D01*
X13346652Y8200000D02*
X13393303D01*
X13483371Y7930023D02*
Y8069978D01*
X13553348D01*
X13576674Y8046652D01*
Y8000000D01*
X13553348Y7976674D01*
X13483371D01*
X13530023D02*
X13576674Y7930023D01*
X13623326Y8069978D02*
X13716629D01*
Y8046652D01*
X13623326Y7953349D01*
Y7930023D01*
X13683371Y7730023D02*
Y7869977D01*
X13753348D01*
X13776674Y7846652D01*
Y7800000D01*
X13753348Y7776674D01*
X13683371D01*
X13730023D02*
X13776674Y7730023D01*
X13916629Y7869977D02*
X13869978Y7846652D01*
X13823326Y7800000D01*
Y7753348D01*
X13846652Y7730023D01*
X13893303D01*
X13916629Y7753348D01*
Y7776674D01*
X13893303Y7800000D01*
X13823326D01*
X12183371Y8269978D02*
Y8130023D01*
X12253348D01*
X12276674Y8153349D01*
Y8246652D01*
X12253348Y8269978D01*
X12183371D01*
X12323326D02*
X12416629D01*
Y8246652D01*
X12323326Y8153349D01*
Y8130023D01*
X12358371Y8069978D02*
Y7930023D01*
X12428348D01*
X12451674Y7953349D01*
Y8046652D01*
X12428348Y8069978D01*
X12358371D01*
X12591629D02*
X12544977Y8046652D01*
X12498326Y8000000D01*
Y7953349D01*
X12521652Y7930023D01*
X12568303D01*
X12591629Y7953349D01*
Y7976674D01*
X12568303Y8000000D01*
X12498326D01*
X12458371Y7894978D02*
Y7755023D01*
X12528348D01*
X12551674Y7778349D01*
Y7871652D01*
X12528348Y7894978D01*
X12458371D01*
X12691629D02*
X12598326D01*
Y7825000D01*
X12644978Y7848326D01*
X12668303D01*
X12691629Y7825000D01*
Y7778349D01*
X12668303Y7755023D01*
X12621652D01*
X12598326Y7778349D01*
X12330023Y4383371D02*
X12469977D01*
Y4453348D01*
X12446652Y4476674D01*
X12353348D01*
X12330023Y4453348D01*
Y4383371D01*
X12469977Y4593303D02*
X12330023D01*
X12400000Y4523326D01*
Y4616629D01*
X11096674Y5576652D02*
X11073348Y5599978D01*
X11026697D01*
X11003371Y5576652D01*
Y5483349D01*
X11026697Y5460023D01*
X11073348D01*
X11096674Y5483349D01*
X11236629Y5460023D02*
X11143326D01*
X11236629Y5553326D01*
Y5576652D01*
X11213303Y5599978D01*
X11166652D01*
X11143326Y5576652D01*
X4706697Y5090023D02*
Y5229978D01*
X4776674D01*
X4800000Y5206652D01*
Y5160000D01*
X4776674Y5136675D01*
X4706697D01*
X4753349D02*
X4800000Y5090023D01*
X4846652D02*
X4893303D01*
X4869978D01*
Y5229978D01*
X4846652Y5206652D01*
X9053348Y5176674D02*
X9030023Y5153348D01*
Y5106697D01*
X9053348Y5083371D01*
X9146652D01*
X9169977Y5106697D01*
Y5153348D01*
X9146652Y5176674D01*
X9169977Y5293303D02*
X9030023D01*
X9100000Y5223326D01*
Y5316629D01*
X6315125Y5853348D02*
Y5993303D01*
X6385102D01*
X6408428Y5969977D01*
Y5923326D01*
X6385102Y5900000D01*
X6315125D01*
X6361776D02*
X6408428Y5853348D01*
X6501731Y5806697D02*
X6525057D01*
X6548382Y5830023D01*
Y5946652D01*
X6478405D01*
X6455079Y5923326D01*
Y5876674D01*
X6478405Y5853348D01*
X6548382D01*
X6618360Y5946652D02*
X6665011D01*
X6688337Y5923326D01*
Y5853348D01*
X6618360D01*
X6595034Y5876674D01*
X6618360Y5900000D01*
X6688337D01*
X6758315Y5969977D02*
Y5946652D01*
X6734989D01*
X6781640D01*
X6758315D01*
Y5876674D01*
X6781640Y5853348D01*
X6921595D02*
X6874944D01*
X6851618Y5876674D01*
Y5923326D01*
X6874944Y5946652D01*
X6921595D01*
X6944921Y5923326D01*
Y5900000D01*
X6851618D01*
X7061550Y5853348D02*
Y5993303D01*
X6991573Y5923326D01*
X7084876D01*
X6770125Y5273349D02*
Y5413303D01*
X6840102D01*
X6863428Y5389978D01*
Y5343326D01*
X6840102Y5320000D01*
X6770125D01*
X6816776D02*
X6863428Y5273349D01*
X6956731Y5226697D02*
X6980057D01*
X7003382Y5250023D01*
Y5366652D01*
X6933405D01*
X6910079Y5343326D01*
Y5296674D01*
X6933405Y5273349D01*
X7003382D01*
X7073360Y5366652D02*
X7120011D01*
X7143337Y5343326D01*
Y5273349D01*
X7073360D01*
X7050034Y5296674D01*
X7073360Y5320000D01*
X7143337D01*
X7213315Y5389978D02*
Y5366652D01*
X7189989D01*
X7236641D01*
X7213315D01*
Y5296674D01*
X7236641Y5273349D01*
X7376595D02*
X7329944D01*
X7306618Y5296674D01*
Y5343326D01*
X7329944Y5366652D01*
X7376595D01*
X7399921Y5343326D01*
Y5320000D01*
X7306618D01*
X7446573Y5389978D02*
X7469898Y5413303D01*
X7516550D01*
X7539876Y5389978D01*
Y5366652D01*
X7516550Y5343326D01*
X7493224D01*
X7516550D01*
X7539876Y5320000D01*
Y5296674D01*
X7516550Y5273349D01*
X7469898D01*
X7446573Y5296674D01*
X9171651Y4065124D02*
X9031697D01*
Y4135102D01*
X9055023Y4158428D01*
X9101674D01*
X9125000Y4135102D01*
Y4065124D01*
Y4111776D02*
X9171651Y4158428D01*
X9218303Y4251731D02*
Y4275056D01*
X9194977Y4298382D01*
X9078348D01*
Y4228405D01*
X9101674Y4205079D01*
X9148326D01*
X9171651Y4228405D01*
Y4298382D01*
X9078348Y4368360D02*
Y4415011D01*
X9101674Y4438337D01*
X9171651D01*
Y4368360D01*
X9148326Y4345034D01*
X9125000Y4368360D01*
Y4438337D01*
X9055023Y4508315D02*
X9078348D01*
Y4484989D01*
Y4531640D01*
Y4508315D01*
X9148326D01*
X9171651Y4531640D01*
Y4671595D02*
Y4624944D01*
X9148326Y4601618D01*
X9101674D01*
X9078348Y4624944D01*
Y4671595D01*
X9101674Y4694921D01*
X9125000D01*
Y4601618D01*
X9171651Y4834876D02*
Y4741572D01*
X9078348Y4834876D01*
X9055023D01*
X9031697Y4811550D01*
Y4764898D01*
X9055023Y4741572D01*
X12338450Y6653349D02*
Y6793303D01*
X12408428D01*
X12431753Y6769978D01*
Y6723326D01*
X12408428Y6700000D01*
X12338450D01*
X12385102D02*
X12431753Y6653349D01*
X12525057Y6606697D02*
X12548382D01*
X12571708Y6630023D01*
Y6746652D01*
X12501731D01*
X12478405Y6723326D01*
Y6676674D01*
X12501731Y6653349D01*
X12571708D01*
X12641686Y6746652D02*
X12688337D01*
X12711663Y6723326D01*
Y6653349D01*
X12641686D01*
X12618360Y6676674D01*
X12641686Y6700000D01*
X12711663D01*
X12781640Y6769978D02*
Y6746652D01*
X12758315D01*
X12804967D01*
X12781640D01*
Y6676674D01*
X12804967Y6653349D01*
X12944920D02*
X12898270D01*
X12874944Y6676674D01*
Y6723326D01*
X12898270Y6746652D01*
X12944920D01*
X12968246Y6723326D01*
Y6700000D01*
X12874944D01*
X13014899Y6653349D02*
X13061549D01*
X13038223D01*
Y6793303D01*
X13014899Y6769978D01*
X14119977Y6480079D02*
X13980023D01*
Y6550056D01*
X14003348Y6573382D01*
X14050000D01*
X14073326Y6550056D01*
Y6480079D01*
Y6526731D02*
X14119977Y6573382D01*
Y6643360D02*
X14003348D01*
X14050000D01*
Y6620034D01*
Y6666686D01*
Y6643360D01*
X14003348D01*
X13980023Y6666686D01*
Y6736663D02*
X14119977D01*
Y6806640D01*
X14096652Y6829966D01*
X14073326D01*
X14050000D01*
X14026674Y6806640D01*
Y6736663D01*
X13980023Y6876618D02*
Y6969921D01*
X14003348D01*
X14096652Y6876618D01*
X14119977D01*
X15569977Y6730080D02*
X15430022D01*
Y6800057D01*
X15453348Y6823383D01*
X15500000D01*
X15523325Y6800057D01*
Y6730080D01*
Y6776731D02*
X15569977Y6823383D01*
Y6893360D02*
X15453348D01*
X15500000D01*
Y6870034D01*
Y6916686D01*
Y6893360D01*
X15453348D01*
X15430022Y6916686D01*
Y6986663D02*
X15569977D01*
Y7056640D01*
X15546651Y7079966D01*
X15523325D01*
X15500000D01*
X15476674Y7056640D01*
Y6986663D01*
X15430022Y7219921D02*
X15453348Y7173270D01*
X15500000Y7126618D01*
X15546651D01*
X15569977Y7149944D01*
Y7196595D01*
X15546651Y7219921D01*
X15523325D01*
X15500000Y7196595D01*
Y7126618D01*
X13105080Y5080023D02*
Y5219978D01*
X13175056D01*
X13198383Y5196652D01*
Y5150000D01*
X13175056Y5126675D01*
X13105080D01*
X13151730D02*
X13198383Y5080023D01*
X13268359D02*
Y5196652D01*
Y5150000D01*
X13245033D01*
X13291685D01*
X13268359D01*
Y5196652D01*
X13291685Y5219978D01*
X13361662D02*
Y5080023D01*
X13431641D01*
X13454967Y5103349D01*
Y5126675D01*
Y5150000D01*
X13431641Y5173326D01*
X13361662D01*
X13594920Y5219978D02*
X13501617D01*
Y5150000D01*
X13548270Y5173326D01*
X13571594D01*
X13594920Y5150000D01*
Y5103349D01*
X13571594Y5080023D01*
X13524944D01*
X13501617Y5103349D01*
X14894977Y6505079D02*
X14755023D01*
Y6575056D01*
X14778348Y6598382D01*
X14825000D01*
X14848326Y6575056D01*
Y6505079D01*
Y6551731D02*
X14894977Y6598382D01*
Y6668360D02*
X14778348D01*
X14825000D01*
Y6645034D01*
Y6691686D01*
Y6668360D01*
X14778348D01*
X14755023Y6691686D01*
Y6761663D02*
X14894977D01*
Y6831640D01*
X14871651Y6854966D01*
X14848326D01*
X14825000D01*
X14801674Y6831640D01*
Y6761663D01*
X14894977Y6971595D02*
X14755023D01*
X14825000Y6901618D01*
Y6994921D01*
X15455080Y6330023D02*
Y6469977D01*
X15525056D01*
X15548383Y6446652D01*
Y6400000D01*
X15525056Y6376674D01*
X15455080D01*
X15501730D02*
X15548383Y6330023D01*
X15618359D02*
Y6446652D01*
Y6400000D01*
X15595033D01*
X15641685D01*
X15618359D01*
Y6446652D01*
X15641685Y6469977D01*
X15711662D02*
Y6330023D01*
X15781641D01*
X15804967Y6353348D01*
Y6376674D01*
Y6400000D01*
X15781641Y6423326D01*
X15711662D01*
X15851617Y6446652D02*
X15874944Y6469977D01*
X15921594D01*
X15944920Y6446652D01*
Y6423326D01*
X15921594Y6400000D01*
X15898270D01*
X15921594D01*
X15944920Y6376674D01*
Y6353348D01*
X15921594Y6330023D01*
X15874944D01*
X15851617Y6353348D01*
X6075079Y7220023D02*
Y7359977D01*
X6145057D01*
X6168382Y7336652D01*
Y7290000D01*
X6145057Y7266674D01*
X6075079D01*
X6121731D02*
X6168382Y7220023D01*
X6238360D02*
Y7336652D01*
Y7290000D01*
X6215034D01*
X6261686D01*
X6238360D01*
Y7336652D01*
X6261686Y7359977D01*
X6331663D02*
Y7220023D01*
X6401640D01*
X6424966Y7243348D01*
Y7266674D01*
Y7290000D01*
X6401640Y7313326D01*
X6331663D01*
X6564921Y7220023D02*
X6471618D01*
X6564921Y7313326D01*
Y7336652D01*
X6541595Y7359977D01*
X6494944D01*
X6471618Y7336652D01*
X6918405Y7430023D02*
Y7569977D01*
X6988382D01*
X7011708Y7546652D01*
Y7500000D01*
X6988382Y7476674D01*
X6918405D01*
X6965057D02*
X7011708Y7430023D01*
X7081686D02*
Y7546652D01*
Y7500000D01*
X7058360D01*
X7105011D01*
X7081686D01*
Y7546652D01*
X7105011Y7569977D01*
X7174989D02*
Y7430023D01*
X7244966D01*
X7268292Y7453349D01*
Y7476674D01*
Y7500000D01*
X7244966Y7523326D01*
X7174989D01*
X7314943Y7430023D02*
X7361595D01*
X7338269D01*
Y7569977D01*
X7314943Y7546652D01*
X14369977Y6508371D02*
X14230022D01*
Y6578349D01*
X14253348Y6601674D01*
X14300000D01*
X14323325Y6578349D01*
Y6508371D01*
Y6555023D02*
X14369977Y6601674D01*
X14230022Y6741629D02*
Y6648326D01*
X14300000D01*
X14276674Y6694978D01*
Y6718303D01*
X14300000Y6741629D01*
X14346651D01*
X14369977Y6718303D01*
Y6671652D01*
X14346651Y6648326D01*
X13644977Y6483371D02*
X13505022D01*
Y6553349D01*
X13528348Y6576674D01*
X13575000D01*
X13598325Y6553349D01*
Y6483371D01*
Y6530023D02*
X13644977Y6576674D01*
Y6693303D02*
X13505022D01*
X13575000Y6623326D01*
Y6716629D01*
X14619977Y6533371D02*
X14480022D01*
Y6603348D01*
X14503348Y6626674D01*
X14550000D01*
X14573325Y6603348D01*
Y6533371D01*
Y6580023D02*
X14619977Y6626674D01*
X14503348Y6673326D02*
X14480022Y6696652D01*
Y6743303D01*
X14503348Y6766629D01*
X14526674D01*
X14550000Y6743303D01*
Y6719978D01*
Y6743303D01*
X14573325Y6766629D01*
X14596651D01*
X14619977Y6743303D01*
Y6696652D01*
X14596651Y6673326D01*
X11930000Y6936652D02*
X11906674Y6959977D01*
X11860023D01*
X11836697Y6936652D01*
Y6913326D01*
X11860023Y6890000D01*
X11906674D01*
X11930000Y6866674D01*
Y6843349D01*
X11906674Y6820023D01*
X11860023D01*
X11836697Y6843349D01*
X11976652Y6820023D02*
X12023303D01*
X11999978D01*
Y6959977D01*
X11976652Y6936652D01*
X11606697Y5330023D02*
Y5469978D01*
X11676674D01*
X11700000Y5446652D01*
Y5400000D01*
X11676674Y5376675D01*
X11606697D01*
X11746652Y5330023D02*
X11793303D01*
X11769977D01*
Y5469978D01*
X11746652Y5446652D01*
X8333371Y5519978D02*
Y5380023D01*
X8426674D01*
X8473326Y5496652D02*
X8496652Y5519978D01*
X8543303D01*
X8566629Y5496652D01*
Y5473326D01*
X8543303Y5450000D01*
X8519978D01*
X8543303D01*
X8566629Y5426674D01*
Y5403349D01*
X8543303Y5380023D01*
X8496652D01*
X8473326Y5403349D01*
X11976697Y7269978D02*
Y7130023D01*
X12070000D01*
X12116652D02*
X12163303D01*
X12139977D01*
Y7269978D01*
X12116652Y7246652D01*
X4153371Y5639978D02*
Y5500023D01*
X4223348D01*
X4246674Y5523349D01*
Y5616652D01*
X4223348Y5639978D01*
X4153371D01*
X4293326Y5616652D02*
X4316652Y5639978D01*
X4363303D01*
X4386629Y5616652D01*
Y5593326D01*
X4363303Y5570000D01*
X4339978D01*
X4363303D01*
X4386629Y5546674D01*
Y5523349D01*
X4363303Y5500023D01*
X4316652D01*
X4293326Y5523349D01*
X6983371Y5669977D02*
Y5530023D01*
X7053348D01*
X7076674Y5553349D01*
Y5646652D01*
X7053348Y5669977D01*
X6983371D01*
X7216629Y5530023D02*
X7123326D01*
X7216629Y5623326D01*
Y5646652D01*
X7193303Y5669977D01*
X7146652D01*
X7123326Y5646652D01*
X11186697Y6189977D02*
Y6050023D01*
X11256674D01*
X11280000Y6073349D01*
Y6166652D01*
X11256674Y6189977D01*
X11186697D01*
X11326652Y6050023D02*
X11373303D01*
X11349978D01*
Y6189977D01*
X11326652Y6166652D01*
X11150000Y4726652D02*
X11126674Y4749978D01*
X11080023D01*
X11056697Y4726652D01*
Y4633349D01*
X11080023Y4610023D01*
X11126674D01*
X11150000Y4633349D01*
X11196652Y4610023D02*
X11243303D01*
X11219978D01*
Y4749978D01*
X11196652Y4726652D01*
X7686674Y7896652D02*
X7663348Y7919978D01*
X7616697D01*
X7593371Y7896652D01*
Y7803349D01*
X7616697Y7780023D01*
X7663348D01*
X7686674Y7803349D01*
X7733326Y7896652D02*
X7756652Y7919978D01*
X7803303D01*
X7826629Y7896652D01*
Y7873326D01*
X7803303Y7850000D01*
X7779978D01*
X7803303D01*
X7826629Y7826674D01*
Y7803349D01*
X7803303Y7780023D01*
X7756652D01*
X7733326Y7803349D01*
X5426674Y5246652D02*
X5403348Y5269978D01*
X5356697D01*
X5333371Y5246652D01*
Y5223326D01*
X5356697Y5200000D01*
X5403348D01*
X5426674Y5176674D01*
Y5153349D01*
X5403348Y5130023D01*
X5356697D01*
X5333371Y5153349D01*
X5566629Y5130023D02*
X5473326D01*
X5566629Y5223326D01*
Y5246652D01*
X5543303Y5269978D01*
X5496652D01*
X5473326Y5246652D01*
X14201674Y5678349D02*
Y5771652D01*
X14178348Y5794977D01*
X14131697D01*
X14108371Y5771652D01*
Y5678349D01*
X14131697Y5655023D01*
X14178348D01*
X14155023Y5701674D02*
X14201674Y5655023D01*
X14178348D02*
X14201674Y5678349D01*
X14248326Y5771652D02*
X14271652Y5794977D01*
X14318303D01*
X14341629Y5771652D01*
Y5748326D01*
X14318303Y5725000D01*
X14294978D01*
X14318303D01*
X14341629Y5701674D01*
Y5678349D01*
X14318303Y5655023D01*
X14271652D01*
X14248326Y5678349D01*
X13776674D02*
Y5771652D01*
X13753348Y5794977D01*
X13706697D01*
X13683371Y5771652D01*
Y5678349D01*
X13706697Y5655023D01*
X13753348D01*
X13730023Y5701674D02*
X13776674Y5655023D01*
X13753348D02*
X13776674Y5678349D01*
X13916629Y5655023D02*
X13823326D01*
X13916629Y5748326D01*
Y5771652D01*
X13893303Y5794977D01*
X13846652D01*
X13823326Y5771652D01*
X14675000Y5678349D02*
Y5771652D01*
X14651674Y5794977D01*
X14605023D01*
X14581697Y5771652D01*
Y5678349D01*
X14605023Y5655023D01*
X14651674D01*
X14628349Y5701674D02*
X14675000Y5655023D01*
X14651674D02*
X14675000Y5678349D01*
X14721652Y5655023D02*
X14768303D01*
X14744978D01*
Y5794977D01*
X14721652Y5771652D01*
X5506697Y8169978D02*
Y8053349D01*
X5530023Y8030023D01*
X5576674D01*
X5600000Y8053349D01*
Y8169978D01*
X5646652Y8030023D02*
X5693303D01*
X5669977D01*
Y8169978D01*
X5646652Y8146652D01*
X10626694Y6479984D02*
Y6396678D01*
X10643355Y6380016D01*
X10676677D01*
X10693339Y6396678D01*
Y6479984D01*
X10793306Y6380016D02*
X10726661D01*
X10793306Y6446661D01*
Y6463323D01*
X10776645Y6479984D01*
X10743323D01*
X10726661Y6463323D01*
X6873371Y7740023D02*
Y7879977D01*
X6943348D01*
X6966674Y7856652D01*
Y7810000D01*
X6943348Y7786674D01*
X6873371D01*
X6920023D02*
X6966674Y7740023D01*
X7106629D02*
X7013326D01*
X7106629Y7833326D01*
Y7856652D01*
X7083303Y7879977D01*
X7036652D01*
X7013326Y7856652D01*
X5416677Y5808339D02*
X5400016Y5791678D01*
Y5758355D01*
X5416677Y5741694D01*
X5433339D01*
X5450000Y5758355D01*
Y5791678D01*
X5466661Y5808339D01*
X5483322D01*
X5499984Y5791678D01*
Y5758355D01*
X5483322Y5741694D01*
X5416677Y5841662D02*
X5400016Y5858323D01*
Y5891646D01*
X5416677Y5908307D01*
X5433339D01*
X5450000Y5891646D01*
Y5874984D01*
Y5891646D01*
X5466661Y5908307D01*
X5483322D01*
X5499984Y5891646D01*
Y5858323D01*
X5483322Y5841662D01*
X4983371Y6930023D02*
Y7069977D01*
X5053348D01*
X5076674Y7046652D01*
Y7000000D01*
X5053348Y6976674D01*
X4983371D01*
X5216629Y6930023D02*
X5123326D01*
X5216629Y7023326D01*
Y7046652D01*
X5193303Y7069977D01*
X5146652D01*
X5123326Y7046652D01*
X10593371Y7009978D02*
Y6870023D01*
X10686674D01*
X10826629D02*
X10733326D01*
X10826629Y6963326D01*
Y6986652D01*
X10803303Y7009978D01*
X10756652D01*
X10733326Y6986652D01*
X4500000Y8369977D02*
X4453348D01*
X4476674D01*
Y8253348D01*
X4453348Y8230023D01*
X4430023D01*
X4406697Y8253348D01*
X4546652Y8230023D02*
X4593303D01*
X4569977D01*
Y8369977D01*
X4546652Y8346652D01*
X11213348Y6326674D02*
X11190023Y6303348D01*
Y6256697D01*
X11213348Y6233371D01*
X11306652D01*
X11329977Y6256697D01*
Y6303348D01*
X11306652Y6326674D01*
X11190023Y6466629D02*
Y6373326D01*
X11260000D01*
X11236674Y6419978D01*
Y6443303D01*
X11260000Y6466629D01*
X11306652D01*
X11329977Y6443303D01*
Y6396652D01*
X11306652Y6373326D01*
D72*
X10837500Y6452500D02*
G03*
X10837500Y6452500I-12500J0D01*
G01*
X5877500Y7220000D02*
G03*
X5877500Y7220000I-12500J0D01*
G01*
X5705000Y5755000D02*
G03*
X5705000Y5755000I-12500J0D01*
G01*
Y5355000D02*
G03*
X5705000Y5355000I-12500J0D01*
G01*
X11492500Y6557500D02*
G03*
X11492500Y6557500I-12500J0D01*
G01*
X5812500Y6155000D02*
G03*
X5812500Y6155000I-12500J0D01*
G01*
X5162500Y6055000D02*
G03*
X5162500Y6055000I-12500J0D01*
G01*
X11117500Y6050000D02*
G03*
X11117500Y6050000I-12500J0D01*
G01*
X8707500Y4500000D02*
G03*
X8707500Y4500000I-12500J0D01*
G01*
X4262500Y6055000D02*
G03*
X4262500Y6055000I-12500J0D01*
G01*
X12162500Y5155000D02*
G03*
X12162500Y5155000I-12500J0D01*
G01*
X14962500Y8205000D02*
G03*
X14962500Y8205000I-12500J0D01*
G01*
X7212500Y8255000D02*
G03*
X7212500Y8255000I-12500J0D01*
G01*
X4962500D02*
G03*
X4962500Y8255000I-12500J0D01*
G01*
X4332500Y5850000D02*
G03*
X4332500Y5850000I-12500J0D01*
G01*
X5982500Y5550000D02*
G03*
X5982500Y5550000I-12500J0D01*
G01*
X11587500Y5820000D02*
G03*
X11587500Y5820000I-12500J0D01*
G01*
X8137500Y5175000D02*
G03*
X8137500Y5175000I-12500J0D01*
G01*
D73*
X10950000Y6645000D02*
G03*
X10950000Y6645000I-20000J0D01*
G01*
X11145000Y7600000D02*
G03*
X11145000Y7600000I-20000J0D01*
G01*
X11845000D02*
G03*
X11845000Y7600000I-20000J0D01*
G01*
D74*
X14260001Y5155000D02*
G03*
X14260001Y5155000I-10000J0D01*
G01*
X14164412Y5586279D02*
G03*
X14164412Y5213721I85588J-186279D01*
G01*
X14335588D02*
G03*
X14335588Y5586279I-85588J186279D01*
G01*
X13810001Y5155000D02*
G03*
X13810001Y5155000I-10000J0D01*
G01*
X13714413Y5586279D02*
G03*
X13714413Y5213721I85588J-186279D01*
G01*
X13885588D02*
G03*
X13885588Y5586279I-85588J186279D01*
G01*
X14710001Y5155000D02*
G03*
X14710001Y5155000I-10000J0D01*
G01*
X14614412Y5586279D02*
G03*
X14614412Y5213721I85588J-186279D01*
G01*
X14785588D02*
G03*
X14785588Y5586279I-85588J186279D01*
G01*
X10850000Y6565000D02*
X11150000D01*
X10850000Y6785000D02*
X11150000D01*
X10850000Y6565000D02*
Y6785000D01*
X11150000Y6565000D02*
Y6785000D01*
X5710000Y7275000D02*
Y7925000D01*
X5390000D02*
X5710000D01*
X5390000Y7275000D02*
Y7925000D01*
Y7275000D02*
X5710000D01*
X16355000Y6455000D02*
Y7045000D01*
Y6750000D02*
X16505000D01*
Y6600000D02*
Y6750000D01*
X16355000Y6600000D02*
X16505000D01*
X16175000Y7085000D02*
X16264999D01*
X16175000Y6415000D02*
X16264999D01*
X16085001Y6590000D02*
Y6760000D01*
X5407500Y6000000D02*
X5492500D01*
X5407500Y5700000D02*
X5492500D01*
X5407500Y5600000D02*
X5492500D01*
X5407500Y5300000D02*
X5492500D01*
X11725000Y6757500D02*
Y6842500D01*
X11425000Y6757500D02*
Y6842500D01*
X5660000Y5810000D02*
Y6090000D01*
X5660000Y5810000D02*
X5940000D01*
Y6090000D01*
X5660000Y6090000D02*
X5940000D01*
X5010000Y5710000D02*
Y5990000D01*
X5010000Y5710000D02*
X5290000D01*
Y5990000D01*
X5010000Y5990000D02*
X5290000D01*
X10760000Y6190000D02*
X11040000D01*
X10760000Y5910000D02*
Y6190000D01*
Y5910000D02*
X11040000D01*
X11040000Y5910000D02*
Y6190000D01*
X8760000Y4360000D02*
X9040000D01*
X9040000Y4360000D02*
Y4640000D01*
X8760000D02*
X9040000D01*
X8760000Y4360000D02*
Y4640000D01*
X4110000Y5710000D02*
Y5990000D01*
X4110000Y5710000D02*
X4390000D01*
Y5990000D01*
X4110000Y5990000D02*
X4390000D01*
X12010000Y4810000D02*
Y5090000D01*
X12010000Y4810000D02*
X12290000D01*
Y5090000D01*
X12010000Y5090000D02*
X12290000D01*
X14810001Y7860000D02*
Y8140000D01*
X14810001Y7860000D02*
X15089999D01*
Y8140000D01*
X14810001Y8140000D02*
X15089999D01*
X5104999Y6465000D02*
Y6810000D01*
Y6465000D02*
X5224999D01*
Y6275000D02*
Y6465000D01*
X5104999Y6275000D02*
X5224999D01*
X5104999Y6090000D02*
Y6275000D01*
X4295000Y6090000D02*
X5104999D01*
X4295000Y6810000D02*
X5104999D01*
X4295000Y6090000D02*
Y6275000D01*
X4175000D02*
X4295000D01*
X4175000D02*
Y6465000D01*
X4295000D01*
Y6810000D01*
X7060000Y7910000D02*
Y8190000D01*
X7060000Y7910000D02*
X7340000D01*
Y8190000D01*
X7060000Y8190000D02*
X7340000D01*
X11565500Y4404000D02*
X11834500D01*
Y5196000D01*
X11565500D02*
X11834500D01*
X11565500Y4404000D02*
Y5196000D01*
X4810000Y7910000D02*
Y8190000D01*
X4810000Y7910000D02*
X5090000D01*
Y8190000D01*
X4810000Y8190000D02*
X5090000D01*
X10575000Y7090000D02*
Y7710000D01*
X10775000D01*
X10575000Y7090000D02*
X10775000D01*
X11025000D02*
X11225000D01*
X11025000Y7710000D02*
X11225000D01*
Y7090000D02*
Y7710000D01*
X11275000Y7090000D02*
Y7710000D01*
X11475000D01*
X11275000Y7090000D02*
X11475000D01*
X11725000D02*
X11925000D01*
X11725000Y7710000D02*
X11925000D01*
Y7090000D02*
Y7710000D01*
X4346000Y7171000D02*
X4509000Y7171000D01*
X4346000Y8065000D02*
X4509000Y8065000D01*
X3963000Y7171000D02*
X4104000D01*
X3963000Y8065000D02*
X4104000D01*
X3963000Y7171000D02*
Y8065000D01*
X12010000Y4675000D02*
X12035000D01*
X12010000Y4225000D02*
X12035000D01*
X12265000D02*
X12290000D01*
X12265000Y4675000D02*
X12290000D01*
X12010000Y4225000D02*
Y4675000D01*
X12290000Y4225000D02*
Y4675000D01*
X4470000Y5972500D02*
Y5996000D01*
Y5704000D02*
Y5727500D01*
Y5704000D02*
X4930000D01*
Y5972500D02*
Y5996000D01*
Y5704000D02*
Y5727500D01*
X4470000Y5996000D02*
X4930000D01*
X6120000Y5672500D02*
Y5696000D01*
Y5404000D02*
Y5427500D01*
Y5404000D02*
X6580000D01*
Y5672500D02*
Y5696000D01*
Y5404000D02*
Y5427500D01*
X6120000Y5696000D02*
X6580000D01*
X11429000Y5970000D02*
X11452500D01*
X11697500D02*
X11721000D01*
Y6430000D01*
X11429000D02*
X11452500D01*
X11697500D02*
X11721000D01*
X11429000Y5970000D02*
Y6430000D01*
X4570000Y5282500D02*
X5030000D01*
X4570000Y5617500D02*
X5030000D01*
X6220000Y7967500D02*
X6680000D01*
X6220000Y7632500D02*
X6680000D01*
D75*
X11400000Y5850000D02*
X11750000D01*
X6000000Y5400000D02*
Y5700000D01*
X13650000Y5100000D02*
X13975000D01*
D76*
X12150000Y4512000D02*
D03*
%TF.MD5,0745946e3c2cdd9b1258b9329de995f8*%
M02*
