%TF.GenerationSoftware,Altium Limited,Altium Designer,21.0.9 (235)*%
G04 Layer_Color=0*
%FSLAX45Y45*%
%MOMM*%
%TF.SameCoordinates,4BE4B6C8-753D-4877-B088-52E4D9ED0B03*%
%TF.FilePolarity,Positive*%
%TF.FileFunction,Plated,1,2,PTH,Drill*%
%TF.Part,Single*%
G01*
G75*
%TA.AperFunction,ComponentDrill*%
%ADD93C,0.90000*%
%ADD95C,1.10000*%
%ADD96C,1.00000*%
%ADD97C,0.90000*%
%ADD98C,1.40000*%
%ADD99O,1.70000X0.60000*%
%ADD100O,1.40000X0.60000*%
%ADD101C,0.80000*%
%TA.AperFunction,ViaDrill,NotFilled*%
%ADD102C,0.35000*%
%ADD103C,0.71120*%
D93*
X10900000Y6050000D02*
D03*
X8900000Y4500000D02*
D03*
D95*
X16086000Y6000000D02*
D03*
X15832001D02*
D03*
X15578000D02*
D03*
X15324001D02*
D03*
X15070000D02*
D03*
X14816000D02*
D03*
X14562000D02*
D03*
X14308000D02*
D03*
X14053999D02*
D03*
X13800000D02*
D03*
X13546001D02*
D03*
X13292000D02*
D03*
X13038000D02*
D03*
X12784000D02*
D03*
X12530000D02*
D03*
Y7524000D02*
D03*
X12784000D02*
D03*
X13038000D02*
D03*
X13292000D02*
D03*
X13546001D02*
D03*
X13800000D02*
D03*
X14053999D02*
D03*
X14308000D02*
D03*
X14562000D02*
D03*
X14816000D02*
D03*
X15070000D02*
D03*
X15324001D02*
D03*
X15578000D02*
D03*
X15832001D02*
D03*
X16086000D02*
D03*
X11700000Y5054000D02*
D03*
Y4800000D02*
D03*
Y4546000D02*
D03*
X7725000Y9000000D02*
D03*
Y8250000D02*
D03*
D96*
X14250000Y5273000D02*
D03*
Y5527000D02*
D03*
X13800000Y5273000D02*
D03*
Y5527000D02*
D03*
X14700000Y5273000D02*
D03*
Y5527000D02*
D03*
D97*
X5800000Y5950000D02*
D03*
X5150000Y5850000D02*
D03*
X4250000D02*
D03*
X12150000Y4950000D02*
D03*
X14950000Y8000000D02*
D03*
X7200000Y8050000D02*
D03*
X4950000D02*
D03*
D98*
X4875000Y6370000D02*
D03*
X4525000D02*
D03*
D99*
X4643000Y8050000D02*
D03*
Y7186000D02*
D03*
D100*
X4225000Y8050000D02*
D03*
Y7186000D02*
D03*
D101*
X11400000Y5075000D02*
D03*
Y5425000D02*
D03*
Y4225000D02*
D03*
Y4575000D02*
D03*
D102*
X7175000Y7225000D02*
D03*
X10775000Y4500000D02*
D03*
X9975000Y4225000D02*
D03*
X13425000Y5550000D02*
D03*
X12900000D02*
D03*
X11100000Y6610000D02*
D03*
X11000000D02*
D03*
X10580000Y6280000D02*
D03*
X15039999Y6880000D02*
D03*
X13730000D02*
D03*
X14289999Y6870000D02*
D03*
X12360000Y4990000D02*
D03*
X12320000Y5210000D02*
D03*
X12360000Y4310000D02*
D03*
X11810000Y4160000D02*
D03*
X5450000Y5560000D02*
D03*
Y5650000D02*
D03*
Y5960000D02*
D03*
X12020000Y6270000D02*
D03*
Y6450000D02*
D03*
X11840000D02*
D03*
X7410000Y7810000D02*
D03*
X8520000Y7880000D02*
D03*
X8530000Y8250000D02*
D03*
X8320000Y7880000D02*
D03*
X8370000Y8250000D02*
D03*
X8600000Y4500000D02*
D03*
X5300000Y7900000D02*
D03*
X5200000D02*
D03*
X5100000D02*
D03*
Y7800000D02*
D03*
Y7700000D02*
D03*
Y7600000D02*
D03*
Y7500000D02*
D03*
Y7400000D02*
D03*
X5300000Y7300000D02*
D03*
X5200000D02*
D03*
X5100000D02*
D03*
D103*
X15300000Y6600000D02*
D03*
X7791500Y8600000D02*
D03*
X11250000Y6900000D02*
D03*
X12200000Y6650000D02*
D03*
X10800000Y5750000D02*
D03*
X10600000Y5450000D02*
D03*
X6850000Y5550000D02*
D03*
X7950000Y5250000D02*
D03*
X6450000Y7500000D02*
D03*
%TF.MD5,028d0ec68c418c4adbbed2137372469e*%
M02*
