%TF.GenerationSoftware,Altium Limited,Altium Designer,21.0.9 (235)*%
G04 Layer_Color=0*
%FSLAX45Y45*%
%MOMM*%
%TF.SameCoordinates,4BE4B6C8-753D-4877-B088-52E4D9ED0B03*%
%TF.FilePolarity,Positive*%
%TF.FileFunction,Profile,NP*%
%TF.Part,Single*%
G01*
G75*
%TA.AperFunction,Profile*%
%ADD92C,0.02540*%
G36*
X15470000Y5540000D02*
X15453256D01*
X15420413Y5533467D01*
X15389474Y5520652D01*
X15361630Y5502048D01*
X15337952Y5478369D01*
X15319348Y5450525D01*
X15306532Y5419587D01*
X15300000Y5386744D01*
Y5353257D01*
X15306532Y5320413D01*
X15319348Y5289475D01*
X15337952Y5261631D01*
X15361630Y5237952D01*
X15389474Y5219348D01*
X15420413Y5206533D01*
X15453256Y5200000D01*
X15470000D01*
D01*
X15700000D01*
X15716743D01*
X15749586Y5206533D01*
X15780525Y5219348D01*
X15808368Y5237952D01*
X15832047Y5261631D01*
X15850652Y5289475D01*
X15863467Y5320413D01*
X15870000Y5353257D01*
Y5386744D01*
X15863467Y5419587D01*
X15850652Y5450525D01*
X15832047Y5478369D01*
X15808368Y5502048D01*
X15780525Y5520652D01*
X15749586Y5533467D01*
X15716743Y5540000D01*
X15700000D01*
D01*
X15470000D01*
D02*
G37*
G36*
X15470000Y8170000D02*
X15453256D01*
X15420413Y8163467D01*
X15389474Y8150652D01*
X15361630Y8132047D01*
X15337952Y8108369D01*
X15319348Y8080525D01*
X15306532Y8049587D01*
X15300000Y8016743D01*
Y7983256D01*
X15306532Y7950413D01*
X15319348Y7919475D01*
X15337952Y7891631D01*
X15361630Y7867952D01*
X15389474Y7849348D01*
X15420413Y7836533D01*
X15453256Y7830000D01*
X15470000D01*
D01*
X15700000D01*
X15716743D01*
X15749586Y7836533D01*
X15780525Y7849348D01*
X15808369Y7867952D01*
X15832048Y7891631D01*
X15850652Y7919475D01*
X15863467Y7950413D01*
X15870000Y7983256D01*
Y8016743D01*
X15863467Y8049587D01*
X15850652Y8080525D01*
X15832048Y8108369D01*
X15808369Y8132047D01*
X15780525Y8150652D01*
X15749586Y8163467D01*
X15716743Y8170000D01*
X15700000D01*
D01*
X15470000D01*
D02*
G37*
G36*
X5599994Y7099999D02*
X6799991Y7099999D01*
X6819654Y7099999D01*
X6858643Y7094866D01*
X6896629Y7084688D01*
X6932961Y7069638D01*
X6967019Y7049975D01*
X6998218Y7026035D01*
X7026025Y6998227D01*
X7049965Y6967027D01*
X7069627Y6932970D01*
X7084676Y6896637D01*
X7094854Y6858652D01*
X7099986Y6819662D01*
X7099986Y6799999D01*
X7099987Y6800000D01*
X7500000D01*
Y7600000D01*
Y7609849D01*
X7503843Y7629169D01*
X7511381Y7647368D01*
X7522325Y7663746D01*
X7536254Y7677675D01*
X7552632Y7688619D01*
X7570831Y7696157D01*
X7590151Y7700000D01*
X7600000Y7700000D01*
X7600000Y7700000D01*
X10400000Y7700000D01*
X10409849Y7700000D01*
X10429169Y7696157D01*
X10447368Y7688619D01*
X10463746Y7677675D01*
X10477675Y7663746D01*
X10488619Y7647367D01*
X10496157Y7629168D01*
X10499999Y7609848D01*
X10499999Y7599999D01*
X10500000Y7600000D01*
Y6800000D01*
X10550000Y6800000D01*
X10564773Y6800000D01*
X10593753Y6794236D01*
X10621052Y6782928D01*
X10645619Y6766513D01*
X10666512Y6745619D01*
X10682928Y6721051D01*
X10694235Y6693752D01*
X10699998Y6664773D01*
X10699998Y6649999D01*
X10699999Y6650000D01*
X10700000Y6635226D01*
X10694236Y6606245D01*
X10682929Y6578946D01*
X10666513Y6554378D01*
X10645619Y6533485D01*
X10621050Y6517069D01*
X10593751Y6505762D01*
X10564771Y6499999D01*
X10549997Y6499999D01*
X10549998D01*
X10500000Y6500000D01*
X10500000Y5700000D01*
X10500000Y5690151D01*
X10496157Y5670830D01*
X10488619Y5652631D01*
X10477676Y5636253D01*
X10463746Y5622324D01*
X10447367Y5611380D01*
X10429168Y5603842D01*
X10409848Y5599999D01*
X10399999Y5600000D01*
X10400000D01*
X7600000D01*
X7590151D01*
X7570831Y5603843D01*
X7552632Y5611381D01*
X7536254Y5622325D01*
X7522325Y5636254D01*
X7511381Y5652632D01*
X7503843Y5670831D01*
X7500000Y5690151D01*
Y5700000D01*
D01*
Y6500000D01*
X7100000D01*
Y6200000D01*
Y6187688D01*
X7095196Y6163539D01*
X7085773Y6140790D01*
X7072094Y6120317D01*
X7054683Y6102906D01*
X7034210Y6089226D01*
X7011461Y6079804D01*
X6987311Y6075000D01*
X6975000D01*
D01*
X5425000D01*
X5412688D01*
X5388539Y6079804D01*
X5365790Y6089226D01*
X5345317Y6102906D01*
X5327906Y6120317D01*
X5314226Y6140790D01*
X5304804Y6163539D01*
X5300000Y6187688D01*
Y6200000D01*
D01*
X5300000Y6800006D01*
Y6819668D01*
X5305133Y6858657D01*
X5315311Y6896642D01*
X5330360Y6932974D01*
X5350023Y6967031D01*
X5373962Y6998229D01*
X5401769Y7026036D01*
X5432968Y7049976D01*
X5467025Y7069639D01*
X5503357Y7084687D01*
X5541342Y7094865D01*
X5580331Y7099998D01*
X5599994Y7099998D01*
X5599994Y7099999D01*
D02*
G37*
D92*
X4175000Y4450000D02*
X4100000Y4525000D01*
Y8700000D01*
X4150000Y8750000D01*
X4315000D01*
Y8625000D01*
D02*
G03*
X4635000Y8625000I160000J0D01*
G01*
Y8750000D01*
X5000000D01*
Y8325000D01*
X5000000D01*
D02*
G03*
X5125000Y8200000I125000J0D01*
G01*
X5800000D01*
Y8100000D01*
D02*
G03*
X5900000Y8000000I100000J0D01*
G01*
X6500000D01*
D02*
G03*
X6600000Y8100000I0J100000D01*
G01*
Y8200000D01*
X7425000D01*
D02*
G03*
X7600000Y8375000I-0J175000D01*
G01*
X7600000D01*
Y9300000D01*
X12500000D01*
Y8475000D01*
D02*
G03*
X12675000Y8300000I175000J0D01*
G01*
X15300000Y8300000D01*
X15700000D01*
D02*
G02*
X16400000Y7600000I0J-700000D01*
G01*
Y5700000D01*
D02*
G02*
X15700000Y5000000I-700000J0D01*
G01*
Y5000000D01*
X12675000D01*
D02*
G03*
X12500000Y4825000I0J-175000D01*
G01*
X12500000D01*
Y4000000D01*
X7600000D01*
Y5000000D01*
D02*
G03*
X7500000Y5100000I-100000J0D01*
G01*
X6600000D01*
Y5200000D01*
D02*
G03*
X6500000Y5300000I-100000J0D01*
G01*
X5900000D01*
D02*
G03*
X5800000Y5200000I0J-100000D01*
G01*
Y5100000D01*
X5125000D01*
D02*
G03*
X5000000Y4975000I0J-125000D01*
G01*
X5000000D01*
Y4450000D01*
X4635000D01*
Y4600000D01*
D02*
G03*
X4315000Y4600000I-160000J0D01*
G01*
Y4450000D01*
X4175000D01*
%TF.MD5,6c33c22ef0925b2673d75389442e7b6c*%
M02*
